{
copyright = "CCopyright (c) 2015 Sol Matas (sol@sonnenshine.com.ar) Copyright (c) 2015 Mooniak (hello@mooniak.com) \012";
customParameters = (
{
name = glyphOrder;
value = (
    ".notdef",
    uni0D82,
    "si_A",
    "si_U",
    "si_Ga",
    "si_Tta",
    "si_Dda",
    "si_Ddha",
    "si_Nna",
    "si_Da",
    "si_Ma",
    "si_Ya",
    "si_Ra",
    "si_La",
    "si_Va",
    "si_Sa",
    "si_TI",
    uni0020,
    "si_TI.rakar",
    uni0031,
    "NameMe.12",
    uni0044,
    uni0046,
    uni0047,
    uni0049
);
},
{
name = vendorID;
value = PfEd;
}
);
date = "2015-08-24 10:34:41 +0000";
designerURL = "http://www.mooniak.com/type";
familyName = "Ayanna";
featurePrefixes = (
{
automatic = 1;
code = "languagesystem DFLT dflt;";
name = Languagesystems;
}
);
features = (
{
automatic = 1;
code = "feature sups;\012feature frac;\012feature ordn;";
name = aalt;
},
{
automatic = 1;
code = "sub one by onesuperior;\012sub two by twosuperior;\012sub three by threesuperior;";
name = sups;
},
{
automatic = 1;
code = "sub one slash four by onequarter;\012sub one slash two by onehalf;\012sub three slash four by threequarters;";
name = frac;
},
{
automatic = 1;
code = "sub [zero one two three four five six seven eight nine] [A a]' by ordfeminine;\012sub [zero one two three four five six seven eight nine] [O o]' by ordmasculine;";
name = ordn;
},
{
automatic = 1;
code = "sub f i by fi;\012sub f l by fl;";
name = liga;
}
);
fontMaster = (
{
alignmentZones = (
"{725, 7}",
"{675, 7}",
"{500, 7}",
"{0, -7}",
"{-205, -7}"
);
ascender = 725;
capHeight = 675;
customParameters = (
{
name = typoAscender;
value = 819;
},
{
name = typoDescender;
value = -205;
},
{
name = typoLineGap;
value = 92;
},
{
name = underlineThickness;
value = 51;
},
{
name = underlinePosition;
value = -102;
}
);
descender = -205;
horizontalStems = (
33,
35,
37,
39,
43
);
id = "CC11FE7D-5FF0-4B40-9597-DFC61EB94F41";
userData = {
angle = 5;
height = 37;
width = 42;
};
verticalStems = (
40,
42,
43,
46
);
weight = Light;

glyphs = (
{
color = 3;
glyphname = A;
layers = (
{
anchors = (
{
name = ogonek;
position = "{503, 5}";
},
{
name = top;
position = "{257, 645}";
}
);
layerId = "CC11FE7D-5FF0-4B40-9597-DFC61EB94F41";
name = "Light Condensed";
paths = (
{
closed = 1;
nodes = (
"55 0 LINE",
"220 525 LINE SMOOTH",
"230 558 OFFCURVE",
"248 618 OFFCURVE",
"257 649 CURVE",
"253 649 LINE",
"262 618 OFFCURVE",
"280 558 OFFCURVE",
"290 525 CURVE SMOOTH",
"454 0 LINE",
"503 0 LINE",
"288 675 LINE",
"226 675 LINE",
"10 0 LINE"
);
},
{
closed = 1;
nodes = (
"413 180 LINE",
"413 215 LINE",
"100 215 LINE",
"100 180 LINE"
);
}
);
width = 513;
}
);
unicode = 0041;
userData = {
com.schriftgestaltung.Glyphs.ColorIndex = 3;
public.markColor = "0.97,1,0,1";
};
},
{
color = 3;
glyphname = AE;
layers = (
{
anchors = (
{
name = top;
position = "{468, 635}";
}
);
components = (
{
name = E;
transform = "{1, 0, 0, 1, 347, 0}";
}
);
layerId = "CC11FE7D-5FF0-4B40-9597-DFC61EB94F41";
name = "Light Condensed";
paths = (
{
closed = 1;
nodes = (
"59 0 LINE",
"334 473 LINE SMOOTH",
"368 532 OFFCURVE",
"401 590 OFFCURVE",
"435 649 CURVE",
"432 649 LINE",
"467 675 LINE",
"405 675 LINE",
"10 0 LINE"
);
},
{
closed = 1;
nodes = (
"456 181 LINE",
"456 216 LINE",
"162 215 LINE",
"143 180 LINE"
);
}
);
width = 810;
}
);
leftMetricsKey = A;
rightMetricsKey = E;
unicode = 00C6;
userData = {
com.schriftgestaltung.Glyphs.ColorIndex = 3;
com.schriftgestaltung.Glyphs.leftMetricsKey = A;
com.schriftgestaltung.Glyphs.rightMetricsKey = E;
public.markColor = "0.97,1,0,1";
};
},
{
color = 3;
glyphname = B;
layers = (
{
layerId = "CC11FE7D-5FF0-4B40-9597-DFC61EB94F41";
name = "Light Condensed";
paths = (
{
closed = 1;
nodes = (
"381 -3 OFFCURVE",
"456 75 OFFCURVE",
"456 194 CURVE SMOOTH",
"456 278 OFFCURVE",
"395 359 OFFCURVE",
"279 359 CURVE",
"279 352 LINE",
"358 352 OFFCURVE",
"437 421 OFFCURVE",
"437 517 CURVE SMOOTH",
"437 596 OFFCURVE",
"391 677 OFFCURVE",
"234 677 CURVE SMOOTH",
"187 677 OFFCURVE",
"132 677 OFFCURVE",
"85 675 CURVE",
"85 0 LINE",
"124 -3 OFFCURVE",
"160 -3 OFFCURVE",
"192 -3 CURVE SMOOTH"
);
},
{
closed = 1;
nodes = (
"127 650 LINE",
"113 637 LINE",
"153 639 OFFCURVE",
"190 640 OFFCURVE",
"227 640 CURVE SMOOTH",
"346 640 OFFCURVE",
"392 588 OFFCURVE",
"392 508 CURVE SMOOTH",
"392 430 OFFCURVE",
"334 369 OFFCURVE",
"215 369 CURVE SMOOTH",
"105 369 LINE",
"105 334 LINE",
"227 334 LINE SMOOTH",
"354 334 OFFCURVE",
"410 277 OFFCURVE",
"410 190 CURVE SMOOTH",
"410 74 OFFCURVE",
"327 34 OFFCURVE",
"208 34 CURVE SMOOTH",
"182 34 OFFCURVE",
"149 35 OFFCURVE",
"114 39 CURVE",
"127 26 LINE"
);
}
);
width = 503;
}
);
unicode = 0042;
userData = {
com.schriftgestaltung.Glyphs.ColorIndex = 3;
public.markColor = "0.97,1,0,1";
};
},
{
color = 3;
glyphname = C;
layers = (
{
anchors = (
{
name = bottom;
position = "{298, 0}";
},
{
name = top;
position = "{298, 645}";
}
);
layerId = "CC11FE7D-5FF0-4B40-9597-DFC61EB94F41";
name = "Light Condensed";
paths = (
{
closed = 1;
nodes = (
"399 51 OFFCURVE",
"349 33 OFFCURVE",
"295 33 CURVE SMOOTH",
"164 33 OFFCURVE",
"87 145 OFFCURVE",
"87 336 CURVE SMOOTH",
"87 528 OFFCURVE",
"165 643 OFFCURVE",
"295 643 CURVE SMOOTH",
"365 643 OFFCURVE",
"423 609 OFFCURVE",
"457 525 CURVE",
"497 540 LINE",
"459 637 OFFCURVE",
"383 682 OFFCURVE",
"297 682 CURVE SMOOTH",
"146 682 OFFCURVE",
"40 557 OFFCURVE",
"40 336 CURVE SMOOTH",
"40 123 OFFCURVE",
"137 -7 OFFCURVE",
"290 -7 CURVE SMOOTH",
"352 -7 OFFCURVE",
"411 14 OFFCURVE",
"483 61 CURVE",
"464 92 LINE"
);
}
);
width = 505;
}
);
unicode = 0043;
userData = {
com.schriftgestaltung.Glyphs.ColorIndex = 3;
public.markColor = "0.97,1,0,1";
};
},
{
color = 3;
glyphname = D;
layers = (
{
anchors = (
{
name = center;
position = "{280, 338}";
},
{
name = top;
position = "{258, 645}";
}
);
layerId = "CC11FE7D-5FF0-4B40-9597-DFC61EB94F41";
name = "Light Condensed";
paths = (
{
closed = 1;
nodes = (
"194 678 OFFCURVE",
"146 676 OFFCURVE",
"85 675 CURVE",
"85 0 LINE",
"146 -2 OFFCURVE",
"192 -3 OFFCURVE",
"239 -3 CURVE SMOOTH",
"430 -3 OFFCURVE",
"520 149 OFFCURVE",
"520 336 CURVE SMOOTH",
"520 526 OFFCURVE",
"441 678 OFFCURVE",
"241 678 CURVE SMOOTH"
);
},
{
closed = 1;
nodes = (
"205 35 OFFCURVE",
"162 35 OFFCURVE",
"114 37 CURVE",
"127 25 LINE",
"127 650 LINE",
"114 638 LINE",
"162 639 OFFCURVE",
"207 640 OFFCURVE",
"241 640 CURVE SMOOTH",
"407 640 OFFCURVE",
"474 505 OFFCURVE",
"474 336 CURVE SMOOTH",
"474 170 OFFCURVE",
"404 35 OFFCURVE",
"239 35 CURVE SMOOTH"
);
}
);
width = 560;
}
);
unicode = 0044;
userData = {
com.schriftgestaltung.Glyphs.ColorIndex = 3;
public.markColor = "0.97,1,0,1";
};
},
{
glyphname = Eth;
layers = (
{
components = (
{
name = D;
transform = "{1, 0, 0, 1, 2, 0}";
}
);
layerId = "CC11FE7D-5FF0-4B40-9597-DFC61EB94F41";
name = "Light Condensed";
paths = (
{
closed = 1;
nodes = (
"7 371 LINE",
"7 336 LINE",
"292 336 LINE",
"292 371 LINE"
);
}
);
width = 562;
}
);
unicode = 00D0;
},
{
color = 3;
glyphname = E;
layers = (
{
anchors = (
{
name = bottom;
position = "{241, 0}";
},
{
name = ogonek;
position = "{408, 5}";
},
{
name = top;
position = "{244, 645}";
}
);
layerId = "CC11FE7D-5FF0-4B40-9597-DFC61EB94F41";
name = "Light Condensed";
paths = (
{
closed = 1;
nodes = (
"127 25 LINE",
"127 346 LINE",
"114 335 LINE",
"370 335 LINE",
"370 372 LINE",
"114 372 LINE",
"127 361 LINE",
"127 650 LINE",
"114 638 LINE",
"399 638 LINE",
"399 675 LINE",
"85 675 LINE",
"85 0 LINE",
"408 0 LINE",
"408 37 LINE",
"114 37 LINE"
);
}
);
width = 463;
}
);
unicode = 0045;
userData = {
com.schriftgestaltung.Glyphs.ColorIndex = 3;
public.markColor = "0.97,1,0,1";
};
},
{
color = 3;
glyphname = F;
layers = (
{
layerId = "CC11FE7D-5FF0-4B40-9597-DFC61EB94F41";
name = "Light Condensed";
paths = (
{
closed = 1;
nodes = (
"402 675 LINE",
"85 675 LINE",
"85 0 LINE",
"127 0 LINE",
"127 356 LINE",
"114 345 LINE",
"373 345 LINE",
"373 382 LINE",
"114 382 LINE",
"127 371 LINE",
"127 650 LINE",
"114 638 LINE",
"402 638 LINE"
);
}
);
width = 442;
}
);
unicode = 0046;
userData = {
com.schriftgestaltung.Glyphs.ColorIndex = 3;
public.markColor = "0.97,1,0,1";
};
},
{
color = 3;
glyphname = G;
layers = (
{
anchors = (
{
name = bottom;
position = "{280, 0}";
},
{
name = top;
position = "{302, 645}";
}
);
layerId = "CC11FE7D-5FF0-4B40-9597-DFC61EB94F41";
name = "Light Condensed";
paths = (
{
closed = 1;
nodes = (
"485 85 LINE",
"418 50 OFFCURVE",
"365 31 OFFCURVE",
"309 31 CURVE SMOOTH",
"175 31 OFFCURVE",
"86 140 OFFCURVE",
"86 336 CURVE SMOOTH",
"86 522 OFFCURVE",
"171 643 OFFCURVE",
"301 643 CURVE SMOOTH",
"371 643 OFFCURVE",
"427 608 OFFCURVE",
"465 524 CURVE",
"505 540 LINE",
"463 637 OFFCURVE",
"389 682 OFFCURVE",
"303 682 CURVE SMOOTH",
"149 682 OFFCURVE",
"40 552 OFFCURVE",
"40 336 CURVE SMOOTH",
"40 117 OFFCURVE",
"146 -8 OFFCURVE",
"305 -8 CURVE SMOOTH",
"361 -8 OFFCURVE",
"430 11 OFFCURVE",
"505 51 CURVE",
"505 314 LINE",
"295 314 LINE",
"295 277 LINE",
"475 277 LINE",
"463 289 LINE",
"463 51 LINE"
);
}
);
width = 560;
}
);
unicode = 0047;
userData = {
com.schriftgestaltung.Glyphs.ColorIndex = 3;
public.markColor = "0.97,1,0,1";
};
},
{
color = 3;
glyphname = H;
layers = (
{
layerId = "CC11FE7D-5FF0-4B40-9597-DFC61EB94F41";
name = "Light Condensed";
paths = (
{
closed = 1;
nodes = (
"474 359 LINE",
"487 369 LINE",
"114 369 LINE",
"127 359 LINE",
"127 675 LINE",
"85 675 LINE",
"85 0 LINE",
"127 0 LINE",
"127 344 LINE",
"114 334 LINE",
"487 334 LINE",
"474 344 LINE",
"474 0 LINE",
"516 0 LINE",
"516 675 LINE",
"474 675 LINE"
);
}
);
width = 601;
}
);
unicode = 0048;
userData = {
com.schriftgestaltung.Glyphs.ColorIndex = 3;
public.markColor = "0.97,1,0,1";
};
},
{
color = 3;
glyphname = I;
layers = (
{
anchors = (
{
name = ogonek;
position = "{125, 5}";
},
{
name = top;
position = "{104, 645}";
}
);
layerId = "CC11FE7D-5FF0-4B40-9597-DFC61EB94F41";
name = "Light Condensed";
paths = (
{
closed = 1;
nodes = (
"83 675 LINE",
"83 0 LINE",
"125 0 LINE",
"125 675 LINE"
);
}
);
width = 209;
}
);
unicode = 0049;
userData = {
com.schriftgestaltung.Glyphs.ColorIndex = 3;
public.markColor = "0.97,1,0,1";
};
},
{
glyphname = Icircumflex;
layers = (
{
components = (
{
name = I;
}
);
layerId = "CC11FE7D-5FF0-4B40-9597-DFC61EB94F41";
name = "Light Condensed";
paths = (
{
closed = 1;
nodes = (
"109 854 LINE",
"-5 747 LINE",
"16 721 LINE",
"110 803 LINE",
"102 803 LINE",
"198 720 LINE",
"220 749 LINE"
);
}
);
width = 209;
}
);
unicode = 00CE;
},
{
glyphname = Idieresis;
layers = (
{
components = (
{
name = I;
}
);
layerId = "CC11FE7D-5FF0-4B40-9597-DFC61EB94F41";
name = "Light Condensed";
paths = (
{
closed = 1;
nodes = (
"51 752 OFFCURVE",
"63 769 OFFCURVE",
"63 789 CURVE SMOOTH",
"63 809 OFFCURVE",
"51 826 OFFCURVE",
"31 826 CURVE SMOOTH",
"10 826 OFFCURVE",
"-2 809 OFFCURVE",
"-2 789 CURVE SMOOTH",
"-2 769 OFFCURVE",
"10 752 OFFCURVE",
"31 752 CURVE SMOOTH"
);
},
{
closed = 1;
nodes = (
"198 752 OFFCURVE",
"210 769 OFFCURVE",
"210 789 CURVE SMOOTH",
"210 809 OFFCURVE",
"198 826 OFFCURVE",
"177 826 CURVE SMOOTH",
"157 826 OFFCURVE",
"145 809 OFFCURVE",
"145 789 CURVE SMOOTH",
"145 769 OFFCURVE",
"157 752 OFFCURVE",
"177 752 CURVE SMOOTH"
);
}
);
width = 209;
}
);
unicode = 00CF;
},
{
glyphname = Imacron;
layers = (
{
components = (
{
name = I;
}
);
layerId = "CC11FE7D-5FF0-4B40-9597-DFC61EB94F41";
name = "Light Condensed";
paths = (
{
closed = 1;
nodes = (
"1 807 LINE",
"1 772 LINE",
"208 772 LINE",
"208 807 LINE"
);
}
);
width = 209;
}
);
unicode = 012A;
},
{
color = 3;
glyphname = J;
layers = (
{
layerId = "CC11FE7D-5FF0-4B40-9597-DFC61EB94F41";
name = "Light Condensed";
paths = (
{
closed = 1;
nodes = (
"67 -7 OFFCURVE",
"93 -7 CURVE SMOOTH",
"154 -7 OFFCURVE",
"199 38 OFFCURVE",
"199 123 CURVE SMOOTH",
"199 675 LINE",
"157 675 LINE",
"157 130 LINE SMOOTH",
"157 65 OFFCURVE",
"133 30 OFFCURVE",
"93 30 CURVE SMOOTH",
"74 30 OFFCURVE",
"51 37 OFFCURVE",
"25 53 CURVE",
"9 17 LINE",
"38 0 OFFCURVE"
);
}
);
width = 284;
}
);
unicode = 004A;
userData = {
com.schriftgestaltung.Glyphs.ColorIndex = 3;
public.markColor = "0.97,1,0,1";
};
},
{
color = 3;
glyphname = K;
layers = (
{
layerId = "CC11FE7D-5FF0-4B40-9597-DFC61EB94F41";
name = "Light Condensed";
paths = (
{
closed = 1;
nodes = (
"506 26 LINE",
"488 24 OFFCURVE",
"479 33 OFFCURVE",
"466 55 CURVE SMOOTH",
"273 373 LINE",
"269 340 LINE",
"487 675 LINE",
"442 675 LINE",
"243 368 LINE",
"254 374 LINE",
"114 374 LINE",
"127 364 LINE",
"127 675 LINE",
"85 675 LINE",
"85 0 LINE",
"127 0 LINE",
"127 349 LINE",
"114 339 LINE",
"255 339 LINE",
"242 346 LINE",
"433 35 LINE SMOOTH",
"450 7 OFFCURVE",
"466 -7 OFFCURVE",
"491 -7 CURVE SMOOTH",
"497 -7 OFFCURVE",
"504 -6 OFFCURVE",
"509 -5 CURVE"
);
}
);
width = 514;
}
);
unicode = 004B;
userData = {
com.schriftgestaltung.Glyphs.ColorIndex = 3;
public.markColor = "0.97,1,0,1";
};
},
{
color = 3;
glyphname = L;
layers = (
{
anchors = (
{
name = bottom;
position = "{207, 0}";
},
{
name = top;
position = "{132, 645}";
},
{
name = topright;
position = "{393, 645}";
}
);
layerId = "CC11FE7D-5FF0-4B40-9597-DFC61EB94F41";
name = "Light Condensed";
paths = (
{
closed = 1;
nodes = (
"127 25 LINE",
"127 675 LINE",
"85 675 LINE",
"85 0 LINE",
"398 0 LINE",
"398 37 LINE",
"114 37 LINE"
);
}
);
width = 408;
}
);
unicode = 004C;
userData = {
com.schriftgestaltung.Glyphs.ColorIndex = 3;
public.markColor = "0.97,1,0,1";
};
},
{
glyphname = Lslash;
layers = (
{
components = (
{
name = L;
}
);
layerId = "CC11FE7D-5FF0-4B40-9597-DFC61EB94F41";
name = "Light Condensed";
paths = (
{
closed = 1;
nodes = (
"261 410 LINE",
"-18 293 LINE",
"-7 263 LINE",
"273 380 LINE"
);
}
);
width = 413;
}
);
unicode = 0141;
},
{
color = 3;
glyphname = M;
layers = (
{
guideLines = (
{
position = "{359, 211}";
},
{
position = "{375, 421}";
}
);
layerId = "CC11FE7D-5FF0-4B40-9597-DFC61EB94F41";
name = "Light Condensed";
paths = (
{
closed = 1;
nodes = (
"64 0 LINE",
"122 422 LINE SMOOTH",
"130 481 OFFCURVE",
"140 548 OFFCURVE",
"147 605 CURVE",
"143 605 LINE",
"161 548 OFFCURVE",
"178 482 OFFCURVE",
"197 423 CURVE SMOOTH",
"323 24 LINE",
"359 26 LINE",
"494 422 LINE SMOOTH",
"514 480 OFFCURVE",
"532 546 OFFCURVE",
"551 602 CURVE",
"546 602 LINE",
"552 546 OFFCURVE",
"560 481 OFFCURVE",
"567 423 CURVE SMOOTH",
"618 0 LINE",
"663 0 LINE",
"580 675 LINE",
"537 675 LINE",
"381 212 LINE SMOOTH",
"367 169 OFFCURVE",
"355 121 OFFCURVE",
"341 80 CURVE",
"348 80 LINE",
"335 120 OFFCURVE",
"324 169 OFFCURVE",
"311 211 CURVE SMOOTH",
"165 675 LINE",
"121 675 LINE",
"24 0 LINE"
);
}
);
width = 687;
}
);
unicode = 004D;
userData = {
com.schriftgestaltung.Glyphs.ColorIndex = 3;
com.typemytype.robofont.guides = (
{
angle = 0;
isGlobal = 0;
x = 359;
y = 211;
},
{
angle = 0;
isGlobal = 0;
x = 375;
y = 421;
}
);
public.markColor = "0.97,1,0,1";
};
},
{
color = 3;
glyphname = N;
layers = (
{
anchors = (
{
name = bottom;
position = "{306, 0}";
},
{
name = top;
position = "{301, 645}";
}
);
layerId = "CC11FE7D-5FF0-4B40-9597-DFC61EB94F41";
name = "Light Condensed";
paths = (
{
closed = 1;
nodes = (
"526 0 LINE",
"526 675 LINE",
"485 675 LINE",
"485 78 LINE",
"489 78 LINE",
"126 682 LINE",
"85 675 LINE",
"85 0 LINE",
"126 0 LINE",
"126 610 LINE",
"120 610 LINE",
"487 -7 LINE"
);
}
);
width = 611;
}
);
unicode = 004E;
userData = {
com.schriftgestaltung.Glyphs.ColorIndex = 3;
public.markColor = "0.97,1,0,1";
};
},
{
color = 3;
glyphname = O;
layers = (
{
anchors = (
{
name = top;
position = "{295, 635}";
}
);
layerId = "CC11FE7D-5FF0-4B40-9597-DFC61EB94F41";
name = "Light Condensed";
paths = (
{
closed = 1;
nodes = (
"452 -7 OFFCURVE",
"544 144 OFFCURVE",
"544 336 CURVE SMOOTH",
"544 531 OFFCURVE",
"464 682 OFFCURVE",
"295 682 CURVE SMOOTH",
"135 682 OFFCURVE",
"40 529 OFFCURVE",
"40 336 CURVE SMOOTH",
"40 142 OFFCURVE",
"118 -7 OFFCURVE",
"292 -7 CURVE SMOOTH"
);
},
{
closed = 1;
nodes = (
"155 32 OFFCURVE",
"86 161 OFFCURVE",
"86 336 CURVE SMOOTH",
"86 509 OFFCURVE",
"160 643 OFFCURVE",
"294 643 CURVE SMOOTH",
"429 643 OFFCURVE",
"498 511 OFFCURVE",
"498 336 CURVE SMOOTH",
"498 163 OFFCURVE",
"426 32 OFFCURVE",
"292 32 CURVE SMOOTH"
);
}
);
width = 584;
}
);
unicode = 004F;
userData = {
com.schriftgestaltung.Glyphs.ColorIndex = 3;
public.markColor = "0.97,1,0,1";
};
},
{
glyphname = Oslash;
layers = (
{
components = (
{
name = O;
}
);
guideLines = (
{
position = "{11, 330}";
}
);
layerId = "CC11FE7D-5FF0-4B40-9597-DFC61EB94F41";
name = "Light Condensed";
paths = (
{
closed = 1;
nodes = (
"420 743 LINE",
"133 -58 LINE",
"167 -69 LINE",
"453 733 LINE"
);
}
);
width = 584;
}
);
unicode = 00D8;
userData = {
com.typemytype.robofont.guides = (
{
angle = 0;
isGlobal = 0;
x = 11;
y = 330;
}
);
};
},
{
color = 3;
glyphname = OE;
layers = (
{
anchors = (
{
name = top;
position = "{395, 635}";
}
);
components = (
{
name = E;
transform = "{1, 0, 0, 1, 313, 0}";
}
);
layerId = "CC11FE7D-5FF0-4B40-9597-DFC61EB94F41";
name = "Light Condensed";
paths = (
{
closed = 1;
nodes = (
"123 -6 OFFCURVE",
"316 -6 CURVE SMOOTH",
"344 -6 OFFCURVE",
"389 -1 OFFCURVE",
"423 0 CURVE",
"421 43 LINE",
"385 36 OFFCURVE",
"349 33 OFFCURVE",
"319 33 CURVE SMOOTH",
"161 33 OFFCURVE",
"86 133 OFFCURVE",
"86 336 CURVE SMOOTH",
"86 515 OFFCURVE",
"157 640 OFFCURVE",
"316 640 CURVE SMOOTH",
"359 640 OFFCURVE",
"396 635 OFFCURVE",
"421 631 CURVE",
"433 674 LINE",
"398 674 OFFCURVE",
"356 679 OFFCURVE",
"314 679 CURVE SMOOTH",
"126 679 OFFCURVE",
"40 529 OFFCURVE",
"40 336 CURVE SMOOTH",
"40 118 OFFCURVE"
);
}
);
width = 776;
}
);
leftMetricsKey = O;
rightMetricsKey = E;
unicode = 0152;
userData = {
com.schriftgestaltung.Glyphs.ColorIndex = 3;
com.schriftgestaltung.Glyphs.leftMetricsKey = O;
com.schriftgestaltung.Glyphs.rightMetricsKey = E;
public.markColor = "0.97,1,0,1";
};
},
{
color = 3;
glyphname = P;
layers = (
{
layerId = "CC11FE7D-5FF0-4B40-9597-DFC61EB94F41";
name = "Light Condensed";
paths = (
{
closed = 1;
nodes = (
"127 0 LINE",
"127 649 LINE",
"114 637 LINE",
"148 638 OFFCURVE",
"185 640 OFFCURVE",
"222 640 CURVE SMOOTH",
"359 640 OFFCURVE",
"406 586 OFFCURVE",
"406 488 CURVE SMOOTH",
"406 394 OFFCURVE",
"347 332 OFFCURVE",
"210 332 CURVE SMOOTH",
"105 332 LINE",
"105 295 LINE",
"239 295 LINE SMOOTH",
"373 295 OFFCURVE",
"452 381 OFFCURVE",
"452 497 CURVE SMOOTH",
"452 596 OFFCURVE",
"406 677 OFFCURVE",
"229 677 CURVE SMOOTH",
"182 677 OFFCURVE",
"132 677 OFFCURVE",
"85 675 CURVE",
"85 0 LINE"
);
}
);
width = 477;
}
);
unicode = 0050;
userData = {
com.schriftgestaltung.Glyphs.ColorIndex = 3;
public.markColor = "0.97,1,0,1";
};
},
{
color = 3;
glyphname = Thorn;
layers = (
{
layerId = "CC11FE7D-5FF0-4B40-9597-DFC61EB94F41";
name = "Light Condensed";
paths = (
{
closed = 1;
nodes = (
"239 163 LINE SMOOTH",
"373 163 OFFCURVE",
"452 249 OFFCURVE",
"452 365 CURVE SMOOTH",
"452 464 OFFCURVE",
"406 546 OFFCURVE",
"229 545 CURVE SMOOTH",
"104 544 LINE",
"104 507 LINE",
"222 508 LINE SMOOTH",
"359 509 OFFCURVE",
"406 454 OFFCURVE",
"406 356 CURVE SMOOTH",
"406 262 OFFCURVE",
"347 200 OFFCURVE",
"210 200 CURVE SMOOTH",
"105 200 LINE",
"105 163 LINE"
);
},
{
closed = 1;
nodes = (
"127 0 LINE",
"127 675 LINE",
"85 675 LINE",
"85 0 LINE"
);
}
);
width = 477;
}
);
unicode = 00DE;
userData = {
com.schriftgestaltung.Glyphs.ColorIndex = 3;
public.markColor = "0.97,1,0,1";
};
},
{
color = 3;
glyphname = Q;
layers = (
{
guideLines = (
{
angle = 90;
position = "{548, 42}";
}
);
layerId = "CC11FE7D-5FF0-4B40-9597-DFC61EB94F41";
name = "Light Condensed";
paths = (
{
closed = 1;
nodes = (
"452 -7 OFFCURVE",
"544 144 OFFCURVE",
"544 336 CURVE SMOOTH",
"544 531 OFFCURVE",
"463 682 OFFCURVE",
"294 682 CURVE SMOOTH",
"134 682 OFFCURVE",
"40 529 OFFCURVE",
"40 336 CURVE SMOOTH",
"40 142 OFFCURVE",
"118 -7 OFFCURVE",
"292 -7 CURVE SMOOTH"
);
},
{
closed = 1;
nodes = (
"518 -60 LINE",
"435 -90 OFFCURVE",
"335 -90 OFFCURVE",
"355 29 CURVE",
"314 29 LINE",
"294 -110 OFFCURVE",
"408 -136 OFFCURVE",
"528 -94 CURVE"
);
},
{
closed = 1;
nodes = (
"155 32 OFFCURVE",
"86 161 OFFCURVE",
"86 336 CURVE SMOOTH",
"86 509 OFFCURVE",
"160 643 OFFCURVE",
"294 643 CURVE SMOOTH",
"429 643 OFFCURVE",
"498 511 OFFCURVE",
"498 336 CURVE SMOOTH",
"498 163 OFFCURVE",
"426 32 OFFCURVE",
"292 32 CURVE SMOOTH"
);
}
);
width = 584;
}
);
unicode = 0051;
userData = {
com.schriftgestaltung.Glyphs.ColorIndex = 3;
com.typemytype.robofont.guides = (
{
angle = 90;
isGlobal = 0;
x = 548;
y = 42;
}
);
public.markColor = "0.97,1,0,1";
};
},
{
color = 3;
glyphname = R;
layers = (
{
anchors = (
{
name = bottom;
position = "{249, 0}";
},
{
name = top;
position = "{241, 645}";
}
);
layerId = "CC11FE7D-5FF0-4B40-9597-DFC61EB94F41";
name = "Light Condensed";
paths = (
{
closed = 1;
nodes = (
"127 0 LINE",
"127 649 LINE",
"114 637 LINE",
"148 638 OFFCURVE",
"185 640 OFFCURVE",
"222 640 CURVE SMOOTH",
"362 640 OFFCURVE",
"409 593 OFFCURVE",
"409 493 CURVE SMOOTH",
"409 393 OFFCURVE",
"345 342 OFFCURVE",
"220 342 CURVE SMOOTH",
"105 342 LINE",
"105 305 LINE",
"229 305 LINE SMOOTH",
"379 305 OFFCURVE",
"455 384 OFFCURVE",
"455 499 CURVE SMOOTH",
"455 621 OFFCURVE",
"382 677 OFFCURVE",
"229 677 CURVE SMOOTH",
"182 677 OFFCURVE",
"132 677 OFFCURVE",
"85 675 CURVE",
"85 0 LINE"
);
},
{
closed = 1;
nodes = (
"400 35 LINE SMOOTH",
"416 4 OFFCURVE",
"434 -7 OFFCURVE",
"458 -7 CURVE SMOOTH",
"465 -7 OFFCURVE",
"474 -6 OFFCURVE",
"479 -5 CURVE",
"476 26 LINE",
"475 26 OFFCURVE",
"474 26 OFFCURVE",
"472 26 CURVE SMOOTH",
"454 26 OFFCURVE",
"444 34 OFFCURVE",
"434 55 CURVE SMOOTH",
"296 329 LINE",
"255 323 LINE"
);
}
);
width = 497;
}
);
unicode = 0052;
userData = {
com.schriftgestaltung.Glyphs.ColorIndex = 3;
public.markColor = "0.97,1,0,1";
};
},
{
color = 3;
glyphname = S;
layers = (
{
anchors = (
{
name = bottom;
position = "{224, 0}";
},
{
name = top;
position = "{242, 645}";
}
);
guideLines = (
{
angle = 90;
position = "{72, 313}";
}
);
layerId = "CC11FE7D-5FF0-4B40-9597-DFC61EB94F41";
name = "Light Condensed";
paths = (
{
closed = 1;
nodes = (
"108 12 OFFCURVE",
"169 -7 OFFCURVE",
"224 -7 CURVE SMOOTH",
"325 -7 OFFCURVE",
"411 53 OFFCURVE",
"411 169 CURVE SMOOTH",
"411 390 OFFCURVE",
"115 339 OFFCURVE",
"115 513 CURVE SMOOTH",
"115 598 OFFCURVE",
"184 645 OFFCURVE",
"253 645 CURVE SMOOTH",
"303 645 OFFCURVE",
"352 621 OFFCURVE",
"377 570 CURVE",
"413 588 LINE",
"385 652 OFFCURVE",
"322 682 OFFCURVE",
"257 682 CURVE SMOOTH",
"166 682 OFFCURVE",
"71 622 OFFCURVE",
"71 513 CURVE SMOOTH",
"71 301 OFFCURVE",
"367 356 OFFCURVE",
"367 169 CURVE SMOOTH",
"367 79 OFFCURVE",
"306 30 OFFCURVE",
"227 30 CURVE SMOOTH",
"180 30 OFFCURVE",
"128 48 OFFCURVE",
"77 83 CURVE",
"55 49 LINE"
);
}
);
width = 461;
}
);
unicode = 0053;
userData = {
com.schriftgestaltung.Glyphs.ColorIndex = 3;
com.typemytype.robofont.guides = (
{
angle = 90;
isGlobal = 0;
x = 72;
y = 313;
}
);
public.markColor = "0.97,1,0,1";
};
},
{
color = 3;
glyphname = T;
layers = (
{
anchors = (
{
name = bottom;
position = "{204, 0}";
},
{
name = center;
position = "{204, 338}";
},
{
name = top;
position = "{204, 645}";
}
);
layerId = "CC11FE7D-5FF0-4B40-9597-DFC61EB94F41";
name = "Light Condensed";
paths = (
{
closed = 1;
nodes = (
"9 676 LINE",
"9 639 LINE",
"194 639 LINE",
"182 651 LINE",
"182 0 LINE",
"224 0 LINE",
"224 651 LINE",
"213 639 LINE",
"397 639 LINE",
"397 676 LINE"
);
}
);
width = 408;
}
);
unicode = 0054;
userData = {
com.schriftgestaltung.Glyphs.ColorIndex = 3;
public.markColor = "0.97,1,0,1";
};
},
{
color = 3;
glyphname = U;
layers = (
{
anchors = (
{
name = ogonek;
position = "{363, 5}";
},
{
name = top;
position = "{301, 645}";
}
);
layerId = "CC11FE7D-5FF0-4B40-9597-DFC61EB94F41";
name = "Light Condensed";
paths = (
{
closed = 1;
nodes = (
"425 -8 OFFCURVE",
"517 71 OFFCURVE",
"517 235 CURVE SMOOTH",
"517 675 LINE",
"475 675 LINE",
"475 235 LINE SMOOTH",
"475 91 OFFCURVE",
"406 31 OFFCURVE",
"298 31 CURVE SMOOTH",
"208 31 OFFCURVE",
"127 80 OFFCURVE",
"127 249 CURVE SMOOTH",
"127 675 LINE",
"85 675 LINE",
"85 249 LINE SMOOTH",
"85 60 OFFCURVE",
"179 -8 OFFCURVE",
"300 -8 CURVE SMOOTH"
);
}
);
width = 602;
}
);
unicode = 0055;
userData = {
com.schriftgestaltung.Glyphs.ColorIndex = 3;
public.markColor = "0.97,1,0,1";
};
},
{
color = 3;
glyphname = V;
layers = (
{
guideLines = (
{
position = "{261, 201}";
}
);
layerId = "CC11FE7D-5FF0-4B40-9597-DFC61EB94F41";
name = "Light Condensed";
paths = (
{
closed = 1;
nodes = (
"281 0 LINE",
"501 675 LINE",
"458 675 LINE",
"305 199 LINE SMOOTH",
"287 143 OFFCURVE",
"270 86 OFFCURVE",
"254 26 CURVE",
"260 26 LINE",
"245 78 OFFCURVE",
"224 143 OFFCURVE",
"206 201 CURVE SMOOTH",
"59 675 LINE",
"12 675 LINE",
"227 0 LINE"
);
}
);
width = 513;
}
);
unicode = 0056;
userData = {
com.schriftgestaltung.Glyphs.ColorIndex = 3;
com.typemytype.robofont.guides = (
{
angle = 0;
isGlobal = 0;
x = 261;
y = 201;
}
);
public.markColor = "0.97,1,0,1";
};
},
{
color = 3;
glyphname = W;
layers = (
{
guideLines = (
{
position = "{261, 443}";
},
{
position = "{261, 201}";
}
);
layerId = "CC11FE7D-5FF0-4B40-9597-DFC61EB94F41";
name = "Light Condensed";
paths = (
{
closed = 1;
nodes = (
"211 0 LINE",
"338 443 LINE SMOOTH",
"351 488 OFFCURVE",
"367 561 OFFCURVE",
"376 605 CURVE",
"369 605 LINE",
"378 561 OFFCURVE",
"392 488 OFFCURVE",
"404 443 CURVE SMOOTH",
"522 0 LINE",
"567 0 LINE",
"727 675 LINE",
"686 675 LINE",
"574 201 LINE SMOOTH",
"563 156 OFFCURVE",
"550 77 OFFCURVE",
"541 32 CURVE",
"550 32 LINE",
"541 76 OFFCURVE",
"525 156 OFFCURVE",
"513 200 CURVE SMOOTH",
"391 652 LINE",
"356 650 LINE",
"227 201 LINE SMOOTH",
"213 154 OFFCURVE",
"197 75 OFFCURVE",
"187 30 CURVE",
"195 30 LINE",
"187 75 OFFCURVE",
"174 154 OFFCURVE",
"164 199 CURVE SMOOTH",
"59 675 LINE",
"15 675 LINE",
"165 0 LINE"
);
}
);
width = 742;
}
);
unicode = 0057;
userData = {
com.schriftgestaltung.Glyphs.ColorIndex = 3;
com.typemytype.robofont.guides = (
{
angle = 0;
isGlobal = 0;
x = 261;
y = 443;
},
{
angle = 0;
isGlobal = 0;
x = 261;
y = 201;
}
);
public.markColor = "0.97,1,0,1";
};
},
{
color = 3;
glyphname = X;
layers = (
{
layerId = "CC11FE7D-5FF0-4B40-9597-DFC61EB94F41";
name = "Light Condensed";
paths = (
{
closed = 1;
nodes = (
"512 28 LINE",
"495 26 OFFCURVE",
"489 34 OFFCURVE",
"475 55 CURVE SMOOTH",
"269 367 LINE",
"69 675 LINE",
"22 675 LINE",
"243 337 LINE",
"439 35 LINE SMOOTH",
"458 6 OFFCURVE",
"474 -6 OFFCURVE",
"495 -6 CURVE SMOOTH",
"502 -6 OFFCURVE",
"508 -5 OFFCURVE",
"515 -3 CURVE"
);
},
{
closed = 1;
nodes = (
"52 0 LINE",
"263 333 LINE",
"277 340 LINE",
"488 675 LINE",
"443 675 LINE",
"251 368 LINE",
"237 361 LINE",
"7 0 LINE"
);
}
);
width = 519;
}
);
unicode = 0058;
userData = {
com.schriftgestaltung.Glyphs.ColorIndex = 3;
public.markColor = "0.97,1,0,1";
};
},
{
color = 3;
glyphname = Y;
layers = (
{
anchors = (
{
name = top;
position = "{225, 645}";
}
);
layerId = "CC11FE7D-5FF0-4B40-9597-DFC61EB94F41";
name = "Light Condensed";
paths = (
{
closed = 1;
nodes = (
"242 0 LINE",
"242 255 LINE",
"448 675 LINE",
"404 675 LINE",
"285 429 LINE SMOOTH",
"259 376 OFFCURVE",
"240 333 OFFCURVE",
"219 281 CURVE",
"228 281 LINE",
"209 329 OFFCURVE",
"189 376 OFFCURVE",
"163 431 CURVE SMOOTH",
"47 675 LINE",
"1 675 LINE",
"200 256 LINE",
"200 0 LINE"
);
}
);
width = 448;
}
);
unicode = 0059;
userData = {
com.schriftgestaltung.Glyphs.ColorIndex = 3;
public.markColor = "0.97,1,0,1";
};
},
{
color = 3;
glyphname = Z;
layers = (
{
anchors = (
{
name = top;
position = "{240, 645}";
}
);
layerId = "CC11FE7D-5FF0-4B40-9597-DFC61EB94F41";
name = "Light Condensed";
paths = (
{
closed = 1;
nodes = (
"84 40 LINE",
"437 640 LINE",
"437 676 LINE",
"43 676 LINE",
"43 637 LINE",
"390 637 LINE",
"35 37 LINE",
"35 0 LINE",
"433 0 LINE",
"433 40 LINE"
);
}
);
width = 472;
}
);
unicode = 005A;
userData = {
com.schriftgestaltung.Glyphs.ColorIndex = 3;
public.markColor = "0.97,1,0,1";
};
},
{
glyphname = uni0162;
layers = (
{
components = (
{
name = T;
}
);
layerId = "CC11FE7D-5FF0-4B40-9597-DFC61EB94F41";
name = "Light Condensed";
paths = (
{
closed = 1;
nodes = (
"152 -187 OFFCURVE",
"164 -188 OFFCURVE",
"176 -188 CURVE SMOOTH",
"248 -188 OFFCURVE",
"285 -143 OFFCURVE",
"285 -96 CURVE SMOOTH",
"285 -58 OFFCURVE",
"260 -23 OFFCURVE",
"224 0 CURVE",
"182 0 LINE",
"235 -32 OFFCURVE",
"252 -60 OFFCURVE",
"252 -92 CURVE SMOOTH",
"252 -125 OFFCURVE",
"223 -154 OFFCURVE",
"170 -154 CURVE SMOOTH",
"160 -154 OFFCURVE",
"151 -153 OFFCURVE",
"140 -151 CURVE",
"138 -184 LINE"
);
}
);
width = 408;
}
);
unicode = 0162;
},
{
color = 3;
glyphname = a;
layers = (
{
anchors = (
{
name = ogonek;
position = "{410, 10}";
},
{
name = top;
position = "{201, 500}";
}
);
layerId = "CC11FE7D-5FF0-4B40-9597-DFC61EB94F41";
name = "Light Condensed";
paths = (
{
closed = 1;
nodes = (
"303 28 OFFCURVE",
"323 -7 OFFCURVE",
"386 -7 CURVE SMOOTH",
"394 -7 OFFCURVE",
"404 -6 OFFCURVE",
"412 -5 CURVE",
"410 26 LINE",
"404 25 OFFCURVE",
"399 25 OFFCURVE",
"394 25 CURVE SMOOTH",
"353 25 OFFCURVE",
"343 50 OFFCURVE",
"343 103 CURVE SMOOTH",
"343 364 LINE SMOOTH",
"343 462 OFFCURVE",
"278 507 OFFCURVE",
"199 507 CURVE SMOOTH",
"152 507 OFFCURVE",
"95 491 OFFCURVE",
"47 460 CURVE",
"65 428 LINE",
"109 456 OFFCURVE",
"157 472 OFFCURVE",
"198 472 CURVE SMOOTH",
"259 472 OFFCURVE",
"303 438 OFFCURVE",
"303 361 CURVE SMOOTH",
"303 156 LINE SMOOTH",
"303 67 OFFCURVE",
"224 28 OFFCURVE",
"177 28 CURVE SMOOTH",
"108 28 OFFCURVE",
"69 66 OFFCURVE",
"69 141 CURVE SMOOTH",
"69 199 OFFCURVE",
"106 250 OFFCURVE",
"229 250 CURVE SMOOTH",
"262 250 OFFCURVE",
"287 248 OFFCURVE",
"316 243 CURVE",
"316 276 LINE",
"289 281 OFFCURVE",
"264 283 OFFCURVE",
"231 283 CURVE SMOOTH",
"101 283 OFFCURVE",
"26 222 OFFCURVE",
"26 141 CURVE SMOOTH",
"26 45 OFFCURVE",
"83 -7 OFFCURVE",
"170 -7 CURVE SMOOTH",
"225 -7 OFFCURVE",
"290 26 OFFCURVE",
"321 96 CURVE",
"303 101 LINE"
);
}
);
width = 426;
}
);
unicode = 0061;
userData = {
com.schriftgestaltung.Glyphs.ColorIndex = 3;
public.markColor = "0.97,1,0,1";
};
},
{
color = 3;
glyphname = aogonek;
layers = (
{
components = (
{
name = a;
}
);
layerId = "CC11FE7D-5FF0-4B40-9597-DFC61EB94F41";
name = "Light Condensed";
paths = (
{
closed = 1;
nodes = (
"387 -188 OFFCURVE",
"403 -186 OFFCURVE",
"417 -183 CURVE",
"415 -153 LINE",
"404 -156 OFFCURVE",
"392 -157 OFFCURVE",
"383 -157 CURVE SMOOTH",
"334 -157 OFFCURVE",
"310 -129 OFFCURVE",
"310 -98 CURVE SMOOTH",
"310 -65 OFFCURVE",
"338 -28 OFFCURVE",
"412 -5 CURVE",
"379 5 LINE",
"307 -19 OFFCURVE",
"272 -66 OFFCURVE",
"272 -107 CURVE SMOOTH",
"272 -151 OFFCURVE",
"308 -188 OFFCURVE",
"374 -188 CURVE SMOOTH"
);
}
);
width = 426;
}
);
unicode = 0105;
userData = {
com.schriftgestaltung.Glyphs.ColorIndex = 3;
public.markColor = "0.97,1,0,1";
};
},
{
color = 3;
glyphname = ae;
layers = (
{
anchors = (
{
name = top;
position = "{330, 500}";
}
);
layerId = "CC11FE7D-5FF0-4B40-9597-DFC61EB94F41";
name = "Light Condensed";
paths = (
{
closed = 1;
nodes = (
"225 -7 OFFCURVE",
"300 29 OFFCURVE",
"328 110 CURVE",
"327 110 LINE",
"360 35 OFFCURVE",
"423 -7 OFFCURVE",
"505 -7 CURVE SMOOTH",
"549 -7 OFFCURVE",
"597 5 OFFCURVE",
"648 29 CURVE",
"635 60 LINE",
"591 39 OFFCURVE",
"552 29 OFFCURVE",
"512 29 CURVE SMOOTH",
"410 29 OFFCURVE",
"343 106 OFFCURVE",
"343 249 CURVE SMOOTH",
"343 381 OFFCURVE",
"394 472 OFFCURVE",
"487 472 CURVE SMOOTH",
"589 472 OFFCURVE",
"618 374 OFFCURVE",
"617 287 CURVE",
"323 286 LINE",
"323 251 LINE",
"659 251 LINE",
"659 271 LINE SMOOTH",
"659 408 OFFCURVE",
"612 507 OFFCURVE",
"487 507 CURVE SMOOTH",
"409 507 OFFCURVE",
"354 458 OFFCURVE",
"326 383 CURVE",
"341 383 LINE",
"333 467 OFFCURVE",
"272 507 OFFCURVE",
"199 507 CURVE SMOOTH",
"152 507 OFFCURVE",
"95 491 OFFCURVE",
"47 460 CURVE",
"65 428 LINE",
"109 456 OFFCURVE",
"157 472 OFFCURVE",
"198 472 CURVE SMOOTH",
"259 472 OFFCURVE",
"303 438 OFFCURVE",
"303 361 CURVE SMOOTH",
"303 156 LINE SMOOTH",
"303 67 OFFCURVE",
"224 28 OFFCURVE",
"177 28 CURVE SMOOTH",
"108 28 OFFCURVE",
"69 66 OFFCURVE",
"69 141 CURVE SMOOTH",
"69 199 OFFCURVE",
"106 250 OFFCURVE",
"229 250 CURVE SMOOTH",
"262 250 OFFCURVE",
"287 248 OFFCURVE",
"316 243 CURVE",
"316 276 LINE",
"289 281 OFFCURVE",
"264 283 OFFCURVE",
"231 283 CURVE SMOOTH",
"101 283 OFFCURVE",
"26 222 OFFCURVE",
"26 141 CURVE SMOOTH",
"26 45 OFFCURVE",
"83 -7 OFFCURVE",
"170 -7 CURVE SMOOTH"
);
}
);
width = 692;
}
);
leftMetricsKey = a;
rightMetricsKey = e;
unicode = 00E6;
userData = {
com.schriftgestaltung.Glyphs.ColorIndex = 3;
com.schriftgestaltung.Glyphs.leftMetricsKey = a;
com.schriftgestaltung.Glyphs.rightMetricsKey = e;
public.markColor = "0.97,1,0,1";
};
},
{
color = 3;
glyphname = b;
layers = (
{
layerId = "CC11FE7D-5FF0-4B40-9597-DFC61EB94F41";
name = "Light Condensed";
paths = (
{
closed = 1;
nodes = (
"360 -7 OFFCURVE",
"440 111 OFFCURVE",
"440 273 CURVE SMOOTH",
"440 422 OFFCURVE",
"363 507 OFFCURVE",
"267 507 CURVE SMOOTH",
"198 507 OFFCURVE",
"140 465 OFFCURVE",
"106 373 CURVE",
"125 373 LINE",
"125 725 LINE",
"85 725 LINE",
"85 34 LINE",
"120 13 OFFCURVE",
"180 -7 OFFCURVE",
"239 -7 CURVE SMOOTH"
);
},
{
closed = 1;
nodes = (
"202 28 OFFCURVE",
"159 38 OFFCURVE",
"125 56 CURVE",
"125 294 LINE SMOOTH",
"125 414 OFFCURVE",
"192 473 OFFCURVE",
"261 473 CURVE SMOOTH",
"328 473 OFFCURVE",
"397 409 OFFCURVE",
"397 273 CURVE SMOOTH",
"397 127 OFFCURVE",
"336 28 OFFCURVE",
"233 28 CURVE SMOOTH"
);
}
);
width = 478;
}
);
unicode = 0062;
userData = {
com.schriftgestaltung.Glyphs.ColorIndex = 3;
public.markColor = "0.97,1,0,1";
};
},
{
color = 3;
glyphname = c;
layers = (
{
anchors = (
{
name = bottom;
position = "{221, 0}";
},
{
name = top;
position = "{228, 500}";
}
);
layerId = "CC11FE7D-5FF0-4B40-9597-DFC61EB94F41";
name = "Light Condensed";
paths = (
{
closed = 1;
nodes = (
"262 -7 OFFCURVE",
"313 4 OFFCURVE",
"366 34 CURVE",
"352 64 LINE",
"307 39 OFFCURVE",
"265 28 OFFCURVE",
"229 28 CURVE SMOOTH",
"138 28 OFFCURVE",
"83 107 OFFCURVE",
"83 249 CURVE SMOOTH",
"83 384 OFFCURVE",
"133 472 OFFCURVE",
"222 472 CURVE SMOOTH",
"269 472 OFFCURVE",
"317 440 OFFCURVE",
"343 388 CURVE",
"375 409 LINE",
"340 473 OFFCURVE",
"284 507 OFFCURVE",
"225 507 CURVE SMOOTH",
"113 507 OFFCURVE",
"40 408 OFFCURVE",
"40 250 CURVE SMOOTH",
"40 86 OFFCURVE",
"110 -7 OFFCURVE",
"221 -7 CURVE SMOOTH"
);
}
);
width = 380;
}
);
unicode = 0063;
userData = {
com.schriftgestaltung.Glyphs.ColorIndex = 3;
public.markColor = "0.97,1,0,1";
};
},
{
color = 3;
glyphname = d;
layers = (
{
anchors = (
{
name = center;
position = "{239, 250}";
},
{
name = topright;
position = "{458, 500}";
}
);
layerId = "CC11FE7D-5FF0-4B40-9597-DFC61EB94F41";
name = "Light Condensed";
paths = (
{
closed = 1;
nodes = (
"353 725 LINE",
"353 196 LINE SMOOTH",
"353 78 OFFCURVE",
"286 28 OFFCURVE",
"217 28 CURVE SMOOTH",
"150 28 OFFCURVE",
"81 91 OFFCURVE",
"81 227 CURVE SMOOTH",
"81 373 OFFCURVE",
"142 472 OFFCURVE",
"245 472 CURVE SMOOTH",
"276 472 OFFCURVE",
"321 462 OFFCURVE",
"355 444 CURVE",
"385 466 LINE",
"350 487 OFFCURVE",
"298 507 OFFCURVE",
"239 507 CURVE SMOOTH",
"118 507 OFFCURVE",
"38 389 OFFCURVE",
"38 227 CURVE SMOOTH",
"38 78 OFFCURVE",
"115 -7 OFFCURVE",
"211 -7 CURVE SMOOTH",
"283 -7 OFFCURVE",
"345 36 OFFCURVE",
"375 128 CURVE",
"353 128 LINE",
"353 84 LINE SMOOTH",
"353 17 OFFCURVE",
"376 -14 OFFCURVE",
"442 -5 CURVE",
"440 26 LINE",
"402 22 OFFCURVE",
"393 39 OFFCURVE",
"393 89 CURVE SMOOTH",
"393 725 LINE"
);
}
);
width = 478;
}
);
unicode = 0064;
userData = {
com.schriftgestaltung.Glyphs.ColorIndex = 3;
public.markColor = "0.97,1,0,1";
};
},
{
color = 1;
glyphname = eth;
layers = (
{
layerId = "CC11FE7D-5FF0-4B40-9597-DFC61EB94F41";
name = "Light Condensed";
paths = (
{
closed = 1;
nodes = (
"366 -7 OFFCURVE",
"440 91 OFFCURVE",
"440 318 CURVE SMOOTH",
"440 572 OFFCURVE",
"337 728 OFFCURVE",
"159 728 CURVE SMOOTH",
"134 728 OFFCURVE",
"103 724 OFFCURVE",
"78 717 CURVE",
"88 683 LINE",
"109 689 OFFCURVE",
"137 692 OFFCURVE",
"159 692 CURVE SMOOTH",
"286 692 OFFCURVE",
"386 589 OFFCURVE",
"396 371 CURVE",
"402 371 LINE",
"375 442 OFFCURVE",
"304 477 OFFCURVE",
"246 477 CURVE SMOOTH",
"119 477 OFFCURVE",
"40 371 OFFCURVE",
"40 235 CURVE SMOOTH",
"40 93 OFFCURVE",
"111 -7 OFFCURVE",
"239 -7 CURVE SMOOTH"
);
},
{
closed = 1;
nodes = (
"136 30 OFFCURVE",
"84 121 OFFCURVE",
"84 234 CURVE SMOOTH",
"84 345 OFFCURVE",
"140 440 OFFCURVE",
"242 440 CURVE SMOOTH",
"346 440 OFFCURVE",
"396 348 OFFCURVE",
"396 242 CURVE SMOOTH",
"396 125 OFFCURVE",
"343 30 OFFCURVE",
"239 30 CURVE SMOOTH"
);
},
{
closed = 1;
nodes = (
"391 729 LINE",
"372 755 LINE",
"157 604 LINE",
"175 576 LINE"
);
}
);
width = 479;
}
);
unicode = 00F0;
userData = {
com.schriftgestaltung.Glyphs.ColorIndex = 1;
public.markColor = "0.99,0.62,0.11,1";
};
},
{
glyphname = dcroat;
layers = (
{
components = (
{
name = d;
}
);
layerId = "CC11FE7D-5FF0-4B40-9597-DFC61EB94F41";
name = "Light Condensed";
paths = (
{
closed = 1;
nodes = (
"190 618 LINE",
"190 583 LINE",
"465 583 LINE",
"465 618 LINE"
);
}
);
width = 478;
}
);
unicode = 0111;
},
{
color = 3;
glyphname = e;
layers = (
{
anchors = (
{
name = bottom;
position = "{245, 0}";
},
{
name = ogonek;
position = "{380, 5}";
},
{
name = top;
position = "{236, 500}";
}
);
layerId = "CC11FE7D-5FF0-4B40-9597-DFC61EB94F41";
name = "Light Condensed";
paths = (
{
closed = 1;
nodes = (
"290 -7 OFFCURVE",
"338 5 OFFCURVE",
"389 29 CURVE",
"376 60 LINE",
"332 39 OFFCURVE",
"293 29 OFFCURVE",
"253 29 CURVE SMOOTH",
"151 29 OFFCURVE",
"84 106 OFFCURVE",
"84 249 CURVE SMOOTH",
"84 382 OFFCURVE",
"135 472 OFFCURVE",
"228 472 CURVE SMOOTH",
"330 472 OFFCURVE",
"359 374 OFFCURVE",
"358 287 CURVE",
"64 286 LINE",
"64 251 LINE",
"400 251 LINE",
"400 271 LINE SMOOTH",
"400 408 OFFCURVE",
"353 507 OFFCURVE",
"228 507 CURVE SMOOTH",
"111 507 OFFCURVE",
"41 400 OFFCURVE",
"41 250 CURVE SMOOTH",
"41 85 OFFCURVE",
"122 -7 OFFCURVE",
"246 -7 CURVE SMOOTH"
);
}
);
width = 433;
}
);
unicode = 0065;
userData = {
com.schriftgestaltung.Glyphs.ColorIndex = 3;
public.markColor = "0.97,1,0,1";
};
},
{
color = 3;
glyphname = eogonek;
layers = (
{
components = (
{
name = e;
}
);
guideLines = (
{
angle = 90;
position = "{-449, 151}";
},
{
angle = 90;
position = "{399, 151}";
}
);
layerId = "CC11FE7D-5FF0-4B40-9597-DFC61EB94F41";
name = "Light Condensed";
paths = (
{
closed = 1;
nodes = (
"356 -193 OFFCURVE",
"372 -191 OFFCURVE",
"386 -188 CURVE",
"384 -158 LINE",
"373 -161 OFFCURVE",
"361 -162 OFFCURVE",
"352 -162 CURVE SMOOTH",
"306 -162 OFFCURVE",
"283 -136 OFFCURVE",
"283 -102 CURVE SMOOTH",
"283 -59 OFFCURVE",
"321 -2 OFFCURVE",
"389 29 CURVE",
"330 15 LINE",
"273 -16 OFFCURVE",
"245 -66 OFFCURVE",
"245 -109 CURVE SMOOTH",
"245 -155 OFFCURVE",
"277 -193 OFFCURVE",
"343 -193 CURVE SMOOTH"
);
}
);
width = 433;
}
);
unicode = 0119;
userData = {
com.schriftgestaltung.Glyphs.ColorIndex = 3;
com.typemytype.robofont.guides = (
{
angle = 90;
isGlobal = 0;
x = -449;
y = 151;
},
{
angle = 90;
isGlobal = 0;
x = 399;
y = 151;
}
);
public.markColor = "0.97,1,0,1";
};
},
{
color = 3;
glyphname = f;
layers = (
{
layerId = "CC11FE7D-5FF0-4B40-9597-DFC61EB94F41";
name = "Light Condensed";
paths = (
{
closed = 1;
nodes = (
"146 0 LINE",
"146 586 LINE SMOOTH",
"146 659 OFFCURVE",
"173 697 OFFCURVE",
"219 697 CURVE SMOOTH",
"239 697 OFFCURVE",
"263 690 OFFCURVE",
"289 675 CURVE",
"306 704 LINE",
"277 723 OFFCURVE",
"247 732 OFFCURVE",
"219 732 CURVE SMOOTH",
"154 732 OFFCURVE",
"106 685 OFFCURVE",
"106 598 CURVE SMOOTH",
"106 0 LINE"
);
},
{
closed = 1;
nodes = (
"288 465 LINE",
"288 500 LINE",
"30 500 LINE",
"30 465 LINE"
);
}
);
width = 303;
}
);
unicode = 0066;
userData = {
com.schriftgestaltung.Glyphs.ColorIndex = 3;
public.markColor = "0.97,1,0,1";
};
},
{
color = 3;
glyphname = g;
layers = (
{
anchors = (
{
name = top;
position = "{228, 500}";
}
);
layerId = "CC11FE7D-5FF0-4B40-9597-DFC61EB94F41";
name = "Light Condensed";
paths = (
{
closed = 1;
nodes = (
"338 242 OFFCURVE",
"279 197 OFFCURVE",
"222 197 CURVE SMOOTH",
"164 197 OFFCURVE",
"104 243 OFFCURVE",
"104 332 CURVE SMOOTH",
"104 427 OFFCURVE",
"164 473 OFFCURVE",
"221 473 CURVE SMOOTH",
"279 473 OFFCURVE",
"338 427 OFFCURVE",
"338 332 CURVE SMOOTH"
);
},
{
closed = 1;
nodes = (
"376 449 OFFCURVE",
"300 507 OFFCURVE",
"222 507 CURVE SMOOTH",
"145 507 OFFCURVE",
"66 449 OFFCURVE",
"66 332 CURVE SMOOTH",
"66 218 OFFCURVE",
"142 163 OFFCURVE",
"221 163 CURVE SMOOTH",
"298 163 OFFCURVE",
"376 219 OFFCURVE",
"376 332 CURVE SMOOTH"
);
},
{
closed = 1;
nodes = (
"221 500 LINE",
"301 473 LINE",
"421 472 LINE",
"421 507 LINE"
);
},
{
closed = 1;
nodes = (
"82 22 OFFCURVE",
"40 -20 OFFCURVE",
"40 -79 CURVE SMOOTH",
"40 -159 OFFCURVE",
"109 -212 OFFCURVE",
"217 -212 CURVE SMOOTH",
"337 -212 OFFCURVE",
"418 -151 OFFCURVE",
"418 -57 CURVE SMOOTH",
"418 21 OFFCURVE",
"356 71 OFFCURVE",
"252 70 CURVE SMOOTH",
"164 69 LINE SMOOTH",
"133 69 OFFCURVE",
"114 91 OFFCURVE",
"114 115 CURVE SMOOTH",
"114 139 OFFCURVE",
"133 165 OFFCURVE",
"174 174 CURVE",
"159 195 LINE",
"103 182 OFFCURVE",
"77 144 OFFCURVE",
"77 109 CURVE SMOOTH",
"77 70 OFFCURVE",
"111 33 OFFCURVE",
"173 35 CURVE SMOOTH",
"252 37 LINE SMOOTH",
"330 39 OFFCURVE",
"378 -1 OFFCURVE",
"378 -57 CURVE SMOOTH",
"378 -133 OFFCURVE",
"316 -177 OFFCURVE",
"217 -177 CURVE SMOOTH",
"137 -177 OFFCURVE",
"80 -140 OFFCURVE",
"80 -79 CURVE SMOOTH",
"80 -32 OFFCURVE",
"112 8 OFFCURVE",
"170 39 CURVE",
"152 60 LINE"
);
}
);
width = 451;
}
);
unicode = 0067;
userData = {
com.schriftgestaltung.Glyphs.ColorIndex = 3;
public.markColor = "0.97,1,0,1";
};
},
{
color = 3;
glyphname = h;
layers = (
{
layerId = "CC11FE7D-5FF0-4B40-9597-DFC61EB94F41";
name = "Light Condensed";
paths = (
{
closed = 1;
nodes = (
"455 26 LINE",
"417 22 OFFCURVE",
"408 39 OFFCURVE",
"408 89 CURVE SMOOTH",
"408 344 LINE SMOOTH",
"408 448 OFFCURVE",
"355 507 OFFCURVE",
"263 507 CURVE SMOOTH",
"194 507 OFFCURVE",
"135 463 OFFCURVE",
"110 372 CURVE",
"124 372 LINE",
"125 725 LINE",
"85 725 LINE",
"85 0 LINE",
"125 0 LINE",
"125 294 LINE SMOOTH",
"125 412 OFFCURVE",
"190 474 OFFCURVE",
"261 474 CURVE SMOOTH",
"326 474 OFFCURVE",
"368 429 OFFCURVE",
"368 341 CURVE SMOOTH",
"368 83 LINE SMOOTH",
"368 17 OFFCURVE",
"391 -14 OFFCURVE",
"457 -5 CURVE"
);
}
);
width = 497;
}
);
unicode = 0068;
userData = {
com.schriftgestaltung.Glyphs.ColorIndex = 3;
public.markColor = "0.97,1,0,1";
};
},
{
color = 3;
glyphname = i;
layers = (
{
layerId = "CC11FE7D-5FF0-4B40-9597-DFC61EB94F41";
name = "Light Condensed";
paths = (
{
closed = 1;
nodes = (
"124 0 LINE",
"124 500 LINE",
"85 500 LINE",
"85 0 LINE"
);
},
{
closed = 1;
nodes = (
"126 607 OFFCURVE",
"138 624 OFFCURVE",
"138 645 CURVE SMOOTH",
"138 665 OFFCURVE",
"126 682 OFFCURVE",
"105 682 CURVE SMOOTH",
"84 682 OFFCURVE",
"72 665 OFFCURVE",
"72 645 CURVE SMOOTH",
"72 624 OFFCURVE",
"84 607 OFFCURVE",
"105 607 CURVE SMOOTH"
);
}
);
width = 210;
}
);
unicode = 0069;
userData = {
com.schriftgestaltung.Glyphs.ColorIndex = 3;
public.markColor = "0.97,1,0,1";
};
},
{
glyphname = dotlessi;
layers = (
{
anchors = (
{
name = ogonek;
position = "{124, 5}";
},
{
name = top;
position = "{105, 500}";
}
);
layerId = "CC11FE7D-5FF0-4B40-9597-DFC61EB94F41";
name = "Light Condensed";
paths = (
{
closed = 1;
nodes = (
"124 0 LINE",
"124 500 LINE",
"85 500 LINE",
"85 0 LINE"
);
}
);
width = 210;
}
);
unicode = 0131;
},
{
glyphname = icircumflex;
layers = (
{
components = (
{
name = dotlessi;
}
);
layerId = "CC11FE7D-5FF0-4B40-9597-DFC61EB94F41";
name = "Light Condensed";
paths = (
{
closed = 1;
nodes = (
"110 709 LINE",
"-6 598 LINE",
"18 576 LINE",
"111 658 LINE",
"103 658 LINE",
"196 575 LINE",
"220 601 LINE"
);
}
);
width = 210;
}
);
unicode = 00EE;
},
{
glyphname = idieresis;
layers = (
{
components = (
{
name = dotlessi;
}
);
layerId = "CC11FE7D-5FF0-4B40-9597-DFC61EB94F41";
name = "Light Condensed";
paths = (
{
closed = 1;
nodes = (
"54 607 OFFCURVE",
"66 624 OFFCURVE",
"66 644 CURVE SMOOTH",
"66 664 OFFCURVE",
"54 681 OFFCURVE",
"34 681 CURVE SMOOTH",
"13 681 OFFCURVE",
"1 664 OFFCURVE",
"1 644 CURVE SMOOTH",
"1 624 OFFCURVE",
"13 607 OFFCURVE",
"34 607 CURVE SMOOTH"
);
},
{
closed = 1;
nodes = (
"197 607 OFFCURVE",
"209 624 OFFCURVE",
"209 644 CURVE SMOOTH",
"209 664 OFFCURVE",
"197 681 OFFCURVE",
"176 681 CURVE SMOOTH",
"156 681 OFFCURVE",
"144 664 OFFCURVE",
"144 644 CURVE SMOOTH",
"144 624 OFFCURVE",
"156 607 OFFCURVE",
"176 607 CURVE SMOOTH"
);
}
);
width = 210;
}
);
unicode = 00EF;
},
{
glyphname = imacron;
layers = (
{
components = (
{
name = dotlessi;
}
);
layerId = "CC11FE7D-5FF0-4B40-9597-DFC61EB94F41";
name = "Light Condensed";
paths = (
{
closed = 1;
nodes = (
"1 662 LINE",
"1 627 LINE",
"209 627 LINE",
"209 662 LINE"
);
}
);
width = 210;
}
);
unicode = 012B;
},
{
color = 3;
glyphname = j;
layers = (
{
layerId = "CC11FE7D-5FF0-4B40-9597-DFC61EB94F41";
name = "Light Condensed";
paths = (
{
closed = 1;
nodes = (
"77 -212 OFFCURVE",
"123 -159 OFFCURVE",
"123 -70 CURVE SMOOTH",
"123 500 LINE",
"83 500 LINE",
"83 -72 LINE SMOOTH",
"83 -141 OFFCURVE",
"54 -177 OFFCURVE",
"10 -177 CURVE SMOOTH",
"-11 -177 OFFCURVE",
"-34 -169 OFFCURVE",
"-59 -154 CURVE",
"-77 -185 LINE",
"-45 -203 OFFCURVE",
"-15 -212 OFFCURVE",
"12 -212 CURVE SMOOTH"
);
},
{
closed = 1;
nodes = (
"125 609 OFFCURVE",
"137 626 OFFCURVE",
"137 647 CURVE SMOOTH",
"137 667 OFFCURVE",
"125 684 OFFCURVE",
"104 684 CURVE SMOOTH",
"83 684 OFFCURVE",
"71 667 OFFCURVE",
"71 647 CURVE SMOOTH",
"71 626 OFFCURVE",
"83 609 OFFCURVE",
"104 609 CURVE SMOOTH"
);
}
);
width = 209;
}
);
unicode = 006A;
userData = {
com.schriftgestaltung.Glyphs.ColorIndex = 3;
public.markColor = "0.97,1,0,1";
};
},
{
color = 3;
glyphname = k;
layers = (
{
layerId = "CC11FE7D-5FF0-4B40-9597-DFC61EB94F41";
name = "Light Condensed";
paths = (
{
closed = 1;
nodes = (
"125 725 LINE",
"85 725 LINE",
"85 0 LINE",
"125 0 LINE"
);
},
{
closed = 1;
nodes = (
"365 5 OFFCURVE",
"380 -7 OFFCURVE",
"403 -7 CURVE SMOOTH",
"410 -7 OFFCURVE",
"416 -6 OFFCURVE",
"421 -5 CURVE",
"418 25 LINE",
"415 25 OFFCURVE",
"412 25 OFFCURVE",
"409 25 CURVE SMOOTH",
"396 25 OFFCURVE",
"392 32 OFFCURVE",
"379 55 CURVE SMOOTH",
"242 296 LINE",
"242 277 LINE",
"400 500 LINE",
"355 500 LINE",
"223 310 LINE",
"103 310 LINE",
"103 277 LINE",
"210 277 LINE",
"347 36 LINE SMOOTH"
);
}
);
width = 431;
}
);
unicode = 006B;
userData = {
com.schriftgestaltung.Glyphs.ColorIndex = 3;
public.markColor = "0.97,1,0,1";
};
},
{
color = 3;
glyphname = l;
layers = (
{
anchors = (
{
name = bottom;
position = "{115, 0}";
},
{
name = top;
position = "{108, 685}";
},
{
name = topright;
position = "{210, 500}";
}
);
layerId = "CC11FE7D-5FF0-4B40-9597-DFC61EB94F41";
name = "Light Condensed";
paths = (
{
closed = 1;
nodes = (
"85 25 OFFCURVE",
"118 -6 OFFCURVE",
"163 -6 CURVE SMOOTH",
"180 -6 OFFCURVE",
"197 -2 OFFCURVE",
"216 6 CURVE",
"205 36 LINE",
"191 30 OFFCURVE",
"179 27 OFFCURVE",
"168 27 CURVE SMOOTH",
"140 27 OFFCURVE",
"125 48 OFFCURVE",
"125 87 CURVE SMOOTH",
"125 725 LINE",
"85 725 LINE",
"85 82 LINE SMOOTH"
);
}
);
width = 230;
}
);
unicode = 006C;
userData = {
com.schriftgestaltung.Glyphs.ColorIndex = 3;
public.markColor = "0.97,1,0,1";
};
},
{
glyphname = lslash;
layers = (
{
components = (
{
name = l;
}
);
layerId = "CC11FE7D-5FF0-4B40-9597-DFC61EB94F41";
name = "Light Condensed";
paths = (
{
closed = 1;
nodes = (
"-6 263 LINE",
"232 363 LINE",
"220 393 LINE",
"-18 293 LINE"
);
}
);
width = 230;
}
);
unicode = 0142;
},
{
color = 3;
glyphname = m;
layers = (
{
layerId = "CC11FE7D-5FF0-4B40-9597-DFC61EB94F41";
name = "Light Condensed";
paths = (
{
closed = 1;
nodes = (
"677 344 LINE SMOOTH",
"677 448 OFFCURVE",
"625 507 OFFCURVE",
"537 507 CURVE SMOOTH",
"471 507 OFFCURVE",
"413 463 OFFCURVE",
"388 365 CURVE",
"403 365 LINE",
"394 450 OFFCURVE",
"343 507 OFFCURVE",
"261 507 CURVE SMOOTH",
"192 507 OFFCURVE",
"134 463 OFFCURVE",
"109 372 CURVE",
"123 372 LINE",
"122 500 LINE",
"85 500 LINE",
"85 0 LINE",
"125 0 LINE",
"125 291 LINE SMOOTH",
"125 410 OFFCURVE",
"190 474 OFFCURVE",
"259 474 CURVE SMOOTH",
"323 474 OFFCURVE",
"365 427 OFFCURVE",
"365 338 CURVE SMOOTH",
"365 0 LINE",
"405 0 LINE",
"405 291 LINE SMOOTH",
"405 410 OFFCURVE",
"468 474 OFFCURVE",
"535 474 CURVE SMOOTH",
"595 474 OFFCURVE",
"637 427 OFFCURVE",
"637 338 CURVE SMOOTH",
"637 83 LINE SMOOTH",
"637 17 OFFCURVE",
"660 -14 OFFCURVE",
"726 -5 CURVE",
"724 26 LINE",
"686 22 OFFCURVE",
"677 39 OFFCURVE",
"677 89 CURVE SMOOTH"
);
}
);
width = 768;
}
);
unicode = 006D;
userData = {
com.schriftgestaltung.Glyphs.ColorIndex = 3;
public.markColor = "0.97,1,0,1";
};
},
{
color = 3;
glyphname = n;
layers = (
{
anchors = (
{
name = bottom;
position = "{249, 0}";
},
{
name = top;
position = "{249, 500}";
}
);
layerId = "CC11FE7D-5FF0-4B40-9597-DFC61EB94F41";
name = "Light Condensed";
paths = (
{
closed = 1;
nodes = (
"455 26 LINE",
"417 22 OFFCURVE",
"408 39 OFFCURVE",
"408 89 CURVE SMOOTH",
"408 344 LINE SMOOTH",
"408 448 OFFCURVE",
"355 507 OFFCURVE",
"263 507 CURVE SMOOTH",
"193 507 OFFCURVE",
"135 465 OFFCURVE",
"110 372 CURVE",
"123 372 LINE",
"122 500 LINE",
"85 500 LINE",
"85 0 LINE",
"125 0 LINE",
"125 291 LINE SMOOTH",
"125 410 OFFCURVE",
"190 474 OFFCURVE",
"261 474 CURVE SMOOTH",
"326 474 OFFCURVE",
"368 427 OFFCURVE",
"368 338 CURVE SMOOTH",
"368 83 LINE SMOOTH",
"368 24 OFFCURVE",
"386 -7 OFFCURVE",
"436 -7 CURVE SMOOTH",
"443 -7 OFFCURVE",
"450 -6 OFFCURVE",
"457 -5 CURVE"
);
}
);
width = 497;
}
);
unicode = 006E;
userData = {
com.schriftgestaltung.Glyphs.ColorIndex = 3;
public.markColor = "0.97,1,0,1";
};
},
{
color = 3;
glyphname = o;
layers = (
{
anchors = (
{
name = top;
position = "{242, 500}";
}
);
layerId = "CC11FE7D-5FF0-4B40-9597-DFC61EB94F41";
name = "Light Condensed";
paths = (
{
closed = 1;
nodes = (
"396 123 OFFCURVE",
"343 28 OFFCURVE",
"239 28 CURVE SMOOTH",
"136 28 OFFCURVE",
"83 121 OFFCURVE",
"83 249 CURVE SMOOTH",
"83 375 OFFCURVE",
"140 472 OFFCURVE",
"242 472 CURVE SMOOTH",
"344 472 OFFCURVE",
"396 377 OFFCURVE",
"396 249 CURVE SMOOTH"
);
},
{
closed = 1;
nodes = (
"439 397 OFFCURVE",
"376 507 OFFCURVE",
"243 507 CURVE SMOOTH",
"116 507 OFFCURVE",
"40 396 OFFCURVE",
"40 249 CURVE SMOOTH",
"40 100 OFFCURVE",
"102 -7 OFFCURVE",
"238 -7 CURVE SMOOTH",
"367 -7 OFFCURVE",
"439 102 OFFCURVE",
"439 249 CURVE SMOOTH"
);
}
);
width = 479;
}
);
unicode = 006F;
userData = {
com.schriftgestaltung.Glyphs.ColorIndex = 3;
public.markColor = "0.97,1,0,1";
};
},
{
glyphname = oslash;
layers = (
{
components = (
{
name = o;
}
);
guideLines = (
{
angle = 90;
position = "{40, 325}";
}
);
layerId = "CC11FE7D-5FF0-4B40-9597-DFC61EB94F41";
name = "Light Condensed";
paths = (
{
closed = 1;
nodes = (
"339 583 LINE",
"110 -58 LINE",
"144 -69 LINE",
"372 572 LINE"
);
}
);
width = 479;
}
);
unicode = 00F8;
userData = {
com.typemytype.robofont.guides = (
{
angle = 90;
isGlobal = 0;
x = 40;
y = 325;
}
);
};
},
{
color = 3;
glyphname = oe;
layers = (
{
anchors = (
{
name = top;
position = "{410, 500}";
}
);
layerId = "CC11FE7D-5FF0-4B40-9597-DFC61EB94F41";
name = "Light Condensed";
paths = (
{
closed = 1;
nodes = (
"334 -7 OFFCURVE",
"395 53 OFFCURVE",
"421 144 CURVE",
"412 144 LINE",
"439 46 OFFCURVE",
"507 -7 OFFCURVE",
"601 -7 CURVE SMOOTH",
"645 -7 OFFCURVE",
"693 5 OFFCURVE",
"744 29 CURVE",
"731 60 LINE",
"687 39 OFFCURVE",
"648 29 OFFCURVE",
"608 29 CURVE SMOOTH",
"506 29 OFFCURVE",
"439 106 OFFCURVE",
"439 249 CURVE SMOOTH",
"439 382 OFFCURVE",
"490 472 OFFCURVE",
"583 472 CURVE SMOOTH",
"685 472 OFFCURVE",
"714 374 OFFCURVE",
"713 287 CURVE",
"419 286 LINE",
"419 251 LINE",
"755 251 LINE",
"755 271 LINE SMOOTH",
"755 408 OFFCURVE",
"708 507 OFFCURVE",
"583 507 CURVE SMOOTH",
"495 507 OFFCURVE",
"436 448 OFFCURVE",
"412 354 CURVE",
"423 354 LINE",
"400 446 OFFCURVE",
"342 507 OFFCURVE",
"243 507 CURVE SMOOTH",
"116 507 OFFCURVE",
"40 396 OFFCURVE",
"40 249 CURVE SMOOTH",
"40 100 OFFCURVE",
"102 -7 OFFCURVE",
"238 -7 CURVE SMOOTH"
);
},
{
closed = 1;
nodes = (
"136 28 OFFCURVE",
"83 121 OFFCURVE",
"83 249 CURVE SMOOTH",
"83 375 OFFCURVE",
"140 472 OFFCURVE",
"242 472 CURVE SMOOTH",
"344 472 OFFCURVE",
"396 377 OFFCURVE",
"396 249 CURVE SMOOTH",
"396 123 OFFCURVE",
"343 28 OFFCURVE",
"239 28 CURVE SMOOTH"
);
}
);
width = 788;
}
);
leftMetricsKey = o;
rightMetricsKey = e;
unicode = 0153;
userData = {
com.schriftgestaltung.Glyphs.ColorIndex = 3;
com.schriftgestaltung.Glyphs.leftMetricsKey = o;
com.schriftgestaltung.Glyphs.rightMetricsKey = e;
public.markColor = "0.97,1,0,1";
};
},
{
color = 3;
glyphname = p;
layers = (
{
layerId = "CC11FE7D-5FF0-4B40-9597-DFC61EB94F41";
name = "Light Condensed";
paths = (
{
closed = 1;
nodes = (
"125 -205 LINE",
"125 294 LINE SMOOTH",
"125 409 OFFCURVE",
"192 472 OFFCURVE",
"261 472 CURVE SMOOTH",
"328 472 OFFCURVE",
"397 408 OFFCURVE",
"397 273 CURVE SMOOTH",
"397 128 OFFCURVE",
"336 28 OFFCURVE",
"233 28 CURVE SMOOTH",
"202 28 OFFCURVE",
"157 40 OFFCURVE",
"123 58 CURVE",
"85 34 LINE",
"120 13 OFFCURVE",
"180 -7 OFFCURVE",
"237 -7 CURVE SMOOTH",
"360 -7 OFFCURVE",
"440 111 OFFCURVE",
"440 273 CURVE SMOOTH",
"440 422 OFFCURVE",
"363 507 OFFCURVE",
"267 507 CURVE SMOOTH",
"194 507 OFFCURVE",
"138 461 OFFCURVE",
"105 369 CURVE",
"125 370 LINE",
"124 500 LINE",
"85 500 LINE",
"85 -205 LINE"
);
}
);
width = 478;
}
);
unicode = 0070;
userData = {
com.schriftgestaltung.Glyphs.ColorIndex = 3;
public.markColor = "0.97,1,0,1";
};
},
{
glyphname = thorn;
layers = (
{
layerId = "CC11FE7D-5FF0-4B40-9597-DFC61EB94F41";
name = "Light Condensed";
paths = (
{
closed = 1;
nodes = (
"125 -205 LINE",
"125 294 LINE SMOOTH",
"125 409 OFFCURVE",
"192 472 OFFCURVE",
"261 472 CURVE SMOOTH",
"328 472 OFFCURVE",
"397 408 OFFCURVE",
"397 273 CURVE SMOOTH",
"397 128 OFFCURVE",
"336 28 OFFCURVE",
"233 28 CURVE SMOOTH",
"202 28 OFFCURVE",
"157 40 OFFCURVE",
"123 58 CURVE",
"85 34 LINE",
"120 13 OFFCURVE",
"180 -7 OFFCURVE",
"237 -7 CURVE SMOOTH",
"360 -7 OFFCURVE",
"440 111 OFFCURVE",
"440 273 CURVE SMOOTH",
"440 422 OFFCURVE",
"363 507 OFFCURVE",
"267 507 CURVE SMOOTH",
"194 507 OFFCURVE",
"138 461 OFFCURVE",
"105 369 CURVE",
"125 370 LINE",
"125 725 LINE",
"85 725 LINE",
"85 -205 LINE"
);
}
);
width = 478;
}
);
leftMetricsKey = p;
rightMetricsKey = p;
unicode = 00FE;
userData = {
com.schriftgestaltung.Glyphs.leftMetricsKey = p;
com.schriftgestaltung.Glyphs.rightMetricsKey = p;
};
},
{
color = 3;
glyphname = q;
layers = (
{
layerId = "CC11FE7D-5FF0-4B40-9597-DFC61EB94F41";
name = "Light Condensed";
paths = (
{
closed = 1;
nodes = (
"118 507 OFFCURVE",
"38 389 OFFCURVE",
"38 227 CURVE SMOOTH",
"38 78 OFFCURVE",
"115 -7 OFFCURVE",
"211 -7 CURVE SMOOTH",
"281 -7 OFFCURVE",
"341 39 OFFCURVE",
"372 131 CURVE",
"353 130 LINE",
"353 -225 LINE",
"393 -225 LINE",
"393 466 LINE",
"358 487 OFFCURVE",
"298 507 OFFCURVE",
"239 507 CURVE SMOOTH"
);
},
{
closed = 1;
nodes = (
"276 472 OFFCURVE",
"319 462 OFFCURVE",
"353 444 CURVE",
"353 208 LINE SMOOTH",
"353 91 OFFCURVE",
"286 28 OFFCURVE",
"217 28 CURVE SMOOTH",
"150 28 OFFCURVE",
"81 90 OFFCURVE",
"81 227 CURVE SMOOTH",
"81 374 OFFCURVE",
"142 472 OFFCURVE",
"245 472 CURVE SMOOTH"
);
}
);
width = 478;
}
);
unicode = 0071;
userData = {
com.schriftgestaltung.Glyphs.ColorIndex = 3;
public.markColor = "0.97,1,0,1";
};
},
{
color = 3;
glyphname = r;
layers = (
{
anchors = (
{
name = bottom;
position = "{155, 0}";
},
{
name = top;
position = "{151, 500}";
}
);
layerId = "CC11FE7D-5FF0-4B40-9597-DFC61EB94F41";
name = "Light Condensed";
paths = (
{
closed = 1;
nodes = (
"125 0 LINE",
"125 299 LINE SMOOTH",
"125 396 OFFCURVE",
"173 471 OFFCURVE",
"245 471 CURVE SMOOTH",
"255 471 OFFCURVE",
"267 469 OFFCURVE",
"279 466 CURVE",
"284 501 LINE",
"272 505 OFFCURVE",
"260 507 OFFCURVE",
"249 507 CURVE SMOOTH",
"185 507 OFFCURVE",
"127 455 OFFCURVE",
"110 372 CURVE",
"123 372 LINE",
"122 500 LINE",
"85 500 LINE",
"85 0 LINE"
);
}
);
width = 287;
}
);
unicode = 0072;
userData = {
com.schriftgestaltung.Glyphs.ColorIndex = 3;
public.markColor = "0.97,1,0,1";
};
},
{
color = 3;
glyphname = s;
layers = (
{
anchors = (
{
name = bottom;
position = "{190, 0}";
},
{
name = top;
position = "{189, 500}";
}
);
guideLines = (
{
angle = 90;
position = "{66, 184}";
}
);
layerId = "CC11FE7D-5FF0-4B40-9597-DFC61EB94F41";
name = "Light Condensed";
paths = (
{
closed = 1;
nodes = (
"94 10 OFFCURVE",
"146 -7 OFFCURVE",
"195 -7 CURVE SMOOTH",
"268 -7 OFFCURVE",
"339 40 OFFCURVE",
"339 126 CURVE SMOOTH",
"339 284 OFFCURVE",
"106 258 OFFCURVE",
"106 385 CURVE SMOOTH",
"106 442 OFFCURVE",
"154 472 OFFCURVE",
"203 472 CURVE SMOOTH",
"243 472 OFFCURVE",
"286 454 OFFCURVE",
"308 415 CURVE",
"342 433 LINE",
"314 483 OFFCURVE",
"259 507 OFFCURVE",
"206 507 CURVE SMOOTH",
"136 507 OFFCURVE",
"66 464 OFFCURVE",
"66 385 CURVE SMOOTH",
"66 229 OFFCURVE",
"299 258 OFFCURVE",
"299 126 CURVE SMOOTH",
"299 65 OFFCURVE",
"252 28 OFFCURVE",
"197 28 CURVE SMOOTH",
"157 28 OFFCURVE",
"111 44 OFFCURVE",
"69 73 CURVE",
"51 41 LINE"
);
}
);
width = 387;
}
);
unicode = 0073;
userData = {
com.schriftgestaltung.Glyphs.ColorIndex = 3;
com.typemytype.robofont.guides = (
{
angle = 90;
isGlobal = 0;
x = 66;
y = 184;
}
);
public.markColor = "0.97,1,0,1";
};
},
{
color = 1;
glyphname = germandbls;
layers = (
{
guideLines = (
{
position = "{120, 732}";
}
);
layerId = "CC11FE7D-5FF0-4B40-9597-DFC61EB94F41";
name = "Light Condensed";
paths = (
{
closed = 1;
nodes = (
"434 693 OFFCURVE",
"354 732 OFFCURVE",
"273 732 CURVE SMOOTH",
"180 732 OFFCURVE",
"106 680 OFFCURVE",
"106 563 CURVE SMOOTH",
"106 0 LINE",
"146 0 LINE",
"146 559 LINE SMOOTH",
"146 658 OFFCURVE",
"199 700 OFFCURVE",
"272 700 CURVE SMOOTH",
"333 700 OFFCURVE",
"393 671 OFFCURVE",
"393 613 CURVE SMOOTH",
"393 496 OFFCURVE",
"249 504 OFFCURVE",
"249 395 CURVE SMOOTH",
"249 265 OFFCURVE",
"449 264 OFFCURVE",
"449 136 CURVE SMOOTH",
"449 65 OFFCURVE",
"402 28 OFFCURVE",
"357 28 CURVE SMOOTH",
"332 28 OFFCURVE",
"295 39 OFFCURVE",
"259 60 CURVE",
"242 27 LINE",
"280 5 OFFCURVE",
"322 -7 OFFCURVE",
"355 -7 CURVE SMOOTH",
"418 -7 OFFCURVE",
"489 40 OFFCURVE",
"489 136 CURVE SMOOTH",
"489 290 OFFCURVE",
"289 294 OFFCURVE",
"289 395 CURVE SMOOTH",
"289 482 OFFCURVE",
"434 488 OFFCURVE",
"434 615 CURVE SMOOTH"
);
},
{
closed = 1;
nodes = (
"130 465 LINE",
"130 500 LINE",
"30 500 LINE",
"30 465 LINE"
);
}
);
width = 534;
}
);
leftMetricsKey = f;
rightMetricsKey = s;
unicode = 00DF;
userData = {
com.schriftgestaltung.Glyphs.ColorIndex = 1;
com.schriftgestaltung.Glyphs.leftMetricsKey = f;
com.schriftgestaltung.Glyphs.rightMetricsKey = s;
com.typemytype.robofont.guides = (
{
angle = 0;
isGlobal = 0;
x = 120;
y = 732;
}
);
public.markColor = "0.99,0.62,0.11,1";
};
},
{
color = 3;
glyphname = t;
layers = (
{
guideLines = (
{
angle = 90;
position = "{278, 376}";
}
);
layerId = "CC11FE7D-5FF0-4B40-9597-DFC61EB94F41";
name = "Light Condensed";
paths = (
{
closed = 1;
nodes = (
"233 -7 OFFCURVE",
"257 0 OFFCURVE",
"285 16 CURVE",
"272 44 LINE",
"251 33 OFFCURVE",
"235 28 OFFCURVE",
"217 28 CURVE SMOOTH",
"173 28 OFFCURVE",
"146 62 OFFCURVE",
"146 131 CURVE SMOOTH",
"146 635 LINE",
"106 635 LINE",
"106 119 LINE SMOOTH",
"106 37 OFFCURVE",
"149 -7 OFFCURVE",
"209 -7 CURVE SMOOTH"
);
},
{
closed = 1;
nodes = (
"273 465 LINE",
"273 500 LINE",
"20 500 LINE",
"20 465 LINE"
);
}
);
width = 300;
}
);
unicode = 0074;
userData = {
com.schriftgestaltung.Glyphs.ColorIndex = 3;
com.typemytype.robofont.guides = (
{
angle = 90;
isGlobal = 0;
x = 278;
y = 376;
}
);
public.markColor = "0.97,1,0,1";
};
},
{
color = 3;
glyphname = u;
layers = (
{
anchors = (
{
name = ogonek;
position = "{481, 5}";
},
{
name = top;
position = "{253, 500}";
}
);
layerId = "CC11FE7D-5FF0-4B40-9597-DFC61EB94F41";
name = "Light Condensed";
paths = (
{
closed = 1;
nodes = (
"373 27 OFFCURVE",
"393 -7 OFFCURVE",
"456 -7 CURVE SMOOTH",
"464 -7 OFFCURVE",
"472 -6 OFFCURVE",
"482 -5 CURVE",
"480 26 LINE",
"474 25 OFFCURVE",
"469 25 OFFCURVE",
"464 25 CURVE SMOOTH",
"423 25 OFFCURVE",
"413 50 OFFCURVE",
"413 103 CURVE",
"413 500 LINE",
"373 500 LINE",
"373 206 LINE SMOOTH",
"373 89 OFFCURVE",
"307 25 OFFCURVE",
"235 25 CURVE SMOOTH",
"169 25 OFFCURVE",
"125 72 OFFCURVE",
"125 159 CURVE SMOOTH",
"125 500 LINE",
"85 500 LINE",
"85 156 LINE SMOOTH",
"85 52 OFFCURVE",
"138 -7 OFFCURVE",
"233 -7 CURVE SMOOTH",
"298 -7 OFFCURVE",
"354 31 OFFCURVE",
"382 107 CURVE",
"373 107 LINE"
);
}
);
width = 502;
}
);
unicode = 0075;
userData = {
com.schriftgestaltung.Glyphs.ColorIndex = 3;
public.markColor = "0.97,1,0,1";
};
},
{
color = 3;
glyphname = uni0163;
layers = (
{
components = (
{
name = t;
}
);
layerId = "CC11FE7D-5FF0-4B40-9597-DFC61EB94F41";
name = "Light Condensed";
paths = (
{
closed = 1;
nodes = (
"130 -187 OFFCURVE",
"142 -188 OFFCURVE",
"154 -188 CURVE SMOOTH",
"226 -188 OFFCURVE",
"264 -145 OFFCURVE",
"264 -98 CURVE SMOOTH",
"264 -60 OFFCURVE",
"240 -19 OFFCURVE",
"189 5 CURVE",
"160 5 LINE",
"207 -23 OFFCURVE",
"230 -60 OFFCURVE",
"230 -92 CURVE SMOOTH",
"230 -127 OFFCURVE",
"203 -154 OFFCURVE",
"148 -154 CURVE SMOOTH",
"138 -154 OFFCURVE",
"129 -153 OFFCURVE",
"118 -151 CURVE",
"116 -184 LINE"
);
}
);
width = 308;
}
);
unicode = 0163;
userData = {
com.schriftgestaltung.Glyphs.ColorIndex = 3;
public.markColor = "0.97,1,0,1";
};
},
{
color = 3;
glyphname = uogonek;
layers = (
{
anchors = (
{
name = top;
position = "{253, 500}";
}
);
guideLines = (
{
angle = 90;
position = "{-584, -98}";
}
);
layerId = "CC11FE7D-5FF0-4B40-9597-DFC61EB94F41";
name = "Light Condensed";
paths = (
{
closed = 1;
nodes = (
"457 -188 OFFCURVE",
"473 -186 OFFCURVE",
"487 -183 CURVE",
"485 -153 LINE",
"474 -156 OFFCURVE",
"462 -157 OFFCURVE",
"453 -157 CURVE SMOOTH",
"404 -157 OFFCURVE",
"380 -129 OFFCURVE",
"380 -98 CURVE SMOOTH",
"380 -65 OFFCURVE",
"408 -28 OFFCURVE",
"482 -5 CURVE",
"480 26 LINE",
"474 25 OFFCURVE",
"469 25 OFFCURVE",
"464 25 CURVE SMOOTH",
"423 25 OFFCURVE",
"413 50 OFFCURVE",
"413 103 CURVE",
"413 500 LINE",
"373 500 LINE",
"373 206 LINE SMOOTH",
"373 89 OFFCURVE",
"307 25 OFFCURVE",
"235 25 CURVE SMOOTH",
"169 25 OFFCURVE",
"125 72 OFFCURVE",
"125 159 CURVE SMOOTH",
"125 500 LINE",
"85 500 LINE",
"85 156 LINE SMOOTH",
"85 52 OFFCURVE",
"138 -7 OFFCURVE",
"233 -7 CURVE SMOOTH",
"298 -7 OFFCURVE",
"354 31 OFFCURVE",
"382 107 CURVE",
"373 107 LINE",
"373 38 OFFCURVE",
"387 2 OFFCURVE",
"436 -6 CURVE",
"436 -1 LINE",
"374 -26 OFFCURVE",
"342 -69 OFFCURVE",
"342 -107 CURVE SMOOTH",
"342 -151 OFFCURVE",
"378 -188 OFFCURVE",
"444 -188 CURVE SMOOTH"
);
}
);
width = 502;
}
);
unicode = 0173;
userData = {
com.schriftgestaltung.Glyphs.ColorIndex = 3;
com.typemytype.robofont.guides = (
{
angle = 90;
isGlobal = 0;
x = -584;
y = -98;
}
);
public.markColor = "0.97,1,0,1";
};
},
{
color = 3;
glyphname = v;
layers = (
{
layerId = "CC11FE7D-5FF0-4B40-9597-DFC61EB94F41";
name = "Light Condensed";
paths = (
{
closed = 1;
nodes = (
"198 51 LINE",
"209 51 LINE",
"48 500 LINE",
"5 500 LINE",
"186 0 LINE",
"216 0 LINE",
"403 500 LINE",
"362 500 LINE"
);
}
);
width = 408;
}
);
unicode = 0076;
userData = {
com.schriftgestaltung.Glyphs.ColorIndex = 3;
public.markColor = "0.97,1,0,1";
};
},
{
color = 3;
glyphname = w;
layers = (
{
layerId = "CC11FE7D-5FF0-4B40-9597-DFC61EB94F41";
name = "Light Condensed";
paths = (
{
closed = 1;
nodes = (
"192 0 LINE",
"346 463 LINE",
"331 463 LINE",
"480 0 LINE",
"506 0 LINE",
"672 500 LINE",
"633 500 LINE",
"491 52 LINE",
"501 52 LINE",
"359 500 LINE",
"319 497 LINE",
"177 52 LINE",
"187 52 LINE",
"46 500 LINE",
"5 500 LINE",
"166 0 LINE"
);
}
);
width = 677;
}
);
unicode = 0077;
userData = {
com.schriftgestaltung.Glyphs.ColorIndex = 3;
public.markColor = "0.97,1,0,1";
};
},
{
color = 3;
glyphname = x;
layers = (
{
guideLines = (
{
angle = 90;
position = "{8, 269}";
},
{
angle = 90;
position = "{405, 269}";
}
);
layerId = "CC11FE7D-5FF0-4B40-9597-DFC61EB94F41";
name = "Light Condensed";
paths = (
{
closed = 1;
nodes = (
"400 26 LINE",
"399 26 OFFCURVE",
"398 26 OFFCURVE",
"397 26 CURVE SMOOTH",
"385 26 OFFCURVE",
"378 30 OFFCURVE",
"363 52 CURVE SMOOTH",
"220 264 LINE",
"66 500 LINE",
"16 500 LINE",
"192 240 LINE",
"327 35 LINE SMOOTH",
"348 3 OFFCURVE",
"363 -7 OFFCURVE",
"384 -7 CURVE SMOOTH",
"390 -7 OFFCURVE",
"396 -6 OFFCURVE",
"403 -5 CURVE"
);
},
{
closed = 1;
nodes = (
"56 0 LINE",
"214 232 LINE",
"224 241 LINE",
"397 500 LINE",
"354 500 LINE",
"201 269 LINE",
"190 260 LINE",
"13 0 LINE"
);
}
);
width = 413;
}
);
unicode = 0078;
userData = {
com.schriftgestaltung.Glyphs.ColorIndex = 3;
com.typemytype.robofont.guides = (
{
angle = 90;
isGlobal = 0;
x = 8;
y = 269;
},
{
angle = 90;
isGlobal = 0;
x = 405;
y = 269;
}
);
public.markColor = "0.97,1,0,1";
};
},
{
color = 3;
glyphname = y;
layers = (
{
anchors = (
{
name = top;
position = "{200, 500}";
}
);
layerId = "CC11FE7D-5FF0-4B40-9597-DFC61EB94F41";
name = "Light Condensed";
paths = (
{
closed = 1;
nodes = (
"354 500 LINE",
"191 51 LINE",
"203 51 LINE",
"42 500 LINE",
"-2 500 LINE",
"177 9 LINE",
"132 -109 OFFCURVE",
"98 -177 OFFCURVE",
"29 -177 CURVE SMOOTH",
"7 -177 OFFCURVE",
"-17 -171 OFFCURVE",
"-47 -156 CURVE",
"-62 -188 LINE",
"-26 -206 OFFCURVE",
"3 -212 OFFCURVE",
"29 -212 CURVE SMOOTH",
"107 -212 OFFCURVE",
"153 -145 OFFCURVE",
"195 -34 CURVE SMOOTH",
"395 500 LINE"
);
}
);
width = 400;
}
);
unicode = 0079;
userData = {
com.schriftgestaltung.Glyphs.ColorIndex = 3;
public.markColor = "0.97,1,0,1";
};
},
{
color = 3;
glyphname = z;
layers = (
{
anchors = (
{
name = top;
position = "{238, 500}";
}
);
layerId = "CC11FE7D-5FF0-4B40-9597-DFC61EB94F41";
name = "Light Condensed";
paths = (
{
closed = 1;
nodes = (
"101 35 LINE",
"410 475 LINE",
"410 500 LINE",
"57 500 LINE",
"57 465 LINE",
"359 465 LINE",
"47 25 LINE",
"47 0 LINE",
"404 0 LINE",
"404 35 LINE"
);
}
);
width = 455;
}
);
unicode = 007A;
userData = {
com.schriftgestaltung.Glyphs.ColorIndex = 3;
public.markColor = "0.97,1,0,1";
};
},
{
color = 3;
glyphname = fi;
layers = (
{
layerId = "CC11FE7D-5FF0-4B40-9597-DFC61EB94F41";
name = "Light Condensed";
paths = (
{
closed = 1;
nodes = (
"146 0 LINE",
"146 586 LINE SMOOTH",
"146 659 OFFCURVE",
"173 697 OFFCURVE",
"219 697 CURVE SMOOTH",
"236 697 OFFCURVE",
"255 692 OFFCURVE",
"275 682 CURVE",
"292 712 LINE",
"268 726 OFFCURVE",
"242 732 OFFCURVE",
"219 732 CURVE SMOOTH",
"154 732 OFFCURVE",
"106 685 OFFCURVE",
"106 598 CURVE SMOOTH",
"106 0 LINE"
);
},
{
closed = 1;
nodes = (
"392 0 LINE",
"392 500 LINE",
"353 500 LINE",
"353 0 LINE"
);
},
{
closed = 1;
nodes = (
"371 465 LINE",
"371 500 LINE",
"30 500 LINE",
"30 465 LINE"
);
},
{
closed = 1;
nodes = (
"394 607 OFFCURVE",
"406 624 OFFCURVE",
"406 645 CURVE SMOOTH",
"406 665 OFFCURVE",
"394 682 OFFCURVE",
"373 682 CURVE SMOOTH",
"352 682 OFFCURVE",
"340 665 OFFCURVE",
"340 645 CURVE SMOOTH",
"340 624 OFFCURVE",
"352 607 OFFCURVE",
"373 607 CURVE SMOOTH"
);
}
);
width = 478;
}
);
leftMetricsKey = f;
rightMetricsKey = i;
unicode = FB01;
userData = {
com.schriftgestaltung.Glyphs.ColorIndex = 3;
com.schriftgestaltung.Glyphs.leftMetricsKey = f;
com.schriftgestaltung.Glyphs.rightMetricsKey = i;
public.markColor = "0.97,1,0,1";
};
},
{
color = 3;
glyphname = fl;
layers = (
{
layerId = "CC11FE7D-5FF0-4B40-9597-DFC61EB94F41";
name = "Light Condensed";
paths = (
{
closed = 1;
nodes = (
"278 465 LINE",
"278 500 LINE",
"30 500 LINE",
"30 465 LINE"
);
},
{
closed = 1;
nodes = (
"448 -6 OFFCURVE",
"465 -2 OFFCURVE",
"484 6 CURVE",
"473 36 LINE",
"459 30 OFFCURVE",
"447 27 OFFCURVE",
"436 27 CURVE SMOOTH",
"408 27 OFFCURVE",
"393 48 OFFCURVE",
"393 87 CURVE SMOOTH",
"393 725 LINE",
"353 725 LINE",
"353 82 LINE SMOOTH",
"353 25 OFFCURVE",
"386 -6 OFFCURVE",
"431 -6 CURVE SMOOTH"
);
},
{
closed = 1;
nodes = (
"146 0 LINE",
"146 586 LINE SMOOTH",
"146 659 OFFCURVE",
"173 697 OFFCURVE",
"219 697 CURVE SMOOTH",
"236 697 OFFCURVE",
"255 692 OFFCURVE",
"275 682 CURVE",
"292 712 LINE",
"268 726 OFFCURVE",
"242 732 OFFCURVE",
"219 732 CURVE SMOOTH",
"154 732 OFFCURVE",
"106 685 OFFCURVE",
"106 598 CURVE SMOOTH",
"106 0 LINE"
);
}
);
width = 498;
}
);
leftMetricsKey = f;
rightMetricsKey = l;
unicode = FB02;
userData = {
com.schriftgestaltung.Glyphs.ColorIndex = 3;
com.schriftgestaltung.Glyphs.leftMetricsKey = f;
com.schriftgestaltung.Glyphs.rightMetricsKey = l;
public.markColor = "0.97,1,0,1";
};
},
{
color = 1;
glyphname = ordfeminine;
layers = (
{
layerId = "CC11FE7D-5FF0-4B40-9597-DFC61EB94F41";
name = "Light Condensed";
paths = (
{
closed = 1;
nodes = (
"227 332 OFFCURVE",
"242 307 OFFCURVE",
"288 307 CURVE SMOOTH",
"294 307 OFFCURVE",
"300 307 OFFCURVE",
"307 308 CURVE",
"305 338 LINE",
"301 337 OFFCURVE",
"297 337 OFFCURVE",
"294 337 CURVE SMOOTH",
"267 337 OFFCURVE",
"260 355 OFFCURVE",
"260 387 CURVE SMOOTH",
"260 578 LINE SMOOTH",
"260 647 OFFCURVE",
"213 682 OFFCURVE",
"151 682 CURVE SMOOTH",
"116 682 OFFCURVE",
"77 672 OFFCURVE",
"39 649 CURVE",
"55 621 LINE",
"86 640 OFFCURVE",
"120 651 OFFCURVE",
"149 651 CURVE SMOOTH",
"191 651 OFFCURVE",
"223 628 OFFCURVE",
"223 575 CURVE SMOOTH",
"223 426 LINE SMOOTH",
"223 366 OFFCURVE",
"170 338 OFFCURVE",
"135 338 CURVE SMOOTH",
"91 338 OFFCURVE",
"64 365 OFFCURVE",
"64 415 CURVE SMOOTH",
"64 456 OFFCURVE",
"92 492 OFFCURVE",
"173 492 CURVE SMOOTH",
"197 492 OFFCURVE",
"216 491 OFFCURVE",
"237 487 CURVE",
"237 516 LINE",
"217 520 OFFCURVE",
"199 521 OFFCURVE",
"175 521 CURVE SMOOTH",
"80 521 OFFCURVE",
"25 476 OFFCURVE",
"25 415 CURVE SMOOTH",
"25 345 OFFCURVE",
"67 307 OFFCURVE",
"130 307 CURVE SMOOTH",
"170 307 OFFCURVE",
"218 331 OFFCURVE",
"240 382 CURVE",
"227 386 LINE"
);
}
);
width = 321;
}
);
unicode = 00AA;
userData = {
com.schriftgestaltung.Glyphs.ColorIndex = 1;
public.markColor = "0.99,0.62,0.11,1";
};
},
{
color = 1;
glyphname = ordmasculine;
layers = (
{
layerId = "CC11FE7D-5FF0-4B40-9597-DFC61EB94F41";
name = "Light Condensed";
paths = (
{
closed = 1;
nodes = (
"292 406 OFFCURVE",
"257 338 OFFCURVE",
"185 338 CURVE SMOOTH",
"114 338 OFFCURVE",
"79 405 OFFCURVE",
"79 494 CURVE SMOOTH",
"79 581 OFFCURVE",
"116 651 OFFCURVE",
"187 651 CURVE SMOOTH",
"258 651 OFFCURVE",
"292 583 OFFCURVE",
"292 494 CURVE SMOOTH"
);
},
{
closed = 1;
nodes = (
"331 602 OFFCURVE",
"285 682 OFFCURVE",
"188 682 CURVE SMOOTH",
"95 682 OFFCURVE",
"40 601 OFFCURVE",
"40 494 CURVE SMOOTH",
"40 385 OFFCURVE",
"85 307 OFFCURVE",
"184 307 CURVE SMOOTH",
"279 307 OFFCURVE",
"331 386 OFFCURVE",
"331 494 CURVE SMOOTH"
);
}
);
width = 371;
}
);
unicode = 00BA;
userData = {
com.schriftgestaltung.Glyphs.ColorIndex = 1;
public.markColor = "0.99,0.62,0.11,1";
};
},
{
color = 3;
glyphname = pi;
layers = (
{
layerId = "CC11FE7D-5FF0-4B40-9597-DFC61EB94F41";
name = "Light Condensed";
paths = (
{
closed = 1;
nodes = (
"143 500 LINE",
"105 500 LINE",
"105 0 LINE",
"145 0 LINE"
);
},
{
closed = 1;
nodes = (
"480 465 LINE",
"480 500 LINE",
"40 500 LINE",
"40 465 LINE"
);
},
{
closed = 1;
nodes = (
"375 25 OFFCURVE",
"408 -6 OFFCURVE",
"453 -6 CURVE SMOOTH",
"470 -6 OFFCURVE",
"487 -2 OFFCURVE",
"506 6 CURVE",
"495 36 LINE",
"481 30 OFFCURVE",
"469 27 OFFCURVE",
"458 27 CURVE SMOOTH",
"430 27 OFFCURVE",
"415 48 OFFCURVE",
"415 87 CURVE SMOOTH",
"415 500 LINE",
"375 500 LINE",
"375 82 LINE SMOOTH"
);
}
);
width = 521;
}
);
unicode = 03C0;
userData = {
com.schriftgestaltung.Glyphs.ColorIndex = 3;
public.markColor = "0.97,1,0,1";
};
},
{
color = 1;
glyphname = zero;
layers = (
{
guideLines = (
{
position = "{295, 547}";
}
);
layerId = "CC11FE7D-5FF0-4B40-9597-DFC61EB94F41";
name = "Light Condensed";
paths = (
{
closed = 1;
nodes = (
"478 124 OFFCURVE",
"399 29 OFFCURVE",
"294 29 CURVE SMOOTH",
"182 29 OFFCURVE",
"109 123 OFFCURVE",
"109 270 CURVE SMOOTH",
"109 423 OFFCURVE",
"179 510 OFFCURVE",
"295 510 CURVE SMOOTH",
"409 510 OFFCURVE",
"478 424 OFFCURVE",
"478 269 CURVE SMOOTH"
);
},
{
closed = 1;
nodes = (
"523 445 OFFCURVE",
"437 547 OFFCURVE",
"295 547 CURVE SMOOTH",
"154 547 OFFCURVE",
"64 442 OFFCURVE",
"64 269 CURVE SMOOTH",
"64 101 OFFCURVE",
"156 -8 OFFCURVE",
"293 -8 CURVE SMOOTH",
"425 -8 OFFCURVE",
"523 104 OFFCURVE",
"523 269 CURVE SMOOTH"
);
}
);
width = 588;
}
);
unicode = 0030;
userData = {
com.schriftgestaltung.Glyphs.ColorIndex = 1;
com.typemytype.robofont.guides = (
{
angle = 0;
isGlobal = 0;
x = 295;
y = 547;
}
);
public.markColor = "0.99,0.62,0.11,1";
};
},
{
color = 1;
glyphname = one;
layers = (
{
guideLines = (
{
position = "{209, 540}";
}
);
layerId = "CC11FE7D-5FF0-4B40-9597-DFC61EB94F41";
name = "Light Condensed";
paths = (
{
closed = 1;
nodes = (
"44 432 LINE",
"30 469 LINE",
"199 540 LINE",
"232 540 LINE",
"232 0 LINE",
"190 0 LINE",
"190 509 LINE",
"204 500 LINE"
);
},
{
closed = 1;
nodes = (
"72 33 LINE",
"315 33 LINE",
"315 0 LINE",
"72 0 LINE"
);
}
);
width = 375;
}
);
unicode = 0031;
userData = {
com.schriftgestaltung.Glyphs.ColorIndex = 1;
com.typemytype.robofont.guides = (
{
angle = 0;
isGlobal = 0;
x = 209;
y = 540;
}
);
public.markColor = "0.99,0.62,0.11,1";
};
},
{
color = 1;
glyphname = two;
layers = (
{
guideLines = (
{
position = "{272, 547}";
},
{
angle = 90;
position = "{27, 282}";
}
);
layerId = "CC11FE7D-5FF0-4B40-9597-DFC61EB94F41";
name = "Light Condensed";
paths = (
{
closed = 1;
nodes = (
"368 1 LINE",
"368 39 LINE",
"92 39 LINE",
"96 31 LINE",
"219 170 LINE SMOOTH",
"285 245 OFFCURVE",
"357 310 OFFCURVE",
"357 388 CURVE SMOOTH",
"357 490 OFFCURVE",
"276 547 OFFCURVE",
"190 547 CURVE SMOOTH",
"131 547 OFFCURVE",
"71 521 OFFCURVE",
"32 463 CURVE",
"67 444 LINE",
"97 488 OFFCURVE",
"145 510 OFFCURVE",
"189 510 CURVE SMOOTH",
"253 510 OFFCURVE",
"312 467 OFFCURVE",
"312 387 CURVE SMOOTH",
"312 325 OFFCURVE",
"264 273 OFFCURVE",
"197 201 CURVE SMOOTH",
"29 22 LINE",
"29 1 LINE"
);
}
);
width = 425;
}
);
unicode = 0032;
userData = {
com.schriftgestaltung.Glyphs.ColorIndex = 1;
com.typemytype.robofont.guides = (
{
angle = 0;
isGlobal = 0;
x = 272;
y = 547;
},
{
angle = 90;
isGlobal = 0;
x = 27;
y = 282;
}
);
public.markColor = "0.99,0.62,0.11,1";
};
},
{
color = 1;
glyphname = three;
layers = (
{
guideLines = (
{
position = "{239, 547}";
},
{
position = "{189, -142}";
}
);
layerId = "CC11FE7D-5FF0-4B40-9597-DFC61EB94F41";
name = "Light Condensed";
paths = (
{
closed = 1;
nodes = (
"118 -142 OFFCURVE",
"173 -142 CURVE SMOOTH",
"282 -142 OFFCURVE",
"380 -65 OFFCURVE",
"380 60 CURVE SMOOTH",
"380 152 OFFCURVE",
"316 235 OFFCURVE",
"193 235 CURVE",
"193 223 LINE",
"293 223 OFFCURVE",
"353 303 OFFCURVE",
"353 388 CURVE SMOOTH",
"353 488 OFFCURVE",
"270 547 OFFCURVE",
"185 547 CURVE SMOOTH",
"126 547 OFFCURVE",
"67 520 OFFCURVE",
"31 459 CURVE",
"68 441 LINE",
"96 488 OFFCURVE",
"141 510 OFFCURVE",
"185 510 CURVE SMOOTH",
"248 510 OFFCURVE",
"308 464 OFFCURVE",
"308 385 CURVE SMOOTH",
"308 312 OFFCURVE",
"256 244 OFFCURVE",
"160 244 CURVE SMOOTH",
"121 244 LINE",
"121 208 LINE",
"183 208 LINE SMOOTH",
"282 208 OFFCURVE",
"335 137 OFFCURVE",
"335 58 CURVE SMOOTH",
"335 -42 OFFCURVE",
"260 -104 OFFCURVE",
"174 -104 CURVE SMOOTH",
"129 -104 OFFCURVE",
"81 -87 OFFCURVE",
"39 -50 CURVE",
"10 -80 LINE",
"60 -123 OFFCURVE"
);
}
);
width = 415;
}
);
unicode = 0033;
userData = {
com.schriftgestaltung.Glyphs.ColorIndex = 1;
com.typemytype.robofont.guides = (
{
angle = 0;
isGlobal = 0;
x = 239;
y = 547;
},
{
angle = 0;
isGlobal = 0;
x = 189;
y = -142;
}
);
public.markColor = "0.99,0.62,0.11,1";
};
},
{
color = 1;
glyphname = four;
layers = (
{
guideLines = (
{
position = "{287, 540}";
},
{
position = "{199, -135}";
}
);
layerId = "CC11FE7D-5FF0-4B40-9597-DFC61EB94F41";
name = "Light Condensed";
paths = (
{
closed = 1;
nodes = (
"371 -135 LINE",
"371 540 LINE",
"334 540 LINE",
"28 78 LINE",
"35 47 LINE",
"474 48 LINE",
"474 85 LINE",
"70 84 LINE",
"77 78 LINE",
"340 478 LINE",
"329 478 LINE",
"329 -135 LINE"
);
}
);
width = 494;
}
);
unicode = 0034;
userData = {
com.schriftgestaltung.Glyphs.ColorIndex = 1;
com.typemytype.robofont.guides = (
{
angle = 0;
isGlobal = 0;
x = 287;
y = 540;
},
{
angle = 0;
isGlobal = 0;
x = 199;
y = -135;
}
);
public.markColor = "0.99,0.62,0.11,1";
};
},
{
color = 1;
glyphname = five;
layers = (
{
guideLines = (
{
position = "{293, 540}";
},
{
angle = 90;
position = "{58, 150}";
},
{
angle = 90;
position = "{345, 150}";
},
{
position = "{199, -142}";
}
);
layerId = "CC11FE7D-5FF0-4B40-9597-DFC61EB94F41";
name = "Light Condensed";
paths = (
{
closed = 1;
nodes = (
"120 -142 OFFCURVE",
"164 -142 CURVE SMOOTH",
"308 -142 OFFCURVE",
"379 -29 OFFCURVE",
"379 82 CURVE SMOOTH",
"379 191 OFFCURVE",
"310 297 OFFCURVE",
"168 297 CURVE SMOOTH",
"148 297 OFFCURVE",
"127 295 OFFCURVE",
"106 290 CURVE",
"106 503 LINE",
"336 503 LINE",
"336 540 LINE",
"64 540 LINE",
"64 245 LINE",
"96 256 OFFCURVE",
"127 261 OFFCURVE",
"155 261 CURVE SMOOTH",
"278 261 OFFCURVE",
"335 171 OFFCURVE",
"335 81 CURVE SMOOTH",
"335 -11 OFFCURVE",
"278 -104 OFFCURVE",
"168 -104 CURVE SMOOTH",
"132 -104 OFFCURVE",
"92 -92 OFFCURVE",
"53 -67 CURVE",
"28 -100 LINE",
"72 -129 OFFCURVE"
);
}
);
width = 423;
}
);
unicode = 0035;
userData = {
com.schriftgestaltung.Glyphs.ColorIndex = 1;
com.typemytype.robofont.guides = (
{
angle = 0;
isGlobal = 0;
x = 293;
y = 540;
},
{
angle = 90;
isGlobal = 0;
x = 58;
y = 150;
},
{
angle = 90;
isGlobal = 0;
x = 345;
y = 150;
},
{
angle = 0;
isGlobal = 0;
x = 199;
y = -142;
}
);
public.markColor = "0.99,0.62,0.11,1";
};
},
{
color = 1;
glyphname = six;
layers = (
{
layerId = "CC11FE7D-5FF0-4B40-9597-DFC61EB94F41";
name = "Light Condensed";
paths = (
{
closed = 1;
nodes = (
"391 -7 OFFCURVE",
"463 109 OFFCURVE",
"463 211 CURVE SMOOTH",
"463 355 OFFCURVE",
"366 431 OFFCURVE",
"270 431 CURVE SMOOTH",
"200 431 OFFCURVE",
"124 388 OFFCURVE",
"89 296 CURVE",
"100 295 LINE",
"96 457 OFFCURVE",
"140 645 OFFCURVE",
"292 645 CURVE SMOOTH",
"337 645 OFFCURVE",
"381 626 OFFCURVE",
"409 590 CURVE",
"439 614 LINE",
"405 658 OFFCURVE",
"351 682 OFFCURVE",
"295 682 CURVE SMOOTH",
"121 682 OFFCURVE",
"56 494 OFFCURVE",
"56 295 CURVE SMOOTH",
"56 130 OFFCURVE",
"120 -7 OFFCURVE",
"260 -7 CURVE SMOOTH"
);
},
{
closed = 1;
nodes = (
"186 30 OFFCURVE",
"108 101 OFFCURVE",
"108 213 CURVE SMOOTH",
"108 340 OFFCURVE",
"192 394 OFFCURVE",
"268 394 CURVE SMOOTH",
"343 394 OFFCURVE",
"419 336 OFFCURVE",
"419 209 CURVE SMOOTH",
"419 94 OFFCURVE",
"339 30 OFFCURVE",
"262 30 CURVE SMOOTH"
);
}
);
width = 523;
}
);
unicode = 0036;
userData = {
com.schriftgestaltung.Glyphs.ColorIndex = 1;
public.markColor = "0.99,0.62,0.11,1";
};
},
{
color = 1;
glyphname = seven;
layers = (
{
guideLines = (
{
position = "{221, 540}";
}
);
layerId = "CC11FE7D-5FF0-4B40-9597-DFC61EB94F41";
name = "Light Condensed";
paths = (
{
closed = 1;
nodes = (
"197 62 OFFCURVE",
"269 272 OFFCURVE",
"372 507 CURVE",
"372 540 LINE",
"10 540 LINE",
"10 498 LINE",
"332 498 LINE",
"327 505 LINE",
"236 296 OFFCURVE",
"159 94 OFFCURVE",
"95 -129 CURVE",
"141 -140 LINE"
);
}
);
width = 390;
}
);
unicode = 0037;
userData = {
com.schriftgestaltung.Glyphs.ColorIndex = 1;
com.typemytype.robofont.guides = (
{
angle = 0;
isGlobal = 0;
x = 221;
y = 540;
}
);
public.markColor = "0.99,0.62,0.11,1";
};
},
{
color = 1;
glyphname = eight;
layers = (
{
guideLines = (
{
position = "{256, 547}";
}
);
layerId = "CC11FE7D-5FF0-4B40-9597-DFC61EB94F41";
name = "Light Condensed";
paths = (
{
closed = 1;
nodes = (
"331 -7 OFFCURVE",
"426 64 OFFCURVE",
"426 177 CURVE SMOOTH",
"426 280 OFFCURVE",
"362 349 OFFCURVE",
"294 359 CURVE",
"357 377 OFFCURVE",
"404 436 OFFCURVE",
"404 518 CURVE SMOOTH",
"404 627 OFFCURVE",
"328 682 OFFCURVE",
"235 682 CURVE SMOOTH",
"141 682 OFFCURVE",
"57 626 OFFCURVE",
"57 514 CURVE SMOOTH",
"57 431 OFFCURVE",
"111 377 OFFCURVE",
"163 362 CURVE",
"100 343 OFFCURVE",
"33 276 OFFCURVE",
"33 178 CURVE SMOOTH",
"33 64 OFFCURVE",
"118 -7 OFFCURVE",
"225 -7 CURVE SMOOTH"
);
},
{
closed = 1;
nodes = (
"145 30 OFFCURVE",
"76 89 OFFCURVE",
"76 179 CURVE SMOOTH",
"76 285 OFFCURVE",
"146 342 OFFCURVE",
"229 342 CURVE SMOOTH",
"312 342 OFFCURVE",
"382 285 OFFCURVE",
"382 178 CURVE SMOOTH",
"382 89 OFFCURVE",
"313 30 OFFCURVE",
"229 30 CURVE SMOOTH"
);
},
{
closed = 1;
nodes = (
"160 378 OFFCURVE",
"100 425 OFFCURVE",
"100 515 CURVE SMOOTH",
"100 604 OFFCURVE",
"159 647 OFFCURVE",
"232 647 CURVE SMOOTH",
"305 647 OFFCURVE",
"363 605 OFFCURVE",
"363 518 CURVE SMOOTH",
"363 426 OFFCURVE",
"306 378 OFFCURVE",
"232 378 CURVE SMOOTH"
);
}
);
width = 459;
}
);
unicode = 0038;
userData = {
com.schriftgestaltung.Glyphs.ColorIndex = 1;
com.typemytype.robofont.guides = (
{
angle = 0;
isGlobal = 0;
x = 256;
y = 547;
}
);
public.markColor = "0.99,0.62,0.11,1";
};
},
{
color = 1;
glyphname = nine;
layers = (
{
guideLines = (
{
position = "{293, 547}";
},
{
position = "{191, -142}";
}
);
layerId = "CC11FE7D-5FF0-4B40-9597-DFC61EB94F41";
name = "Light Condensed";
paths = (
{
closed = 1;
nodes = (
"129 547 OFFCURVE",
"57 439 OFFCURVE",
"57 329 CURVE SMOOTH",
"57 195 OFFCURVE",
"147 112 OFFCURVE",
"250 112 CURVE SMOOTH",
"317 112 OFFCURVE",
"392 154 OFFCURVE",
"427 246 CURVE",
"418 247 LINE",
"422 72 OFFCURVE",
"374 -105 OFFCURVE",
"227 -105 CURVE SMOOTH",
"189 -105 OFFCURVE",
"142 -88 OFFCURVE",
"113 -50 CURVE",
"83 -74 LINE",
"117 -119 OFFCURVE",
"173 -142 OFFCURVE",
"224 -142 CURVE SMOOTH",
"388 -142 OFFCURVE",
"462 35 OFFCURVE",
"462 252 CURVE SMOOTH",
"462 422 OFFCURVE",
"399 547 OFFCURVE",
"259 547 CURVE SMOOTH"
);
},
{
closed = 1;
nodes = (
"182 510 OFFCURVE",
"257 510 CURVE SMOOTH",
"332 510 OFFCURVE",
"410 448 OFFCURVE",
"410 332 CURVE SMOOTH",
"410 207 OFFCURVE",
"328 149 OFFCURVE",
"251 149 CURVE SMOOTH",
"177 149 OFFCURVE",
"101 207 OFFCURVE",
"101 332 CURVE SMOOTH",
"101 457 OFFCURVE"
);
}
);
width = 522;
}
);
unicode = 0039;
userData = {
com.schriftgestaltung.Glyphs.ColorIndex = 1;
com.typemytype.robofont.guides = (
{
angle = 0;
isGlobal = 0;
x = 293;
y = 547;
},
{
angle = 0;
isGlobal = 0;
x = 191;
y = -142;
}
);
public.markColor = "0.99,0.62,0.11,1";
};
},
{
color = 1;
glyphname = fraction;
layers = (
{
layerId = "CC11FE7D-5FF0-4B40-9597-DFC61EB94F41";
name = "Light Condensed";
paths = (
{
closed = 1;
nodes = (
"70 -11 LINE",
"29 -10 LINE",
"446 735 LINE",
"485 735 LINE"
);
}
);
width = 529;
}
);
unicode = 2044;
userData = {
com.schriftgestaltung.Glyphs.ColorIndex = 1;
public.markColor = "0.99,0.62,0.11,1";
};
},
{
color = 1;
glyphname = onequarter;
layers = (
{
components = (
{
name = fraction;
transform = "{1, 0, 0, 1, 116, 0}";
},
{
name = onesuperior;
transform = "{1, 0, 0, 1, -15, 0}";
}
);
layerId = "CC11FE7D-5FF0-4B40-9597-DFC61EB94F41";
name = "Light Condensed";
paths = (
{
closed = 1;
nodes = (
"670 0 LINE",
"670 407 LINE",
"629 407 LINE",
"439 128 LINE",
"443 103 LINE",
"719 104 LINE",
"719 136 LINE",
"469 136 LINE",
"479 128 LINE",
"643 369 LINE",
"632 369 LINE",
"632 0 LINE"
);
}
);
width = 749;
}
);
unicode = 00BC;
userData = {
com.schriftgestaltung.Glyphs.ColorIndex = 1;
public.markColor = "0.99,0.62,0.11,1";
};
},
{
color = 1;
glyphname = threequarters;
layers = (
{
components = (
{
name = threesuperior;
},
{
name = fraction;
transform = "{1, 0, 0, 1, 154, 0}";
}
);
layerId = "CC11FE7D-5FF0-4B40-9597-DFC61EB94F41";
name = "Light Condensed";
paths = (
{
closed = 1;
nodes = (
"706 0 LINE",
"706 407 LINE",
"665 407 LINE",
"475 128 LINE",
"479 103 LINE",
"755 104 LINE",
"755 136 LINE",
"505 136 LINE",
"515 128 LINE",
"679 369 LINE",
"668 369 LINE",
"668 0 LINE"
);
}
);
width = 785;
}
);
unicode = 00BE;
userData = {
com.schriftgestaltung.Glyphs.ColorIndex = 1;
public.markColor = "0.99,0.62,0.11,1";
};
},
{
color = 1;
glyphname = onesuperior;
layers = (
{
layerId = "CC11FE7D-5FF0-4B40-9597-DFC61EB94F41";
name = "Light Condensed";
paths = (
{
closed = 1;
nodes = (
"42 590 LINE",
"30 622 LINE",
"157 675 LINE",
"186 675 LINE",
"186 270 LINE",
"148 270 LINE",
"148 652 LINE",
"162 641 LINE"
);
},
{
closed = 1;
nodes = (
"61 301 LINE",
"247 301 LINE",
"247 270 LINE",
"61 270 LINE"
);
}
);
width = 307;
}
);
leftMetricsKey = one;
rightMetricsKey = one;
unicode = 00B9;
userData = {
com.schriftgestaltung.Glyphs.ColorIndex = 1;
com.schriftgestaltung.Glyphs.leftMetricsKey = one;
com.schriftgestaltung.Glyphs.rightMetricsKey = one;
public.markColor = "0.99,0.62,0.11,1";
};
},
{
color = 1;
glyphname = twosuperior;
layers = (
{
guideLines = (
{
position = "{33, 270}";
}
);
layerId = "CC11FE7D-5FF0-4B40-9597-DFC61EB94F41";
name = "Light Condensed";
paths = (
{
closed = 1;
nodes = (
"285 270 LINE",
"285 305 LINE",
"76 305 LINE",
"81 293 LINE",
"174 399 LINE SMOOTH",
"224 455 OFFCURVE",
"279 504 OFFCURVE",
"279 562 CURVE SMOOTH",
"279 638 OFFCURVE",
"217 682 OFFCURVE",
"152 682 CURVE SMOOTH",
"107 682 OFFCURVE",
"61 662 OFFCURVE",
"31 619 CURVE",
"62 601 LINE",
"84 634 OFFCURVE",
"118 650 OFFCURVE",
"150 650 CURVE SMOOTH",
"197 650 OFFCURVE",
"240 618 OFFCURVE",
"240 562 CURVE SMOOTH",
"240 515 OFFCURVE",
"202 477 OFFCURVE",
"152 423 CURVE SMOOTH",
"29 289 LINE",
"29 270 LINE"
);
}
);
width = 342;
}
);
leftMetricsKey = two;
rightMetricsKey = two;
unicode = 00B2;
userData = {
com.schriftgestaltung.Glyphs.ColorIndex = 1;
com.schriftgestaltung.Glyphs.leftMetricsKey = two;
com.schriftgestaltung.Glyphs.rightMetricsKey = two;
com.typemytype.robofont.guides = (
{
angle = 0;
isGlobal = 0;
x = 33;
y = 270;
}
);
public.markColor = "0.99,0.62,0.11,1";
};
},
{
color = 1;
glyphname = threesuperior;
layers = (
{
guideLines = (
{
position = "{32, 263}";
}
);
layerId = "CC11FE7D-5FF0-4B40-9597-DFC61EB94F41";
name = "Light Condensed";
paths = (
{
closed = 1;
nodes = (
"99 262 OFFCURVE",
"143 262 CURVE SMOOTH",
"219 262 OFFCURVE",
"283 307 OFFCURVE",
"283 386 CURVE SMOOTH",
"283 441 OFFCURVE",
"240 493 OFFCURVE",
"143 493 CURVE",
"143 484 LINE",
"223 484 OFFCURVE",
"263 532 OFFCURVE",
"263 581 CURVE SMOOTH",
"263 645 OFFCURVE",
"204 682 OFFCURVE",
"141 682 CURVE SMOOTH",
"95 682 OFFCURVE",
"47 662 OFFCURVE",
"20 618 CURVE",
"51 602 LINE",
"71 635 OFFCURVE",
"107 650 OFFCURVE",
"141 650 CURVE SMOOTH",
"184 650 OFFCURVE",
"224 625 OFFCURVE",
"224 579 CURVE SMOOTH",
"224 541 OFFCURVE",
"190 502 OFFCURVE",
"118 502 CURVE SMOOTH",
"92 502 LINE",
"92 471 LINE",
"135 471 LINE SMOOTH",
"212 471 OFFCURVE",
"244 429 OFFCURVE",
"244 386 CURVE SMOOTH",
"244 327 OFFCURVE",
"198 294 OFFCURVE",
"141 294 CURVE SMOOTH",
"105 294 OFFCURVE",
"65 308 OFFCURVE",
"31 337 CURVE",
"10 311 LINE",
"51 278 OFFCURVE"
);
}
);
width = 318;
}
);
leftMetricsKey = three;
rightMetricsKey = three;
unicode = 00B3;
userData = {
com.schriftgestaltung.Glyphs.ColorIndex = 1;
com.schriftgestaltung.Glyphs.leftMetricsKey = three;
com.schriftgestaltung.Glyphs.rightMetricsKey = three;
com.typemytype.robofont.guides = (
{
angle = 0;
isGlobal = 0;
x = 32;
y = 263;
}
);
public.markColor = "0.99,0.62,0.11,1";
};
},
{
color = 1;
glyphname = asterisk;
layers = (
{
layerId = "CC11FE7D-5FF0-4B40-9597-DFC61EB94F41";
name = "Light Condensed";
paths = (
{
closed = 1;
nodes = (
"195 593 LINE",
"209 674 LINE SMOOTH",
"215 708 OFFCURVE",
"199 728 OFFCURVE",
"159 713 CURVE",
"174 593 LINE"
);
},
{
closed = 1;
nodes = (
"167 585 LINE",
"93 624 LINE SMOOTH",
"62 641 OFFCURVE",
"38 633 OFFCURVE",
"40 589 CURVE",
"161 567 LINE"
);
},
{
closed = 1;
nodes = (
"165 560 LINE",
"105 501 LINE SMOOTH",
"80 477 OFFCURVE",
"80 452 OFFCURVE",
"122 441 CURVE",
"180 547 LINE"
);
},
{
closed = 1;
nodes = (
"191 547 LINE",
"229 472 LINE SMOOTH",
"243 441 OFFCURVE",
"270 431 OFFCURVE",
"291 469 CURVE",
"207 559 LINE"
);
},
{
closed = 1;
nodes = (
"210 568 LINE",
"290 581 LINE SMOOTH",
"324 585 OFFCURVE",
"340 604 OFFCURVE",
"312 639 CURVE",
"203 587 LINE"
);
}
);
width = 372;
}
);
unicode = 002A;
userData = {
com.schriftgestaltung.Glyphs.ColorIndex = 1;
public.markColor = "0.99,0.62,0.11,1";
};
},
{
color = 1;
glyphname = backslash;
layers = (
{
layerId = "CC11FE7D-5FF0-4B40-9597-DFC61EB94F41";
name = "Light Condensed";
paths = (
{
closed = 1;
nodes = (
"316 -70 LINE",
"355 -69 LINE",
"62 725 LINE",
"25 725 LINE"
);
}
);
width = 382;
}
);
unicode = 005C;
userData = {
com.schriftgestaltung.Glyphs.ColorIndex = 1;
public.markColor = "0.99,0.62,0.11,1";
};
},
{
color = 1;
glyphname = periodcentered;
layers = (
{
layerId = "CC11FE7D-5FF0-4B40-9597-DFC61EB94F41";
name = "Light Condensed";
paths = (
{
closed = 1;
nodes = (
"70 241 OFFCURVE",
"90 241 CURVE SMOOTH",
"110 241 OFFCURVE",
"130 255 OFFCURVE",
"130 284 CURVE SMOOTH",
"130 313 OFFCURVE",
"110 327 OFFCURVE",
"90 327 CURVE SMOOTH",
"70 327 OFFCURVE",
"50 313 OFFCURVE",
"50 284 CURVE SMOOTH",
"50 255 OFFCURVE"
);
}
);
width = 180;
}
);
unicode = 00B7;
userData = {
com.schriftgestaltung.Glyphs.ColorIndex = 1;
public.markColor = "0.99,0.62,0.11,1";
};
},
{
color = 1;
glyphname = bullet;
layers = (
{
layerId = "CC11FE7D-5FF0-4B40-9597-DFC61EB94F41";
name = "Light Condensed";
paths = (
{
closed = 1;
nodes = (
"216 212 OFFCURVE",
"250 248 OFFCURVE",
"250 294 CURVE SMOOTH",
"250 340 OFFCURVE",
"216 377 OFFCURVE",
"170 377 CURVE SMOOTH",
"124 377 OFFCURVE",
"90 340 OFFCURVE",
"90 294 CURVE SMOOTH",
"90 248 OFFCURVE",
"124 212 OFFCURVE",
"170 212 CURVE SMOOTH"
);
}
);
width = 340;
}
);
unicode = 2022;
userData = {
com.schriftgestaltung.Glyphs.ColorIndex = 1;
public.markColor = "0.99,0.62,0.11,1";
};
},
{
color = 1;
glyphname = comma;
layers = (
{
guideLines = (
{
position = "{96, 72}";
}
);
layerId = "CC11FE7D-5FF0-4B40-9597-DFC61EB94F41";
name = "Light Condensed";
paths = (
{
closed = 1;
nodes = (
"87 -76 OFFCURVE",
"115 -17 OFFCURVE",
"115 25 CURVE SMOOTH",
"115 57 OFFCURVE",
"96 72 OFFCURVE",
"77 72 CURVE SMOOTH",
"58 72 OFFCURVE",
"40 58 OFFCURVE",
"40 31 CURVE SMOOTH",
"40 14 OFFCURVE",
"49 -2 OFFCURVE",
"69 -8 CURVE",
"66 -39 OFFCURVE",
"51 -68 OFFCURVE",
"28 -100 CURVE",
"44 -115 LINE"
);
}
);
width = 169;
}
);
unicode = 002C;
userData = {
com.schriftgestaltung.Glyphs.ColorIndex = 1;
com.typemytype.robofont.guides = (
{
angle = 0;
isGlobal = 0;
x = 96;
y = 72;
}
);
public.markColor = "0.99,0.62,0.11,1";
};
},
{
color = 1;
glyphname = exclam;
layers = (
{
components = (
{
name = period;
transform = "{1, 0, 0, 1, 28, 0}";
}
);
layerId = "CC11FE7D-5FF0-4B40-9597-DFC61EB94F41";
name = "Light Condensed";
paths = (
{
closed = 1;
nodes = (
"142 697 LINE",
"93 697 LINE",
"101 155 LINE",
"134 155 LINE"
);
}
);
width = 240;
}
);
unicode = 0021;
userData = {
com.schriftgestaltung.Glyphs.ColorIndex = 1;
public.markColor = "0.99,0.62,0.11,1";
};
},
{
color = 1;
glyphname = numbersign;
layers = (
{
layerId = "CC11FE7D-5FF0-4B40-9597-DFC61EB94F41";
name = "Light Condensed";
paths = (
{
closed = 1;
nodes = (
"297 675 LINE",
"101 0 LINE",
"140 0 LINE",
"335 675 LINE"
);
},
{
closed = 1;
nodes = (
"508 675 LINE",
"313 0 LINE",
"352 0 LINE",
"546 675 LINE"
);
},
{
closed = 1;
nodes = (
"88 482 LINE",
"88 452 LINE",
"635 452 LINE",
"635 482 LINE"
);
},
{
closed = 1;
nodes = (
"19 240 LINE",
"19 210 LINE",
"565 211 LINE",
"565 240 LINE"
);
}
);
width = 654;
}
);
unicode = 0023;
userData = {
com.schriftgestaltung.Glyphs.ColorIndex = 1;
public.markColor = "0.99,0.62,0.11,1";
};
},
{
color = 1;
glyphname = period;
layers = (
{
layerId = "CC11FE7D-5FF0-4B40-9597-DFC61EB94F41";
name = "Light Condensed";
paths = (
{
closed = 1;
nodes = (
"112 -5 OFFCURVE",
"125 11 OFFCURVE",
"125 34 CURVE SMOOTH",
"125 56 OFFCURVE",
"112 72 OFFCURVE",
"90 72 CURVE SMOOTH",
"68 72 OFFCURVE",
"55 56 OFFCURVE",
"55 34 CURVE SMOOTH",
"55 11 OFFCURVE",
"68 -5 OFFCURVE",
"90 -5 CURVE SMOOTH"
);
}
);
width = 180;
}
);
unicode = 002E;
userData = {
com.schriftgestaltung.Glyphs.ColorIndex = 1;
public.markColor = "0.99,0.62,0.11,1";
};
},
{
color = 1;
glyphname = question;
layers = (
{
components = (
{
name = period;
transform = "{1, 0, 0, 1, 28, 0}";
}
);
guideLines = (
{
position = "{78, 697}";
}
);
layerId = "CC11FE7D-5FF0-4B40-9597-DFC61EB94F41";
name = "Light Condensed";
paths = (
{
closed = 1;
nodes = (
"129 142 LINE",
"123 165 OFFCURVE",
"121 181 OFFCURVE",
"121 192 CURVE SMOOTH",
"121 334 OFFCURVE",
"365 355 OFFCURVE",
"365 528 CURVE SMOOTH",
"365 642 OFFCURVE",
"278 713 OFFCURVE",
"186 713 CURVE SMOOTH",
"128 713 OFFCURVE",
"67 684 OFFCURVE",
"27 620 CURVE",
"62 602 LINE",
"90 653 OFFCURVE",
"138 675 OFFCURVE",
"183 675 CURVE SMOOTH",
"253 675 OFFCURVE",
"321 620 OFFCURVE",
"321 527 CURVE SMOOTH",
"321 359 OFFCURVE",
"85 375 OFFCURVE",
"85 191 CURVE SMOOTH",
"85 177 OFFCURVE",
"87 161 OFFCURVE",
"94 135 CURVE"
);
}
);
width = 425;
}
);
unicode = 003F;
userData = {
com.schriftgestaltung.Glyphs.ColorIndex = 1;
com.typemytype.robofont.guides = (
{
angle = 0;
isGlobal = 0;
x = 78;
y = 697;
}
);
public.markColor = "0.99,0.62,0.11,1";
};
},
{
color = 1;
glyphname = quotesingle;
layers = (
{
layerId = "CC11FE7D-5FF0-4B40-9597-DFC61EB94F41";
name = "Light Condensed";
paths = (
{
closed = 1;
nodes = (
"99 725 LINE",
"50 725 LINE",
"59 537 LINE",
"90 537 LINE"
);
}
);
width = 149;
}
);
unicode = 0027;
userData = {
com.schriftgestaltung.Glyphs.ColorIndex = 1;
public.markColor = "0.99,0.62,0.11,1";
};
},
{
color = 1;
glyphname = semicolon;
layers = (
{
components = (
{
name = period;
transform = "{1, 0, 0, 1, 15, 296}";
}
);
guideLines = (
{
angle = 90;
position = "{140, 227}";
},
{
position = "{29, 280}";
}
);
layerId = "CC11FE7D-5FF0-4B40-9597-DFC61EB94F41";
name = "Light Condensed";
paths = (
{
closed = 1;
nodes = (
"117 -76 OFFCURVE",
"145 -17 OFFCURVE",
"145 25 CURVE SMOOTH",
"145 57 OFFCURVE",
"126 72 OFFCURVE",
"107 72 CURVE SMOOTH",
"88 72 OFFCURVE",
"70 58 OFFCURVE",
"70 31 CURVE SMOOTH",
"70 14 OFFCURVE",
"79 -2 OFFCURVE",
"99 -8 CURVE",
"96 -39 OFFCURVE",
"81 -68 OFFCURVE",
"58 -100 CURVE",
"74 -115 LINE"
);
}
);
width = 210;
}
);
unicode = 003B;
userData = {
com.schriftgestaltung.Glyphs.ColorIndex = 1;
com.typemytype.robofont.guides = (
{
angle = 90;
isGlobal = 0;
x = 140;
y = 227;
},
{
angle = 0;
isGlobal = 0;
x = 29;
y = 280;
}
);
public.markColor = "0.99,0.62,0.11,1";
};
},
{
color = 1;
glyphname = slash;
layers = (
{
layerId = "CC11FE7D-5FF0-4B40-9597-DFC61EB94F41";
name = "Light Condensed";
paths = (
{
closed = 1;
nodes = (
"318 725 LINE",
"30 -69 LINE",
"69 -70 LINE",
"355 725 LINE"
);
}
);
width = 380;
}
);
unicode = 002F;
userData = {
com.schriftgestaltung.Glyphs.ColorIndex = 1;
public.markColor = "0.99,0.62,0.11,1";
};
},
{
color = 1;
glyphname = underscore;
layers = (
{
layerId = "CC11FE7D-5FF0-4B40-9597-DFC61EB94F41";
name = "Light Condensed";
paths = (
{
closed = 1;
nodes = (
"-1 -172 LINE",
"-1 -205 LINE",
"501 -205 LINE",
"501 -172 LINE"
);
}
);
width = 500;
}
);
unicode = 005F;
userData = {
com.schriftgestaltung.Glyphs.ColorIndex = 1;
public.markColor = "0.99,0.62,0.11,1";
};
},
{
color = 1;
glyphname = braceleft;
layers = (
{
layerId = "CC11FE7D-5FF0-4B40-9597-DFC61EB94F41";
name = "Light Condensed";
paths = (
{
closed = 1;
nodes = (
"210 -178 OFFCURVE",
"224 -177 OFFCURVE",
"235 -175 CURVE",
"233 -141 LINE",
"226 -142 OFFCURVE",
"221 -142 OFFCURVE",
"205 -142 CURVE SMOOTH",
"160 -142 OFFCURVE",
"149 -115 OFFCURVE",
"149 -57 CURVE SMOOTH",
"149 218 LINE SMOOTH",
"149 278 OFFCURVE",
"119 303 OFFCURVE",
"59 303 CURVE",
"59 292 LINE",
"119 292 OFFCURVE",
"149 317 OFFCURVE",
"149 377 CURVE SMOOTH",
"149 645 LINE SMOOTH",
"149 703 OFFCURVE",
"160 730 OFFCURVE",
"205 730 CURVE SMOOTH",
"221 730 OFFCURVE",
"226 730 OFFCURVE",
"233 729 CURVE",
"235 763 LINE",
"224 765 OFFCURVE",
"210 766 OFFCURVE",
"197 766 CURVE SMOOTH",
"127 766 OFFCURVE",
"110 727 OFFCURVE",
"110 647 CURVE SMOOTH",
"110 383 LINE SMOOTH",
"110 333 OFFCURVE",
"90 313 OFFCURVE",
"40 313 CURVE",
"40 282 LINE",
"90 282 OFFCURVE",
"110 262 OFFCURVE",
"110 212 CURVE SMOOTH",
"110 -59 LINE SMOOTH",
"110 -139 OFFCURVE",
"127 -178 OFFCURVE",
"197 -178 CURVE SMOOTH"
);
}
);
width = 257;
}
);
unicode = 007B;
userData = {
com.schriftgestaltung.Glyphs.ColorIndex = 1;
public.markColor = "0.99,0.62,0.11,1";
};
},
{
color = 1;
glyphname = bracketleft;
layers = (
{
layerId = "CC11FE7D-5FF0-4B40-9597-DFC61EB94F41";
name = "Light Condensed";
paths = (
{
closed = 1;
nodes = (
"236 -171 LINE",
"236 -138 LINE",
"129 -138 LINE",
"129 725 LINE",
"236 725 LINE",
"236 758 LINE",
"90 758 LINE",
"90 -171 LINE"
);
}
);
width = 266;
}
);
unicode = 005B;
userData = {
com.schriftgestaltung.Glyphs.ColorIndex = 1;
public.markColor = "0.99,0.62,0.11,1";
};
},
{
color = 1;
glyphname = parenleft;
layers = (
{
layerId = "CC11FE7D-5FF0-4B40-9597-DFC61EB94F41";
name = "Light Condensed";
paths = (
{
closed = 1;
nodes = (
"160 -17 OFFCURVE",
"118 139 OFFCURVE",
"118 294 CURVE SMOOTH",
"118 450 OFFCURVE",
"160 605 OFFCURVE",
"243 741 CURVE",
"207 758 LINE",
"121 616 OFFCURVE",
"77 454 OFFCURVE",
"77 292 CURVE SMOOTH",
"77 132 OFFCURVE",
"120 -29 OFFCURVE",
"207 -171 CURVE",
"243 -153 LINE"
);
}
);
width = 258;
}
);
unicode = 0028;
userData = {
com.schriftgestaltung.Glyphs.ColorIndex = 1;
public.markColor = "0.99,0.62,0.11,1";
};
},
{
color = 1;
glyphname = emdash;
layers = (
{
layerId = "CC11FE7D-5FF0-4B40-9597-DFC61EB94F41";
name = "Light Condensed";
paths = (
{
closed = 1;
nodes = (
"-1 319 LINE",
"-1 281 LINE",
"1001 281 LINE",
"1001 319 LINE"
);
}
);
width = 1000;
}
);
unicode = 2014;
userData = {
com.schriftgestaltung.Glyphs.ColorIndex = 1;
public.markColor = "0.99,0.62,0.11,1";
};
},
{
color = 1;
glyphname = endash;
layers = (
{
layerId = "CC11FE7D-5FF0-4B40-9597-DFC61EB94F41";
name = "Light Condensed";
paths = (
{
closed = 1;
nodes = (
"-1 319 LINE",
"-1 281 LINE",
"501 281 LINE",
"501 319 LINE"
);
}
);
width = 500;
}
);
unicode = 2013;
userData = {
com.schriftgestaltung.Glyphs.ColorIndex = 1;
public.markColor = "0.99,0.62,0.11,1";
};
},
{
color = 1;
glyphname = hyphen;
layers = (
{
layerId = "CC11FE7D-5FF0-4B40-9597-DFC61EB94F41";
name = "Light Condensed";
paths = (
{
closed = 1;
nodes = (
"47 285 LINE",
"47 250 LINE",
"278 250 LINE",
"278 285 LINE"
);
}
);
width = 325;
}
);
unicode = 002D;
userData = {
com.schriftgestaltung.Glyphs.ColorIndex = 1;
public.markColor = "0.99,0.62,0.11,1";
};
},
{
color = 1;
glyphname = guillemotleft;
layers = (
{
layerId = "CC11FE7D-5FF0-4B40-9597-DFC61EB94F41";
name = "Light Condensed";
paths = (
{
closed = 1;
nodes = (
"230 412 LINE",
"204 437 LINE",
"55 263 LINE",
"201 90 LINE",
"228 116 LINE",
"101 264 LINE"
);
},
{
closed = 1;
nodes = (
"383 412 LINE",
"357 437 LINE",
"204 263 LINE",
"354 90 LINE",
"381 116 LINE",
"250 264 LINE"
);
}
);
width = 458;
}
);
unicode = 00AB;
userData = {
com.schriftgestaltung.Glyphs.ColorIndex = 1;
public.markColor = "0.99,0.62,0.11,1";
};
},
{
color = 1;
glyphname = guilsinglleft;
layers = (
{
layerId = "CC11FE7D-5FF0-4B40-9597-DFC61EB94F41";
name = "Light Condensed";
paths = (
{
closed = 1;
nodes = (
"207 412 LINE",
"181 437 LINE",
"30 263 LINE",
"178 90 LINE",
"205 116 LINE",
"76 264 LINE"
);
}
);
width = 247;
}
);
unicode = 2039;
userData = {
com.schriftgestaltung.Glyphs.ColorIndex = 1;
public.markColor = "0.99,0.62,0.11,1";
};
},
{
color = 1;
glyphname = Euro;
layers = (
{
guideLines = (
{
angle = 90;
position = "{503, 412}";
}
);
layerId = "CC11FE7D-5FF0-4B40-9597-DFC61EB94F41";
name = "Light Condensed";
paths = (
{
closed = 1;
nodes = (
"377 -6 OFFCURVE",
"439 11 OFFCURVE",
"507 56 CURVE",
"488 89 LINE",
"428 49 OFFCURVE",
"377 33 OFFCURVE",
"329 33 CURVE SMOOTH",
"203 33 OFFCURVE",
"130 154 OFFCURVE",
"130 338 CURVE SMOOTH",
"130 493 OFFCURVE",
"186 643 OFFCURVE",
"325 643 CURVE SMOOTH",
"379 643 OFFCURVE",
"434 616 OFFCURVE",
"469 560 CURVE",
"503 585 LINE",
"461 649 OFFCURVE",
"393 682 OFFCURVE",
"327 682 CURVE SMOOTH",
"164 682 OFFCURVE",
"84 517 OFFCURVE",
"84 332 CURVE SMOOTH",
"84 129 OFFCURVE",
"176 -6 OFFCURVE",
"323 -6 CURVE SMOOTH"
);
},
{
closed = 1;
nodes = (
"399 262 LINE",
"406 297 LINE",
"15 297 LINE",
"15 262 LINE"
);
},
{
closed = 1;
nodes = (
"428 372 LINE",
"435 407 LINE",
"15 407 LINE",
"15 372 LINE"
);
}
);
width = 562;
}
);
unicode = 20AC;
userData = {
com.schriftgestaltung.Glyphs.ColorIndex = 1;
com.typemytype.robofont.guides = (
{
angle = 90;
isGlobal = 0;
x = 503;
y = 412;
}
);
public.markColor = "0.99,0.62,0.11,1";
};
},
{
color = 1;
glyphname = cent;
layers = (
{
layerId = "CC11FE7D-5FF0-4B40-9597-DFC61EB94F41";
name = "Light Condensed";
paths = (
{
closed = 1;
nodes = (
"262 13 OFFCURVE",
"313 24 OFFCURVE",
"366 54 CURVE",
"352 84 LINE",
"307 59 OFFCURVE",
"265 48 OFFCURVE",
"229 48 CURVE SMOOTH",
"138 48 OFFCURVE",
"83 127 OFFCURVE",
"83 259 CURVE SMOOTH",
"83 384 OFFCURVE",
"133 472 OFFCURVE",
"222 472 CURVE SMOOTH",
"269 472 OFFCURVE",
"317 440 OFFCURVE",
"343 388 CURVE",
"375 409 LINE",
"340 473 OFFCURVE",
"284 507 OFFCURVE",
"225 507 CURVE SMOOTH",
"113 507 OFFCURVE",
"40 408 OFFCURVE",
"40 260 CURVE SMOOTH",
"40 106 OFFCURVE",
"110 13 OFFCURVE",
"221 13 CURVE SMOOTH"
);
},
{
closed = 1;
nodes = (
"203 24 LINE",
"203 -67 LINE",
"236 -67 LINE",
"236 24 LINE"
);
},
{
closed = 1;
nodes = (
"203 582 LINE",
"203 488 LINE",
"236 488 LINE",
"236 582 LINE"
);
}
);
width = 425;
}
);
unicode = 00A2;
userData = {
com.schriftgestaltung.Glyphs.ColorIndex = 1;
public.markColor = "0.99,0.62,0.11,1";
};
},
{
color = 1;
glyphname = currency;
layers = (
{
layerId = "CC11FE7D-5FF0-4B40-9597-DFC61EB94F41";
name = "Light Condensed";
paths = (
{
closed = 1;
nodes = (
"394 23 OFFCURVE",
"466 132 OFFCURVE",
"466 249 CURVE SMOOTH",
"466 367 OFFCURVE",
"403 477 OFFCURVE",
"270 477 CURVE SMOOTH",
"143 477 OFFCURVE",
"67 366 OFFCURVE",
"67 249 CURVE SMOOTH",
"67 130 OFFCURVE",
"129 23 OFFCURVE",
"265 23 CURVE SMOOTH"
);
},
{
closed = 1;
nodes = (
"149 84 LINE",
"126 107 LINE",
"50 17 LINE",
"75 -5 LINE"
);
},
{
closed = 1;
nodes = (
"488 18 LINE",
"405 116 LINE",
"386 89 LINE",
"463 -3 LINE"
);
},
{
closed = 1;
nodes = (
"163 58 OFFCURVE",
"110 151 OFFCURVE",
"110 249 CURVE SMOOTH",
"110 345 OFFCURVE",
"167 442 OFFCURVE",
"269 442 CURVE SMOOTH",
"371 442 OFFCURVE",
"423 347 OFFCURVE",
"423 249 CURVE SMOOTH",
"423 153 OFFCURVE",
"370 58 OFFCURVE",
"266 58 CURVE SMOOTH"
);
},
{
closed = 1;
nodes = (
"156 413 LINE",
"76 509 LINE",
"51 488 LINE",
"131 392 LINE"
);
},
{
closed = 1;
nodes = (
"487 487 LINE",
"462 509 LINE",
"385 417 LINE",
"407 392 LINE"
);
}
);
width = 543;
}
);
unicode = 00A4;
userData = {
com.schriftgestaltung.Glyphs.ColorIndex = 1;
public.markColor = "0.99,0.62,0.11,1";
};
},
{
color = 1;
glyphname = dollar;
layers = (
{
guideLines = (
{
angle = 90;
position = "{97, 313}";
}
);
layerId = "CC11FE7D-5FF0-4B40-9597-DFC61EB94F41";
name = "Light Condensed";
paths = (
{
closed = 1;
nodes = (
"348 -7 OFFCURVE",
"429 49 OFFCURVE",
"429 157 CURVE SMOOTH",
"429 364 OFFCURVE",
"141 316 OFFCURVE",
"141 479 CURVE SMOOTH",
"141 558 OFFCURVE",
"203 600 OFFCURVE",
"274 600 CURVE SMOOTH",
"328 600 OFFCURVE",
"374 579 OFFCURVE",
"397 531 CURVE",
"432 549 LINE",
"405 609 OFFCURVE",
"346 637 OFFCURVE",
"278 637 CURVE SMOOTH",
"186 637 OFFCURVE",
"97 581 OFFCURVE",
"97 479 CURVE SMOOTH",
"97 281 OFFCURVE",
"385 332 OFFCURVE",
"385 157 CURVE SMOOTH",
"385 73 OFFCURVE",
"331 30 OFFCURVE",
"250 30 CURVE SMOOTH",
"199 30 OFFCURVE",
"151 45 OFFCURVE",
"102 79 CURVE",
"80 46 LINE",
"130 11 OFFCURVE",
"189 -7 OFFCURVE",
"247 -7 CURVE SMOOTH"
);
},
{
closed = 1;
nodes = (
"278 -87 LINE",
"278 8 LINE",
"245 8 LINE",
"245 -87 LINE"
);
},
{
closed = 1;
nodes = (
"278 617 LINE",
"278 717 LINE",
"245 717 LINE",
"245 617 LINE"
);
}
);
width = 506;
}
);
unicode = 0024;
userData = {
com.schriftgestaltung.Glyphs.ColorIndex = 1;
com.typemytype.robofont.guides = (
{
angle = 90;
isGlobal = 0;
x = 97;
y = 313;
}
);
public.markColor = "0.99,0.62,0.11,1";
};
},
{
color = 1;
glyphname = florin;
layers = (
{
layerId = "CC11FE7D-5FF0-4B40-9597-DFC61EB94F41";
name = "Light Condensed";
paths = (
{
closed = 1;
nodes = (
"81 -212 OFFCURVE",
"132 -161 OFFCURVE",
"144 -78 CURVE SMOOTH",
"235 586 LINE SMOOTH",
"245 658 OFFCURVE",
"277 697 OFFCURVE",
"332 697 CURVE SMOOTH",
"351 697 OFFCURVE",
"373 692 OFFCURVE",
"398 682 CURVE",
"412 712 LINE",
"385 726 OFFCURVE",
"358 732 OFFCURVE",
"333 732 CURVE SMOOTH",
"264 732 OFFCURVE",
"209 683 OFFCURVE",
"197 598 CURVE SMOOTH",
"106 -66 LINE SMOOTH",
"96 -135 OFFCURVE",
"67 -177 OFFCURVE",
"21 -177 CURVE SMOOTH",
"4 -177 OFFCURVE",
"-14 -172 OFFCURVE",
"-34 -161 CURVE",
"-50 -191 LINE",
"-26 -205 OFFCURVE",
"-2 -212 OFFCURVE",
"20 -212 CURVE SMOOTH"
);
},
{
closed = 1;
nodes = (
"347 375 LINE",
"347 410 LINE",
"59 410 LINE",
"59 375 LINE"
);
}
);
width = 422;
}
);
unicode = 0192;
userData = {
com.schriftgestaltung.Glyphs.ColorIndex = 1;
public.markColor = "0.99,0.62,0.11,1";
};
},
{
color = 1;
glyphname = sterling;
layers = (
{
layerId = "CC11FE7D-5FF0-4B40-9597-DFC61EB94F41";
name = "Light Condensed";
paths = (
{
closed = 1;
nodes = (
"403 0 LINE",
"403 37 LINE",
"126 37 LINE",
"131 32 LINE",
"131 454 LINE SMOOTH",
"131 590 OFFCURVE",
"189 644 OFFCURVE",
"262 644 CURVE SMOOTH",
"302 644 OFFCURVE",
"347 628 OFFCURVE",
"388 600 CURVE",
"409 633 LINE",
"363 665 OFFCURVE",
"311 682 OFFCURVE",
"263 682 CURVE SMOOTH",
"169 682 OFFCURVE",
"89 617 OFFCURVE",
"89 466 CURVE SMOOTH",
"89 32 LINE",
"94 37 LINE",
"20 37 LINE",
"20 0 LINE"
);
},
{
closed = 1;
nodes = (
"330 326 LINE",
"330 363 LINE",
"20 363 LINE",
"20 326 LINE"
);
}
);
width = 454;
}
);
unicode = 00A3;
userData = {
com.schriftgestaltung.Glyphs.ColorIndex = 1;
public.markColor = "0.99,0.62,0.11,1";
};
},
{
color = 1;
glyphname = uni20BA;
layers = (
{
layerId = "CC11FE7D-5FF0-4B40-9597-DFC61EB94F41";
name = "Light Condensed";
paths = (
{
closed = 1;
nodes = (
"453 -3 OFFCURVE",
"513 149 OFFCURVE",
"518 321 CURVE",
"473 321 LINE",
"468 170 OFFCURVE",
"427 35 OFFCURVE",
"260 35 CURVE SMOOTH",
"228 35 OFFCURVE",
"196 35 OFFCURVE",
"148 37 CURVE",
"161 25 LINE",
"161 675 LINE",
"119 675 LINE",
"119 0 LINE",
"180 -2 OFFCURVE",
"215 -3 OFFCURVE",
"260 -3 CURVE SMOOTH"
);
},
{
closed = 1;
nodes = (
"338 314 LINE",
"338 351 LINE",
"25 236 LINE",
"25 199 LINE"
);
},
{
closed = 1;
nodes = (
"338 432 LINE",
"338 469 LINE",
"25 355 LINE",
"25 319 LINE"
);
}
);
width = 563;
}
);
unicode = 20BA;
userData = {
com.schriftgestaltung.Glyphs.ColorIndex = 1;
public.markColor = "0.99,0.62,0.11,1";
};
},
{
color = 1;
glyphname = uni20BD;
layers = (
{
layerId = "CC11FE7D-5FF0-4B40-9597-DFC61EB94F41";
name = "Light Condensed";
paths = (
{
closed = 1;
nodes = (
"132 0 LINE",
"132 649 LINE",
"119 637 LINE",
"153 638 OFFCURVE",
"190 640 OFFCURVE",
"227 640 CURVE SMOOTH",
"364 640 OFFCURVE",
"411 586 OFFCURVE",
"411 488 CURVE SMOOTH",
"411 394 OFFCURVE",
"352 332 OFFCURVE",
"215 332 CURVE SMOOTH",
"127 332 LINE",
"127 297 LINE",
"244 297 LINE SMOOTH",
"378 297 OFFCURVE",
"457 381 OFFCURVE",
"457 497 CURVE SMOOTH",
"457 596 OFFCURVE",
"411 677 OFFCURVE",
"234 677 CURVE SMOOTH",
"187 677 OFFCURVE",
"137 677 OFFCURVE",
"90 675 CURVE",
"90 0 LINE"
);
},
{
closed = 1;
nodes = (
"332 187 LINE",
"332 222 LINE",
"20 222 LINE",
"20 187 LINE"
);
},
{
closed = 1;
nodes = (
"95 297 LINE",
"95 332 LINE",
"20 332 LINE",
"20 297 LINE"
);
}
);
width = 502;
}
);
unicode = 20BD;
userData = {
com.schriftgestaltung.Glyphs.ColorIndex = 1;
public.markColor = "0.99,0.62,0.11,1";
};
},
{
color = 1;
glyphname = yen;
layers = (
{
layerId = "CC11FE7D-5FF0-4B40-9597-DFC61EB94F41";
name = "Light Condensed";
paths = (
{
closed = 1;
nodes = (
"265 0 LINE",
"265 255 LINE",
"470 675 LINE",
"426 675 LINE",
"308 429 LINE SMOOTH",
"282 376 OFFCURVE",
"263 333 OFFCURVE",
"242 281 CURVE",
"251 281 LINE",
"232 329 OFFCURVE",
"212 376 OFFCURVE",
"186 431 CURVE SMOOTH",
"71 675 LINE",
"25 675 LINE",
"223 256 LINE",
"223 0 LINE"
);
},
{
closed = 1;
nodes = (
"420 145 LINE",
"420 180 LINE",
"68 180 LINE",
"68 145 LINE"
);
},
{
closed = 1;
nodes = (
"420 255 LINE",
"420 290 LINE",
"68 290 LINE",
"68 255 LINE"
);
}
);
width = 515;
}
);
unicode = 00A5;
userData = {
com.schriftgestaltung.Glyphs.ColorIndex = 1;
public.markColor = "0.99,0.62,0.11,1";
};
},
{
color = 1;
glyphname = approxequal;
layers = (
{
layerId = "CC11FE7D-5FF0-4B40-9597-DFC61EB94F41";
name = "Light Condensed";
paths = (
{
closed = 1;
nodes = (
"408 325 OFFCURVE",
"381 313 OFFCURVE",
"351 313 CURVE SMOOTH",
"289 313 OFFCURVE",
"236 368 OFFCURVE",
"163 368 CURVE SMOOTH",
"120 368 OFFCURVE",
"85 351 OFFCURVE",
"50 317 CURVE",
"74 293 LINE",
"101 316 OFFCURVE",
"129 328 OFFCURVE",
"161 328 CURVE SMOOTH",
"230 328 OFFCURVE",
"278 273 OFFCURVE",
"350 273 CURVE SMOOTH",
"390 273 OFFCURVE",
"425 288 OFFCURVE",
"458 326 CURVE",
"433 350 LINE"
);
},
{
closed = 1;
nodes = (
"408 200 OFFCURVE",
"381 188 OFFCURVE",
"351 188 CURVE SMOOTH",
"289 188 OFFCURVE",
"236 243 OFFCURVE",
"163 243 CURVE SMOOTH",
"120 243 OFFCURVE",
"85 226 OFFCURVE",
"50 192 CURVE",
"74 168 LINE",
"101 191 OFFCURVE",
"129 203 OFFCURVE",
"161 203 CURVE SMOOTH",
"230 203 OFFCURVE",
"278 148 OFFCURVE",
"350 148 CURVE SMOOTH",
"390 148 OFFCURVE",
"425 163 OFFCURVE",
"458 201 CURVE",
"433 225 LINE"
);
}
);
width = 508;
}
);
unicode = 2248;
userData = {
com.schriftgestaltung.Glyphs.ColorIndex = 1;
public.markColor = "0.99,0.62,0.11,1";
};
},
{
color = 1;
glyphname = asciitilde;
layers = (
{
layerId = "CC11FE7D-5FF0-4B40-9597-DFC61EB94F41";
name = "Light Condensed";
paths = (
{
closed = 1;
nodes = (
"390 216 OFFCURVE",
"425 231 OFFCURVE",
"458 269 CURVE",
"433 293 LINE",
"408 268 OFFCURVE",
"381 256 OFFCURVE",
"351 256 CURVE SMOOTH",
"289 256 OFFCURVE",
"236 311 OFFCURVE",
"163 311 CURVE SMOOTH",
"120 311 OFFCURVE",
"85 294 OFFCURVE",
"50 260 CURVE",
"74 236 LINE",
"101 259 OFFCURVE",
"129 271 OFFCURVE",
"161 271 CURVE SMOOTH",
"230 271 OFFCURVE",
"278 216 OFFCURVE",
"350 216 CURVE SMOOTH"
);
}
);
width = 508;
}
);
unicode = 007E;
userData = {
com.schriftgestaltung.Glyphs.ColorIndex = 1;
public.markColor = "0.99,0.62,0.11,1";
};
},
{
color = 1;
glyphname = divide;
layers = (
{
guideLines = (
{
position = "{133, 239}";
},
{
position = "{133, 276}";
}
);
layerId = "CC11FE7D-5FF0-4B40-9597-DFC61EB94F41";
name = "Light Condensed";
paths = (
{
closed = 1;
nodes = (
"462 239 LINE",
"462 276 LINE",
"40 276 LINE",
"40 239 LINE"
);
},
{
closed = 1;
nodes = (
"273 68 OFFCURVE",
"286 84 OFFCURVE",
"286 107 CURVE SMOOTH",
"286 129 OFFCURVE",
"273 145 OFFCURVE",
"251 145 CURVE SMOOTH",
"229 145 OFFCURVE",
"216 129 OFFCURVE",
"216 107 CURVE SMOOTH",
"216 84 OFFCURVE",
"229 68 OFFCURVE",
"251 68 CURVE SMOOTH"
);
},
{
closed = 1;
nodes = (
"273 366 OFFCURVE",
"286 382 OFFCURVE",
"286 405 CURVE SMOOTH",
"286 427 OFFCURVE",
"273 443 OFFCURVE",
"251 443 CURVE SMOOTH",
"229 443 OFFCURVE",
"216 427 OFFCURVE",
"216 405 CURVE SMOOTH",
"216 382 OFFCURVE",
"229 366 OFFCURVE",
"251 366 CURVE SMOOTH"
);
}
);
width = 502;
}
);
unicode = 00F7;
userData = {
com.schriftgestaltung.Glyphs.ColorIndex = 1;
com.typemytype.robofont.guides = (
{
angle = 0;
isGlobal = 0;
x = 133;
y = 239;
},
{
angle = 0;
isGlobal = 0;
x = 133;
y = 276;
}
);
public.markColor = "0.99,0.62,0.11,1";
};
},
{
color = 1;
glyphname = equal;
layers = (
{
layerId = "CC11FE7D-5FF0-4B40-9597-DFC61EB94F41";
name = "Light Condensed";
paths = (
{
closed = 1;
nodes = (
"469 302 LINE",
"469 339 LINE",
"75 339 LINE",
"75 302 LINE"
);
},
{
closed = 1;
nodes = (
"469 177 LINE",
"469 214 LINE",
"75 214 LINE",
"75 177 LINE"
);
}
);
width = 544;
}
);
unicode = 003D;
userData = {
com.schriftgestaltung.Glyphs.ColorIndex = 1;
public.markColor = "0.99,0.62,0.11,1";
};
},
{
color = 1;
glyphname = greater;
layers = (
{
layerId = "CC11FE7D-5FF0-4B40-9597-DFC61EB94F41";
name = "Light Condensed";
paths = (
{
closed = 1;
nodes = (
"367 254 LINE",
"107 507 LINE",
"80 475 LINE",
"314 253 LINE",
"80 21 LINE",
"106 -7 LINE"
);
}
);
width = 427;
}
);
unicode = 003E;
userData = {
com.schriftgestaltung.Glyphs.ColorIndex = 1;
public.markColor = "0.99,0.62,0.11,1";
};
},
{
color = 1;
glyphname = greaterequal;
layers = (
{
guideLines = (
{
angle = 90;
position = "{66, 305}";
}
);
layerId = "CC11FE7D-5FF0-4B40-9597-DFC61EB94F41";
name = "Light Condensed";
paths = (
{
closed = 1;
nodes = (
"388 322 LINE",
"88 527 LINE",
"66 494 LINE",
"332 317 LINE",
"332 326 LINE",
"65 142 LINE",
"86 113 LINE"
);
},
{
closed = 1;
nodes = (
"385 30 LINE",
"385 67 LINE",
"70 67 LINE",
"70 30 LINE"
);
}
);
width = 453;
}
);
unicode = 2265;
userData = {
com.schriftgestaltung.Glyphs.ColorIndex = 1;
com.typemytype.robofont.guides = (
{
angle = 90;
isGlobal = 0;
x = 66;
y = 305;
}
);
public.markColor = "0.99,0.62,0.11,1";
};
},
{
color = 1;
glyphname = infinity;
layers = (
{
layerId = "CC11FE7D-5FF0-4B40-9597-DFC61EB94F41";
name = "Light Condensed";
paths = (
{
closed = 1;
nodes = (
"287 121 OFFCURVE",
"348 185 OFFCURVE",
"421 245 CURVE",
"396 274 LINE",
"329 219 OFFCURVE",
"272 158 OFFCURVE",
"211 158 CURVE SMOOTH",
"142 158 OFFCURVE",
"105 216 OFFCURVE",
"105 274 CURVE SMOOTH",
"105 331 OFFCURVE",
"141 387 OFFCURVE",
"211 387 CURVE SMOOTH",
"335 387 OFFCURVE",
"470 121 OFFCURVE",
"624 121 CURVE SMOOTH",
"725 121 OFFCURVE",
"778 200 OFFCURVE",
"778 277 CURVE SMOOTH",
"778 351 OFFCURVE",
"730 424 OFFCURVE",
"636 424 CURVE SMOOTH",
"550 424 OFFCURVE",
"496 361 OFFCURVE",
"417 295 CURVE",
"440 266 LINE",
"506 324 OFFCURVE",
"567 387 OFFCURVE",
"634 387 CURVE SMOOTH",
"698 387 OFFCURVE",
"735 329 OFFCURVE",
"735 272 CURVE SMOOTH",
"735 215 OFFCURVE",
"699 158 OFFCURVE",
"627 158 CURVE SMOOTH",
"492 158 OFFCURVE",
"374 424 OFFCURVE",
"214 424 CURVE SMOOTH",
"113 424 OFFCURVE",
"60 345 OFFCURVE",
"60 268 CURVE SMOOTH",
"60 194 OFFCURVE",
"106 121 OFFCURVE",
"208 121 CURVE SMOOTH"
);
}
);
width = 838;
}
);
unicode = 221E;
userData = {
com.schriftgestaltung.Glyphs.ColorIndex = 1;
public.markColor = "0.99,0.62,0.11,1";
};
},
{
color = 1;
glyphname = integral;
layers = (
{
layerId = "CC11FE7D-5FF0-4B40-9597-DFC61EB94F41";
name = "Light Condensed";
paths = (
{
closed = 1;
nodes = (
"233 752 OFFCURVE",
"218 752 CURVE SMOOTH",
"147 752 OFFCURVE",
"106 686 OFFCURVE",
"106 584 CURVE SMOOTH",
"106 416 OFFCURVE",
"120 132 OFFCURVE",
"124 -36 CURVE SMOOTH",
"126 -117 OFFCURVE",
"110 -176 OFFCURVE",
"55 -176 CURVE SMOOTH",
"44 -176 OFFCURVE",
"32 -173 OFFCURVE",
"19 -169 CURVE",
"10 -205 LINE",
"26 -211 OFFCURVE",
"40 -213 OFFCURVE",
"54 -213 CURVE SMOOTH",
"123 -213 OFFCURVE",
"166 -144 OFFCURVE",
"166 -43 CURVE SMOOTH",
"166 125 OFFCURVE",
"152 408 OFFCURVE",
"148 576 CURVE SMOOTH",
"146 657 OFFCURVE",
"163 715 OFFCURVE",
"218 715 CURVE SMOOTH",
"229 715 OFFCURVE",
"241 713 OFFCURVE",
"255 708 CURVE",
"265 744 LINE",
"248 750 OFFCURVE"
);
}
);
width = 285;
}
);
unicode = 222B;
userData = {
com.schriftgestaltung.Glyphs.ColorIndex = 1;
public.markColor = "0.99,0.62,0.11,1";
};
},
{
color = 1;
glyphname = lessequal;
layers = (
{
layerId = "CC11FE7D-5FF0-4B40-9597-DFC61EB94F41";
name = "Light Condensed";
paths = (
{
closed = 1;
nodes = (
"385 30 LINE",
"385 67 LINE",
"70 67 LINE",
"70 30 LINE"
);
},
{
closed = 1;
nodes = (
"65 318 LINE",
"365 113 LINE",
"387 146 LINE",
"121 323 LINE",
"121 314 LINE",
"388 498 LINE",
"367 527 LINE"
);
}
);
width = 453;
}
);
unicode = 2264;
userData = {
com.schriftgestaltung.Glyphs.ColorIndex = 1;
public.markColor = "0.99,0.62,0.11,1";
};
},
{
color = 1;
glyphname = logicalnot;
layers = (
{
layerId = "CC11FE7D-5FF0-4B40-9597-DFC61EB94F41";
name = "Light Condensed";
paths = (
{
closed = 1;
nodes = (
"429 239 LINE",
"429 276 LINE",
"35 276 LINE",
"35 239 LINE"
);
},
{
closed = 1;
nodes = (
"429 117 LINE",
"429 276 LINE",
"388 276 LINE",
"388 117 LINE"
);
}
);
width = 474;
}
);
unicode = 00AC;
userData = {
com.schriftgestaltung.Glyphs.ColorIndex = 1;
public.markColor = "0.99,0.62,0.11,1";
};
},
{
color = 1;
glyphname = minus;
layers = (
{
layerId = "CC11FE7D-5FF0-4B40-9597-DFC61EB94F41";
name = "Light Condensed";
paths = (
{
closed = 1;
nodes = (
"70 239 LINE",
"449 239 LINE",
"449 276 LINE",
"70 276 LINE"
);
}
);
width = 519;
}
);
unicode = 2212;
userData = {
com.schriftgestaltung.Glyphs.ColorIndex = 1;
public.markColor = "0.99,0.62,0.11,1";
};
},
{
color = 1;
glyphname = multiply;
layers = (
{
layerId = "CC11FE7D-5FF0-4B40-9597-DFC61EB94F41";
name = "Light Condensed";
paths = (
{
closed = 1;
nodes = (
"65 386 LINE",
"347 104 LINE",
"374 131 LINE",
"92 413 LINE"
);
},
{
closed = 1;
nodes = (
"348 412 LINE",
"66 130 LINE",
"92 104 LINE",
"374 386 LINE"
);
}
);
width = 439;
}
);
unicode = 00D7;
userData = {
com.schriftgestaltung.Glyphs.ColorIndex = 1;
public.markColor = "0.99,0.62,0.11,1";
};
},
{
color = 1;
glyphname = notequal;
layers = (
{
components = (
{
name = equal;
}
);
layerId = "CC11FE7D-5FF0-4B40-9597-DFC61EB94F41";
name = "Light Condensed";
paths = (
{
closed = 1;
nodes = (
"328 460 LINE",
"180 50 LINE",
"219 50 LINE",
"365 460 LINE"
);
}
);
width = 544;
}
);
unicode = 2260;
userData = {
com.schriftgestaltung.Glyphs.ColorIndex = 1;
public.markColor = "0.99,0.62,0.11,1";
};
},
{
color = 1;
glyphname = partialdiff;
layers = (
{
layerId = "CC11FE7D-5FF0-4B40-9597-DFC61EB94F41";
name = "Light Condensed";
paths = (
{
closed = 1;
nodes = (
"397 -7 OFFCURVE",
"475 137 OFFCURVE",
"475 312 CURVE SMOOTH",
"475 481 OFFCURVE",
"408 632 OFFCURVE",
"246 698 CURVE",
"230 663 LINE",
"352 617 OFFCURVE",
"430 497 OFFCURVE",
"430 344 CURVE SMOOTH",
"430 327 OFFCURVE",
"429 310 OFFCURVE",
"428 293 CURVE",
"440 294 LINE",
"408 386 OFFCURVE",
"341 427 OFFCURVE",
"274 427 CURVE SMOOTH",
"140 427 OFFCURVE",
"65 313 OFFCURVE",
"65 198 CURVE SMOOTH",
"65 72 OFFCURVE",
"149 -7 OFFCURVE",
"251 -7 CURVE SMOOTH"
);
},
{
closed = 1;
nodes = (
"180 29 OFFCURVE",
"109 84 OFFCURVE",
"109 201 CURVE SMOOTH",
"109 334 OFFCURVE",
"194 391 OFFCURVE",
"271 391 CURVE SMOOTH",
"344 391 OFFCURVE",
"418 332 OFFCURVE",
"418 222 CURVE SMOOTH",
"418 91 OFFCURVE",
"331 29 OFFCURVE",
"252 29 CURVE SMOOTH"
);
}
);
width = 535;
}
);
unicode = 2202;
userData = {
com.schriftgestaltung.Glyphs.ColorIndex = 1;
public.markColor = "0.99,0.62,0.11,1";
};
},
{
color = 1;
glyphname = percent;
layers = (
{
components = (
{
name = fraction;
transform = "{1, 0, 0, 1, 135, 0}";
}
);
layerId = "CC11FE7D-5FF0-4B40-9597-DFC61EB94F41";
name = "Light Condensed";
paths = (
{
closed = 1;
nodes = (
"304 441 OFFCURVE",
"256 378 OFFCURVE",
"187 378 CURVE SMOOTH",
"114 378 OFFCURVE",
"69 441 OFFCURVE",
"69 536 CURVE SMOOTH",
"69 636 OFFCURVE",
"112 691 OFFCURVE",
"188 691 CURVE SMOOTH",
"262 691 OFFCURVE",
"304 636 OFFCURVE",
"304 535 CURVE SMOOTH"
);
},
{
closed = 1;
nodes = (
"343 656 OFFCURVE",
"284 725 OFFCURVE",
"188 725 CURVE SMOOTH",
"92 725 OFFCURVE",
"30 653 OFFCURVE",
"30 535 CURVE SMOOTH",
"30 421 OFFCURVE",
"93 346 OFFCURVE",
"186 346 CURVE SMOOTH",
"276 346 OFFCURVE",
"343 423 OFFCURVE",
"343 535 CURVE SMOOTH"
);
},
{
closed = 1;
nodes = (
"716 88 OFFCURVE",
"668 25 OFFCURVE",
"599 25 CURVE SMOOTH",
"526 25 OFFCURVE",
"481 88 OFFCURVE",
"481 183 CURVE SMOOTH",
"481 283 OFFCURVE",
"524 340 OFFCURVE",
"600 340 CURVE SMOOTH",
"674 340 OFFCURVE",
"716 283 OFFCURVE",
"716 182 CURVE SMOOTH"
);
},
{
closed = 1;
nodes = (
"755 303 OFFCURVE",
"696 372 OFFCURVE",
"600 372 CURVE SMOOTH",
"504 372 OFFCURVE",
"442 300 OFFCURVE",
"442 182 CURVE SMOOTH",
"442 68 OFFCURVE",
"505 -7 OFFCURVE",
"598 -7 CURVE SMOOTH",
"688 -7 OFFCURVE",
"755 70 OFFCURVE",
"755 182 CURVE SMOOTH"
);
}
);
width = 785;
}
);
unicode = 0025;
userData = {
com.schriftgestaltung.Glyphs.ColorIndex = 1;
public.markColor = "0.99,0.62,0.11,1";
};
},
{
color = 1;
glyphname = perthousand;
layers = (
{
components = (
{
name = percent;
}
);
layerId = "CC11FE7D-5FF0-4B40-9597-DFC61EB94F41";
name = "Light Condensed";
paths = (
{
closed = 1;
nodes = (
"1092 89 OFFCURVE",
"1044 26 OFFCURVE",
"975 26 CURVE SMOOTH",
"902 26 OFFCURVE",
"857 89 OFFCURVE",
"857 184 CURVE SMOOTH",
"857 284 OFFCURVE",
"900 341 OFFCURVE",
"976 341 CURVE SMOOTH",
"1050 341 OFFCURVE",
"1092 284 OFFCURVE",
"1092 183 CURVE SMOOTH"
);
},
{
closed = 1;
nodes = (
"1131 304 OFFCURVE",
"1072 373 OFFCURVE",
"976 373 CURVE SMOOTH",
"880 373 OFFCURVE",
"818 301 OFFCURVE",
"818 183 CURVE SMOOTH",
"818 69 OFFCURVE",
"881 -6 OFFCURVE",
"974 -6 CURVE SMOOTH",
"1064 -6 OFFCURVE",
"1131 71 OFFCURVE",
"1131 183 CURVE SMOOTH"
);
}
);
width = 1156;
}
);
unicode = 2030;
userData = {
com.schriftgestaltung.Glyphs.ColorIndex = 1;
public.markColor = "0.99,0.62,0.11,1";
};
},
{
color = 1;
glyphname = plus;
layers = (
{
layerId = "CC11FE7D-5FF0-4B40-9597-DFC61EB94F41";
name = "Light Condensed";
paths = (
{
closed = 1;
nodes = (
"248 65 LINE",
"248 450 LINE",
"207 450 LINE",
"207 65 LINE"
);
},
{
closed = 1;
nodes = (
"424 239 LINE",
"424 276 LINE",
"30 276 LINE",
"30 239 LINE"
);
}
);
width = 454;
}
);
unicode = 002B;
userData = {
com.schriftgestaltung.Glyphs.ColorIndex = 1;
public.markColor = "0.99,0.62,0.11,1";
};
},
{
color = 1;
glyphname = plusminus;
layers = (
{
layerId = "CC11FE7D-5FF0-4B40-9597-DFC61EB94F41";
name = "Light Condensed";
paths = (
{
closed = 1;
nodes = (
"444 30 LINE",
"444 67 LINE",
"40 67 LINE",
"40 30 LINE"
);
},
{
closed = 1;
nodes = (
"263 132 LINE",
"263 487 LINE",
"222 487 LINE",
"222 132 LINE"
);
},
{
closed = 1;
nodes = (
"444 291 LINE",
"444 328 LINE",
"40 328 LINE",
"40 291 LINE"
);
}
);
width = 484;
}
);
unicode = 00B1;
userData = {
com.schriftgestaltung.Glyphs.ColorIndex = 1;
public.markColor = "0.99,0.62,0.11,1";
};
},
{
color = 1;
glyphname = product;
layers = (
{
layerId = "CC11FE7D-5FF0-4B40-9597-DFC61EB94F41";
name = "Light Condensed";
paths = (
{
closed = 1;
nodes = (
"467 642 LINE",
"577 642 LINE",
"577 679 LINE",
"35 679 LINE",
"35 642 LINE",
"147 642 LINE",
"135 654 LINE",
"135 -175 LINE",
"177 -175 LINE",
"177 654 LINE",
"166 642 LINE",
"445 642 LINE",
"435 654 LINE",
"435 -175 LINE",
"477 -175 LINE",
"477 654 LINE"
);
}
);
width = 612;
}
);
unicode = 220F;
userData = {
com.schriftgestaltung.Glyphs.ColorIndex = 1;
public.markColor = "0.99,0.62,0.11,1";
};
},
{
color = 1;
glyphname = radical;
layers = (
{
layerId = "CC11FE7D-5FF0-4B40-9597-DFC61EB94F41";
name = "Light Condensed";
paths = (
{
closed = 1;
nodes = (
"268 -120 LINE",
"482 710 LINE",
"475 704 LINE",
"624 704 LINE",
"624 739 LINE",
"449 739 LINE",
"250 -69 LINE",
"261 -69 LINE",
"98 377 LINE",
"0 339 LINE",
"12 307 LINE",
"79 332 LINE",
"71 337 LINE",
"238 -120 LINE"
);
}
);
width = 624;
}
);
unicode = 221A;
userData = {
com.schriftgestaltung.Glyphs.ColorIndex = 1;
public.markColor = "0.99,0.62,0.11,1";
};
},
{
color = 1;
glyphname = summation;
layers = (
{
layerId = "CC11FE7D-5FF0-4B40-9597-DFC61EB94F41";
name = "Light Condensed";
paths = (
{
closed = 1;
nodes = (
"27 -175 LINE",
"424 -175 LINE",
"424 -138 LINE",
"72 -138 LINE",
"74 -146 LINE",
"354 259 LINE",
"99 649 LINE",
"97 641 LINE",
"442 641 LINE",
"442 678 LINE",
"49 678 LINE",
"49 649 LINE",
"315 246 LINE",
"313 266 LINE",
"27 -147 LINE"
);
}
);
width = 482;
}
);
unicode = 2211;
userData = {
com.schriftgestaltung.Glyphs.ColorIndex = 1;
public.markColor = "0.99,0.62,0.11,1";
};
},
{
color = 1;
glyphname = uni00B5;
layers = (
{
layerId = "CC11FE7D-5FF0-4B40-9597-DFC61EB94F41";
name = "Light Condensed";
paths = (
{
closed = 1;
nodes = (
"125 -205 LINE",
"123 60 LINE",
"112 60 LINE",
"136 18 OFFCURVE",
"174 -7 OFFCURVE",
"233 -7 CURVE SMOOTH",
"298 -7 OFFCURVE",
"354 31 OFFCURVE",
"382 107 CURVE",
"373 107 LINE",
"373 27 OFFCURVE",
"393 -7 OFFCURVE",
"456 -7 CURVE SMOOTH",
"464 -7 OFFCURVE",
"472 -6 OFFCURVE",
"482 -5 CURVE",
"480 26 LINE",
"474 25 OFFCURVE",
"469 25 OFFCURVE",
"464 25 CURVE SMOOTH",
"423 25 OFFCURVE",
"413 50 OFFCURVE",
"413 103 CURVE",
"413 500 LINE",
"373 500 LINE",
"373 206 LINE SMOOTH",
"373 89 OFFCURVE",
"307 25 OFFCURVE",
"235 25 CURVE SMOOTH",
"169 25 OFFCURVE",
"125 72 OFFCURVE",
"125 159 CURVE SMOOTH",
"125 500 LINE",
"85 500 LINE",
"85 -205 LINE"
);
}
);
width = 502;
}
);
unicode = 00B5;
userData = {
com.schriftgestaltung.Glyphs.ColorIndex = 1;
public.markColor = "0.99,0.62,0.11,1";
};
},
{
color = 1;
glyphname = uni2126;
layers = (
{
layerId = "CC11FE7D-5FF0-4B40-9597-DFC61EB94F41";
name = "Light Condensed";
paths = (
{
closed = 1;
nodes = (
"246 0 LINE",
"246 41 LINE",
"158 90 OFFCURVE",
"104 198 OFFCURVE",
"104 339 CURVE SMOOTH",
"104 512 OFFCURVE",
"178 643 OFFCURVE",
"317 643 CURVE SMOOTH",
"457 643 OFFCURVE",
"524 514 OFFCURVE",
"524 339 CURVE SMOOTH",
"524 198 OFFCURVE",
"467 89 OFFCURVE",
"379 40 CURVE",
"382 0 LINE",
"573 0 LINE",
"573 37 LINE",
"428 37 LINE",
"428 33 LINE",
"507 87 OFFCURVE",
"570 207 OFFCURVE",
"570 339 CURVE SMOOTH",
"570 534 OFFCURVE",
"492 682 OFFCURVE",
"318 682 CURVE SMOOTH",
"153 682 OFFCURVE",
"58 532 OFFCURVE",
"58 339 CURVE SMOOTH",
"58 205 OFFCURVE",
"115 89 OFFCURVE",
"196 32 CURVE",
"196 37 LINE",
"55 37 LINE",
"55 0 LINE"
);
}
);
width = 628;
}
);
unicode = 2126;
userData = {
com.schriftgestaltung.Glyphs.ColorIndex = 1;
public.markColor = "0.99,0.62,0.11,1";
};
},
{
color = 1;
glyphname = uni2206;
layers = (
{
layerId = "CC11FE7D-5FF0-4B40-9597-DFC61EB94F41";
name = "Light Condensed";
paths = (
{
closed = 1;
nodes = (
"563 0 LINE",
"316 678 LINE",
"258 678 LINE",
"10 0 LINE"
);
},
{
closed = 1;
nodes = (
"287 649 LINE",
"283 649 LINE",
"504 29 LINE",
"509 35 LINE",
"59 35 LINE",
"65 27 LINE"
);
}
);
width = 573;
}
);
unicode = 2206;
userData = {
com.schriftgestaltung.Glyphs.ColorIndex = 1;
public.markColor = "0.99,0.62,0.11,1";
};
},
{
color = 1;
glyphname = lozenge;
layers = (
{
layerId = "CC11FE7D-5FF0-4B40-9597-DFC61EB94F41";
name = "Light Condensed";
paths = (
{
closed = 1;
nodes = (
"269 -3 LINE",
"476 338 LINE",
"261 678 LINE",
"235 678 LINE",
"27 341 LINE",
"240 -3 LINE"
);
},
{
closed = 1;
nodes = (
"70 350 LINE",
"70 340 LINE",
"249 632 LINE",
"245 632 LINE",
"433 329 LINE",
"433 336 LINE",
"255 43 LINE",
"261 43 LINE"
);
}
);
width = 503;
}
);
unicode = 25CA;
userData = {
com.schriftgestaltung.Glyphs.ColorIndex = 1;
public.markColor = "0.99,0.62,0.11,1";
};
},
{
color = 1;
glyphname = bar;
layers = (
{
layerId = "CC11FE7D-5FF0-4B40-9597-DFC61EB94F41";
name = "Light Condensed";
paths = (
{
closed = 1;
nodes = (
"142 725 LINE",
"140 -70 LINE",
"177 -70 LINE",
"177 725 LINE"
);
}
);
width = 317;
}
);
unicode = 007C;
userData = {
com.schriftgestaltung.Glyphs.ColorIndex = 1;
public.markColor = "0.99,0.62,0.11,1";
};
},
{
color = 1;
glyphname = brokenbar;
layers = (
{
layerId = "CC11FE7D-5FF0-4B40-9597-DFC61EB94F41";
name = "Light Condensed";
paths = (
{
closed = 1;
nodes = (
"142 231 LINE",
"140 -70 LINE",
"177 -70 LINE",
"177 231 LINE"
);
},
{
closed = 1;
nodes = (
"142 725 LINE",
"140 425 LINE",
"177 425 LINE",
"177 725 LINE"
);
}
);
width = 317;
}
);
unicode = 00A6;
userData = {
com.schriftgestaltung.Glyphs.ColorIndex = 1;
public.markColor = "0.99,0.62,0.11,1";
};
},
{
color = 1;
glyphname = at;
layers = (
{
layerId = "CC11FE7D-5FF0-4B40-9597-DFC61EB94F41";
name = "Light Condensed";
paths = (
{
closed = 1;
nodes = (
"449 -49 OFFCURVE",
"514 -37 OFFCURVE",
"563 -16 CURVE",
"549 14 LINE",
"502 -5 OFFCURVE",
"445 -15 OFFCURVE",
"393 -15 CURVE SMOOTH",
"207 -16 OFFCURVE",
"106 106 OFFCURVE",
"106 325 CURVE SMOOTH",
"107 513 OFFCURVE",
"230 645 OFFCURVE",
"399 644 CURVE SMOOTH",
"558 644 OFFCURVE",
"668 530 OFFCURVE",
"668 362 CURVE SMOOTH",
"668 226 OFFCURVE",
"636 139 OFFCURVE",
"548 139 CURVE SMOOTH",
"513 139 OFFCURVE",
"499 155 OFFCURVE",
"499 197 CURVE SMOOTH",
"499 407 LINE SMOOTH",
"499 485 OFFCURVE",
"444 521 OFFCURVE",
"378 521 CURVE SMOOTH",
"337 521 OFFCURVE",
"287 509 OFFCURVE",
"248 484 CURVE",
"264 457 LINE",
"299 479 OFFCURVE",
"341 490 OFFCURVE",
"377 490 CURVE SMOOTH",
"426 490 OFFCURVE",
"461 464 OFFCURVE",
"461 405 CURVE SMOOTH",
"461 240 LINE SMOOTH",
"461 175 OFFCURVE",
"406 138 OFFCURVE",
"356 138 CURVE SMOOTH",
"314 138 OFFCURVE",
"276 163 OFFCURVE",
"276 227 CURVE SMOOTH",
"276 274 OFFCURVE",
"301 315 OFFCURVE",
"398 315 CURVE SMOOTH",
"424 315 OFFCURVE",
"452 314 OFFCURVE",
"475 310 CURVE",
"475 339 LINE",
"453 342 OFFCURVE",
"426 344 OFFCURVE",
"399 344 CURVE SMOOTH",
"292 344 OFFCURVE",
"234 297 OFFCURVE",
"234 225 CURVE SMOOTH",
"234 148 OFFCURVE",
"289 107 OFFCURVE",
"351 107 CURVE SMOOTH",
"401 107 OFFCURVE",
"454 135 OFFCURVE",
"479 192 CURVE",
"461 195 LINE",
"461 137 OFFCURVE",
"483 107 OFFCURVE",
"544 107 CURVE SMOOTH",
"644 107 OFFCURVE",
"707 190 OFFCURVE",
"707 363 CURVE SMOOTH",
"707 549 OFFCURVE",
"582 677 OFFCURVE",
"400 677 CURVE SMOOTH",
"208 678 OFFCURVE",
"66 530 OFFCURVE",
"65 325 CURVE SMOOTH",
"65 85 OFFCURVE",
"183 -49 OFFCURVE",
"392 -48 CURVE SMOOTH"
);
}
);
width = 767;
}
);
unicode = 0040;
userData = {
com.schriftgestaltung.Glyphs.ColorIndex = 1;
public.markColor = "0.99,0.62,0.11,1";
};
},
{
color = 1;
glyphname = ampersand;
layers = (
{
layerId = "CC11FE7D-5FF0-4B40-9597-DFC61EB94F41";
name = "Light Condensed";
paths = (
{
closed = 1;
nodes = (
"398 -7 OFFCURVE",
"546 104 OFFCURVE",
"546 356 CURVE",
"505 356 LINE",
"505 124 OFFCURVE",
"383 30 OFFCURVE",
"273 30 CURVE SMOOTH",
"185 30 OFFCURVE",
"106 91 OFFCURVE",
"106 193 CURVE SMOOTH",
"106 359 OFFCURVE",
"385 423 OFFCURVE",
"385 605 CURVE SMOOTH",
"385 690 OFFCURVE",
"325 732 OFFCURVE",
"257 732 CURVE SMOOTH",
"187 732 OFFCURVE",
"126 689 OFFCURVE",
"126 604 CURVE SMOOTH",
"126 431 OFFCURVE",
"439 128 OFFCURVE",
"570 -2 CURVE",
"600 26 LINE",
"477 155 OFFCURVE",
"168 447 OFFCURVE",
"167 605 CURVE SMOOTH",
"168 665 OFFCURVE",
"208 697 OFFCURVE",
"258 697 CURVE SMOOTH",
"305 697 OFFCURVE",
"343 667 OFFCURVE",
"343 605 CURVE SMOOTH",
"343 441 OFFCURVE",
"64 376 OFFCURVE",
"64 193 CURVE SMOOTH",
"64 64 OFFCURVE",
"160 -7 OFFCURVE",
"266 -7 CURVE SMOOTH"
);
}
);
width = 650;
}
);
unicode = 0026;
userData = {
com.schriftgestaltung.Glyphs.ColorIndex = 1;
public.markColor = "0.99,0.62,0.11,1";
};
},
{
color = 1;
glyphname = paragraph;
layers = (
{
layerId = "CC11FE7D-5FF0-4B40-9597-DFC61EB94F41";
name = "Light Condensed";
paths = (
{
closed = 1;
nodes = (
"249 0 LINE",
"249 675 LINE",
"189 675 LINE SMOOTH",
"82 675 OFFCURVE",
"25 606 OFFCURVE",
"25 527 CURVE SMOOTH",
"25 434 OFFCURVE",
"77 381 OFFCURVE",
"215 381 CURVE",
"207 390 LINE",
"207 0 LINE"
);
},
{
closed = 1;
nodes = (
"349 0 LINE",
"349 675 LINE",
"307 675 LINE",
"307 0 LINE"
);
}
);
width = 434;
}
);
unicode = 00B6;
userData = {
com.schriftgestaltung.Glyphs.ColorIndex = 1;
public.markColor = "0.99,0.62,0.11,1";
};
},
{
color = 1;
glyphname = copyright;
layers = (
{
layerId = "CC11FE7D-5FF0-4B40-9597-DFC61EB94F41";
name = "Light Condensed";
paths = (
{
closed = 1;
nodes = (
"573 -1 OFFCURVE",
"714 150 OFFCURVE",
"714 347 CURVE SMOOTH",
"714 541 OFFCURVE",
"573 691 OFFCURVE",
"382 690 CURVE SMOOTH",
"190 690 OFFCURVE",
"47 541 OFFCURVE",
"47 346 CURVE SMOOTH",
"47 149 OFFCURVE",
"188 0 OFFCURVE",
"381 0 CURVE SMOOTH"
);
},
{
closed = 1;
nodes = (
"419 113 OFFCURVE",
"469 124 OFFCURVE",
"522 154 CURVE",
"508 184 LINE",
"463 159 OFFCURVE",
"422 148 OFFCURVE",
"389 148 CURVE SMOOTH",
"302 148 OFFCURVE",
"247 217 OFFCURVE",
"247 339 CURVE SMOOTH",
"247 464 OFFCURVE",
"297 542 OFFCURVE",
"382 542 CURVE SMOOTH",
"426 542 OFFCURVE",
"473 510 OFFCURVE",
"499 458 CURVE",
"531 479 LINE",
"496 543 OFFCURVE",
"440 577 OFFCURVE",
"385 577 CURVE SMOOTH",
"277 577 OFFCURVE",
"204 488 OFFCURVE",
"204 340 CURVE SMOOTH",
"204 196 OFFCURVE",
"274 113 OFFCURVE",
"381 113 CURVE SMOOTH"
);
},
{
closed = 1;
nodes = (
"213 34 OFFCURVE",
"89 169 OFFCURVE",
"89 347 CURVE SMOOTH",
"89 523 OFFCURVE",
"213 656 OFFCURVE",
"382 656 CURVE SMOOTH",
"548 657 OFFCURVE",
"671 521 OFFCURVE",
"672 346 CURVE SMOOTH",
"672 168 OFFCURVE",
"550 33 OFFCURVE",
"382 34 CURVE SMOOTH"
);
}
);
width = 757;
}
);
unicode = 00A9;
userData = {
com.schriftgestaltung.Glyphs.ColorIndex = 1;
public.markColor = "0.99,0.62,0.11,1";
};
},
{
color = 1;
glyphname = registered;
layers = (
{
guideLines = (
{
position = "{393, 574}";
},
{
position = "{393, 116}";
}
);
layerId = "CC11FE7D-5FF0-4B40-9597-DFC61EB94F41";
name = "Light Condensed";
paths = (
{
closed = 1;
nodes = (
"298 107 LINE",
"298 558 LINE",
"289 545 LINE",
"313 545 OFFCURVE",
"339 547 OFFCURVE",
"364 547 CURVE SMOOTH",
"452 547 OFFCURVE",
"485 514 OFFCURVE",
"485 450 CURVE SMOOTH",
"485 383 OFFCURVE",
"440 348 OFFCURVE",
"363 348 CURVE SMOOTH",
"283 348 LINE",
"283 317 LINE",
"369 317 LINE SMOOTH",
"473 317 OFFCURVE",
"525 374 OFFCURVE",
"525 454 CURVE SMOOTH",
"525 537 OFFCURVE",
"475 578 OFFCURVE",
"369 578 CURVE SMOOTH",
"337 578 OFFCURVE",
"293 578 OFFCURVE",
"260 576 CURVE",
"260 107 LINE"
);
},
{
closed = 1;
nodes = (
"478 132 LINE SMOOTH",
"487 114 OFFCURVE",
"500 102 OFFCURVE",
"522 102 CURVE SMOOTH",
"527 102 OFFCURVE",
"533 102 OFFCURVE",
"540 104 CURVE",
"538 128 LINE",
"537 128 OFFCURVE",
"534 128 OFFCURVE",
"533 128 CURVE SMOOTH",
"523 128 OFFCURVE",
"519 131 OFFCURVE",
"512 146 CURVE SMOOTH",
"416 336 LINE",
"377 332 LINE"
);
},
{
closed = 1;
nodes = (
"571 -1 OFFCURVE",
"712 150 OFFCURVE",
"712 347 CURVE SMOOTH",
"712 541 OFFCURVE",
"571 691 OFFCURVE",
"380 690 CURVE SMOOTH",
"188 690 OFFCURVE",
"45 541 OFFCURVE",
"45 346 CURVE SMOOTH",
"45 149 OFFCURVE",
"186 0 OFFCURVE",
"379 0 CURVE SMOOTH"
);
},
{
closed = 1;
nodes = (
"211 34 OFFCURVE",
"87 169 OFFCURVE",
"87 347 CURVE SMOOTH",
"87 523 OFFCURVE",
"211 656 OFFCURVE",
"380 656 CURVE SMOOTH",
"546 657 OFFCURVE",
"669 521 OFFCURVE",
"670 346 CURVE SMOOTH",
"670 168 OFFCURVE",
"548 33 OFFCURVE",
"380 34 CURVE SMOOTH"
);
}
);
width = 759;
}
);
unicode = 00AE;
userData = {
com.schriftgestaltung.Glyphs.ColorIndex = 1;
com.typemytype.robofont.guides = (
{
angle = 0;
isGlobal = 0;
x = 393;
y = 574;
},
{
angle = 0;
isGlobal = 0;
x = 393;
y = 116;
}
);
public.markColor = "0.99,0.62,0.11,1";
};
},
{
color = 1;
glyphname = section;
layers = (
{
layerId = "CC11FE7D-5FF0-4B40-9597-DFC61EB94F41";
name = "Light Condensed";
paths = (
{
closed = 1;
nodes = (
"286 124 LINE",
"316 146 OFFCURVE",
"336 186 OFFCURVE",
"336 232 CURVE SMOOTH",
"336 387 OFFCURVE",
"109 436 OFFCURVE",
"109 560 CURVE SMOOTH",
"109 618 OFFCURVE",
"156 647 OFFCURVE",
"205 647 CURVE SMOOTH",
"232 647 OFFCURVE",
"261 639 OFFCURVE",
"284 620 CURVE",
"308 646 LINE",
"279 671 OFFCURVE",
"243 682 OFFCURVE",
"208 682 CURVE SMOOTH",
"137 682 OFFCURVE",
"69 637 OFFCURVE",
"69 560 CURVE SMOOTH",
"69 407 OFFCURVE",
"296 360 OFFCURVE",
"296 231 CURVE SMOOTH",
"296 200 OFFCURVE",
"287 171 OFFCURVE",
"268 154 CURVE"
);
},
{
closed = 1;
nodes = (
"68 -54 LINE",
"104 -71 OFFCURVE",
"140 -80 OFFCURVE",
"173 -80 CURVE SMOOTH",
"253 -80 OFFCURVE",
"317 -32 OFFCURVE",
"317 54 CURVE SMOOTH",
"317 209 OFFCURVE",
"90 248 OFFCURVE",
"90 372 CURVE SMOOTH",
"90 409 OFFCURVE",
"110 439 OFFCURVE",
"137 452 CURVE",
"117 478 LINE",
"78 459 OFFCURVE",
"50 423 OFFCURVE",
"50 371 CURVE SMOOTH",
"50 219 OFFCURVE",
"277 182 OFFCURVE",
"277 54 CURVE SMOOTH",
"277 -8 OFFCURVE",
"231 -45 OFFCURVE",
"176 -45 CURVE SMOOTH",
"147 -45 OFFCURVE",
"116 -35 OFFCURVE",
"84 -19 CURVE"
);
}
);
width = 386;
}
);
unicode = 00A7;
userData = {
com.schriftgestaltung.Glyphs.ColorIndex = 1;
public.markColor = "0.99,0.62,0.11,1";
};
},
{
color = 1;
glyphname = trademark;
layers = (
{
layerId = "CC11FE7D-5FF0-4B40-9597-DFC61EB94F41";
name = "Light Condensed";
paths = (
{
closed = 1;
nodes = (
"20 676 LINE",
"20 648 LINE",
"132 648 LINE",
"125 655 LINE",
"125 247 LINE",
"161 247 LINE",
"161 655 LINE",
"154 648 LINE",
"266 648 LINE",
"266 676 LINE"
);
},
{
closed = 1;
nodes = (
"299 247 LINE",
"336 515 LINE SMOOTH",
"341 552 OFFCURVE",
"347 595 OFFCURVE",
"352 631 CURVE",
"341 631 LINE",
"352 595 OFFCURVE",
"363 553 OFFCURVE",
"375 515 CURVE SMOOTH",
"455 262 LINE",
"484 263 LINE",
"570 515 LINE SMOOTH",
"583 552 OFFCURVE",
"594 593 OFFCURVE",
"606 629 CURVE",
"595 629 LINE",
"599 593 OFFCURVE",
"604 552 OFFCURVE",
"608 515 CURVE SMOOTH",
"641 247 LINE",
"675 247 LINE",
"622 675 LINE",
"591 675 LINE",
"492 381 LINE SMOOTH",
"483 354 OFFCURVE",
"476 324 OFFCURVE",
"467 298 CURVE",
"477 298 LINE",
"469 323 OFFCURVE",
"462 354 OFFCURVE",
"454 381 CURVE SMOOTH",
"361 675 LINE",
"329 675 LINE",
"267 247 LINE"
);
}
);
width = 734;
}
);
unicode = 2122;
userData = {
com.schriftgestaltung.Glyphs.ColorIndex = 1;
public.markColor = "0.99,0.62,0.11,1";
};
},
{
color = 1;
glyphname = degree;
layers = (
{
layerId = "CC11FE7D-5FF0-4B40-9597-DFC61EB94F41";
name = "Light Condensed";
paths = (
{
closed = 1;
nodes = (
"285 694 OFFCURVE",
"229 732 OFFCURVE",
"174 732 CURVE SMOOTH",
"117 732 OFFCURVE",
"60 693 OFFCURVE",
"60 615 CURVE SMOOTH",
"60 539 OFFCURVE",
"115 502 OFFCURVE",
"170 502 CURVE SMOOTH",
"227 502 OFFCURVE",
"285 541 OFFCURVE",
"285 617 CURVE SMOOTH"
);
},
{
closed = 1;
nodes = (
"250 561 OFFCURVE",
"210 535 OFFCURVE",
"172 535 CURVE SMOOTH",
"135 535 OFFCURVE",
"95 561 OFFCURVE",
"95 619 CURVE SMOOTH",
"95 674 OFFCURVE",
"134 699 OFFCURVE",
"172 699 CURVE SMOOTH",
"210 699 OFFCURVE",
"250 673 OFFCURVE",
"250 614 CURVE SMOOTH"
);
}
);
width = 345;
}
);
unicode = 00B0;
userData = {
com.schriftgestaltung.Glyphs.ColorIndex = 1;
public.markColor = "0.99,0.62,0.11,1";
};
},
{
color = 1;
glyphname = estimated;
layers = (
{
layerId = "CC11FE7D-5FF0-4B40-9597-DFC61EB94F41";
name = "Light Condensed";
paths = (
{
closed = 1;
nodes = (
"295 25 OFFCURVE",
"220 54 OFFCURVE",
"163 119 CURVE",
"163 356 LINE",
"683 356 LINE",
"683 578 OFFCURVE",
"529 688 OFFCURVE",
"375 688 CURVE SMOOTH",
"158 688 OFFCURVE",
"50 511 OFFCURVE",
"50 337 CURVE SMOOTH",
"50 111 OFFCURVE",
"201 -10 OFFCURVE",
"367 -10 CURVE SMOOTH",
"461 -10 OFFCURVE",
"559 26 OFFCURVE",
"638 108 CURVE",
"614 133 LINE",
"551 63 OFFCURVE",
"462 25 OFFCURVE",
"373 25 CURVE SMOOTH"
);
},
{
closed = 1;
nodes = (
"446 653 OFFCURVE",
"518 628 OFFCURVE",
"572 573 CURVE",
"572 391 LINE",
"163 391 LINE",
"163 560 LINE",
"216 623 OFFCURVE",
"295 653 OFFCURVE",
"375 653 CURVE SMOOTH"
);
}
);
width = 723;
}
);
unicode = 212E;
userData = {
com.schriftgestaltung.Glyphs.ColorIndex = 1;
public.markColor = "0.99,0.62,0.11,1";
};
},
{
color = 1;
glyphname = uni2113;
layers = (
{
layerId = "CC11FE7D-5FF0-4B40-9597-DFC61EB94F41";
name = "Light Condensed";
paths = (
{
closed = 1;
nodes = (
"165 255 OFFCURVE",
"274 467 OFFCURVE",
"274 620 CURVE SMOOTH",
"274 700 OFFCURVE",
"244 756 OFFCURVE",
"178 756 CURVE SMOOTH",
"110 756 OFFCURVE",
"83 693 OFFCURVE",
"83 592 CURVE SMOOTH",
"85 120 LINE SMOOTH",
"85 37 OFFCURVE",
"132 -7 OFFCURVE",
"189 -7 CURVE SMOOTH",
"225 -7 OFFCURVE",
"265 10 OFFCURVE",
"299 46 CURVE",
"277 71 LINE",
"249 42 OFFCURVE",
"219 28 OFFCURVE",
"193 28 CURVE SMOOTH",
"154 28 OFFCURVE",
"125 57 OFFCURVE",
"125 121 CURVE SMOOTH",
"123 592 LINE SMOOTH",
"123 672 OFFCURVE",
"137 721 OFFCURVE",
"178 721 CURVE SMOOTH",
"221 721 OFFCURVE",
"236 679 OFFCURVE",
"236 616 CURVE SMOOTH",
"236 480 OFFCURVE",
"140 279 OFFCURVE",
"10 166 CURVE",
"34 138 LINE"
);
}
);
width = 302;
}
);
unicode = 2113;
userData = {
com.schriftgestaltung.Glyphs.ColorIndex = 1;
public.markColor = "0.99,0.62,0.11,1";
};
},
{
color = 1;
glyphname = asciicircum;
layers = (
{
layerId = "CC11FE7D-5FF0-4B40-9597-DFC61EB94F41";
name = "Light Condensed";
paths = (
{
closed = 1;
nodes = (
"255 682 LINE",
"60 396 LINE",
"88 378 LINE",
"266 640 LINE",
"243 640 LINE",
"420 379 LINE",
"449 399 LINE"
);
}
);
width = 509;
}
);
unicode = 005E;
userData = {
com.schriftgestaltung.Glyphs.ColorIndex = 1;
public.markColor = "0.99,0.62,0.11,1";
};
},
{
color = 1;
glyphname = dagger;
layers = (
{
layerId = "CC11FE7D-5FF0-4B40-9597-DFC61EB94F41";
name = "Light Condensed";
paths = (
{
closed = 1;
nodes = (
"242 -55 LINE",
"246 273 LINE",
"243 469 LINE",
"237 463 LINE",
"418 461 LINE",
"418 498 LINE",
"238 496 LINE",
"243 491 LINE",
"246 696 LINE",
"202 696 LINE",
"205 491 LINE",
"211 496 LINE",
"30 498 LINE",
"30 461 LINE",
"211 463 LINE",
"205 469 LINE",
"202 273 LINE",
"206 -55 LINE"
);
}
);
width = 448;
}
);
unicode = 2020;
userData = {
com.schriftgestaltung.Glyphs.ColorIndex = 1;
public.markColor = "0.99,0.62,0.11,1";
};
},
{
color = 1;
glyphname = daggerdbl;
layers = (
{
layerId = "CC11FE7D-5FF0-4B40-9597-DFC61EB94F41";
name = "Light Condensed";
paths = (
{
closed = 1;
nodes = (
"205 172 LINE",
"211 178 LINE",
"30 180 LINE",
"30 143 LINE",
"211 145 LINE",
"205 150 LINE",
"202 -55 LINE",
"246 -55 LINE",
"243 150 LINE",
"238 145 LINE",
"418 143 LINE",
"418 180 LINE",
"237 178 LINE",
"243 172 LINE",
"246 323 LINE",
"243 469 LINE",
"237 463 LINE",
"418 461 LINE",
"418 498 LINE",
"238 496 LINE",
"243 491 LINE",
"246 696 LINE",
"202 696 LINE",
"205 491 LINE",
"211 496 LINE",
"30 498 LINE",
"30 461 LINE",
"211 463 LINE",
"205 469 LINE",
"202 323 LINE"
);
}
);
width = 448;
}
);
unicode = 2021;
userData = {
com.schriftgestaltung.Glyphs.ColorIndex = 1;
public.markColor = "0.99,0.62,0.11,1";
};
},
{
color = 3;
glyphname = acute;
layers = (
{
anchors = (
{
name = _top;
position = "{154, 500}";
}
);
layerId = "CC11FE7D-5FF0-4B40-9597-DFC61EB94F41";
name = "Light Condensed";
paths = (
{
closed = 1;
nodes = (
"265 678 LINE",
"235 714 LINE",
"99 608 LINE",
"120 580 LINE"
);
}
);
width = 335;
}
);
unicode = 00B4;
userData = {
com.schriftgestaltung.Glyphs.ColorIndex = 3;
public.markColor = "0.97,1,0,1";
};
},
{
color = 3;
glyphname = breve;
layers = (
{
anchors = (
{
name = _top;
position = "{187, 500}";
}
);
guideLines = (
{
position = "{50, 681}";
},
{
position = "{50, 607}";
}
);
layerId = "CC11FE7D-5FF0-4B40-9597-DFC61EB94F41";
name = "Light Condensed";
paths = (
{
closed = 1;
nodes = (
"79 696 LINE",
"80 628 OFFCURVE",
"132 594 OFFCURVE",
"186 594 CURVE SMOOTH",
"239 594 OFFCURVE",
"293 628 OFFCURVE",
"297 696 CURVE",
"265 698 LINE",
"259 651 OFFCURVE",
"223 628 OFFCURVE",
"188 628 CURVE SMOOTH",
"152 628 OFFCURVE",
"116 652 OFFCURVE",
"112 700 CURVE"
);
}
);
width = 377;
}
);
unicode = 02D8;
userData = {
com.schriftgestaltung.Glyphs.ColorIndex = 3;
com.typemytype.robofont.guides = (
{
angle = 0;
isGlobal = 0;
x = 50;
y = 681;
},
{
angle = 0;
isGlobal = 0;
x = 50;
y = 607;
}
);
public.markColor = "0.97,1,0,1";
};
},
{
color = 3;
glyphname = caron;
layers = (
{
anchors = (
{
name = _top;
position = "{223, 500}";
}
);
guideLines = (
{
position = "{104, 585}";
}
);
layerId = "CC11FE7D-5FF0-4B40-9597-DFC61EB94F41";
name = "Light Condensed";
paths = (
{
closed = 1;
nodes = (
"221 575 LINE",
"345 682 LINE",
"324 708 LINE",
"220 626 LINE",
"228 626 LINE",
"122 709 LINE",
"100 680 LINE"
);
}
);
width = 445;
}
);
unicode = 02C7;
userData = {
com.schriftgestaltung.Glyphs.ColorIndex = 3;
com.typemytype.robofont.guides = (
{
angle = 0;
isGlobal = 0;
x = 104;
y = 585;
}
);
public.markColor = "0.97,1,0,1";
};
},
{
color = 3;
glyphname = cedilla;
layers = (
{
anchors = (
{
name = _bottom;
position = "{166, 0}";
}
);
guideLines = (
{
position = "{379, -188}";
}
);
layerId = "CC11FE7D-5FF0-4B40-9597-DFC61EB94F41";
name = "Light Condensed";
paths = (
{
closed = 1;
nodes = (
"129 -188 OFFCURVE",
"141 -188 CURVE SMOOTH",
"213 -188 OFFCURVE",
"250 -143 OFFCURVE",
"250 -96 CURVE SMOOTH",
"250 -54 OFFCURVE",
"221 -11 OFFCURVE",
"160 5 CURVE",
"119 5 LINE",
"186 -16 OFFCURVE",
"217 -57 OFFCURVE",
"217 -92 CURVE SMOOTH",
"217 -125 OFFCURVE",
"188 -154 OFFCURVE",
"135 -154 CURVE SMOOTH",
"125 -154 OFFCURVE",
"116 -153 OFFCURVE",
"105 -151 CURVE",
"103 -184 LINE",
"117 -187 OFFCURVE"
);
}
);
width = 349;
}
);
unicode = 00B8;
userData = {
com.schriftgestaltung.Glyphs.ColorIndex = 3;
com.typemytype.robofont.guides = (
{
angle = 0;
isGlobal = 0;
x = 379;
y = -188;
}
);
public.markColor = "0.97,1,0,1";
};
},
{
color = 3;
glyphname = circumflex;
layers = (
{
anchors = (
{
name = _top;
position = "{219, 500}";
}
);
layerId = "CC11FE7D-5FF0-4B40-9597-DFC61EB94F41";
name = "Light Condensed";
paths = (
{
closed = 1;
nodes = (
"224 709 LINE",
"100 602 LINE",
"121 576 LINE",
"225 658 LINE",
"217 658 LINE",
"323 575 LINE",
"345 604 LINE"
);
}
);
width = 445;
}
);
unicode = 02C6;
userData = {
com.schriftgestaltung.Glyphs.ColorIndex = 3;
public.markColor = "0.97,1,0,1";
};
},
{
color = 3;
glyphname = dieresis;
layers = (
{
anchors = (
{
name = _top;
position = "{186, 500}";
}
);
guideLines = (
{
position = "{275, 645}";
}
);
layerId = "CC11FE7D-5FF0-4B40-9597-DFC61EB94F41";
name = "Light Condensed";
paths = (
{
closed = 1;
nodes = (
"123 607 OFFCURVE",
"135 624 OFFCURVE",
"135 644 CURVE SMOOTH",
"135 664 OFFCURVE",
"123 681 OFFCURVE",
"103 681 CURVE SMOOTH",
"82 681 OFFCURVE",
"70 664 OFFCURVE",
"70 644 CURVE SMOOTH",
"70 624 OFFCURVE",
"82 607 OFFCURVE",
"103 607 CURVE SMOOTH"
);
},
{
closed = 1;
nodes = (
"290 607 OFFCURVE",
"302 624 OFFCURVE",
"302 644 CURVE SMOOTH",
"302 664 OFFCURVE",
"290 681 OFFCURVE",
"269 681 CURVE SMOOTH",
"249 681 OFFCURVE",
"237 664 OFFCURVE",
"237 644 CURVE SMOOTH",
"237 624 OFFCURVE",
"249 607 OFFCURVE",
"269 607 CURVE SMOOTH"
);
}
);
width = 372;
}
);
unicode = 00A8;
userData = {
com.schriftgestaltung.Glyphs.ColorIndex = 3;
com.typemytype.robofont.guides = (
{
angle = 0;
isGlobal = 0;
x = 275;
y = 645;
}
);
public.markColor = "0.97,1,0,1";
};
},
{
color = 3;
glyphname = dotaccent;
layers = (
{
anchors = (
{
name = _top;
position = "{123, 500}";
}
);
guideLines = (
{
position = "{50, 681}";
},
{
position = "{50, 607}";
}
);
layerId = "CC11FE7D-5FF0-4B40-9597-DFC61EB94F41";
name = "Light Condensed";
paths = (
{
closed = 1;
nodes = (
"144 607 OFFCURVE",
"156 624 OFFCURVE",
"156 645 CURVE SMOOTH",
"156 665 OFFCURVE",
"144 682 OFFCURVE",
"123 682 CURVE SMOOTH",
"102 682 OFFCURVE",
"90 665 OFFCURVE",
"90 645 CURVE SMOOTH",
"90 624 OFFCURVE",
"102 607 OFFCURVE",
"123 607 CURVE SMOOTH"
);
}
);
width = 246;
}
);
unicode = 02D9;
userData = {
com.schriftgestaltung.Glyphs.ColorIndex = 3;
com.typemytype.robofont.guides = (
{
angle = 0;
isGlobal = 0;
x = 50;
y = 681;
},
{
angle = 0;
isGlobal = 0;
x = 50;
y = 607;
}
);
public.markColor = "0.97,1,0,1";
};
},
{
color = 3;
glyphname = hungarumlaut;
layers = (
{
anchors = (
{
name = _top;
position = "{193, 500}";
}
);
guideLines = (
{
position = "{368, 580}";
}
);
layerId = "CC11FE7D-5FF0-4B40-9597-DFC61EB94F41";
name = "Light Condensed";
paths = (
{
closed = 1;
nodes = (
"240 688 LINE",
"207 722 LINE",
"79 606 LINE",
"102 580 LINE"
);
},
{
closed = 1;
nodes = (
"404 688 LINE",
"371 722 LINE",
"243 606 LINE",
"266 580 LINE"
);
}
);
width = 454;
}
);
unicode = 02DD;
userData = {
com.schriftgestaltung.Glyphs.ColorIndex = 3;
com.typemytype.robofont.guides = (
{
angle = 0;
isGlobal = 0;
x = 368;
y = 580;
}
);
public.markColor = "0.97,1,0,1";
};
},
{
color = 3;
glyphname = macron;
layers = (
{
anchors = (
{
name = _top;
position = "{177, 500}";
}
);
guideLines = (
{
position = "{50, 661}";
},
{
position = "{50, 627}";
}
);
layerId = "CC11FE7D-5FF0-4B40-9597-DFC61EB94F41";
name = "Light Condensed";
paths = (
{
closed = 1;
nodes = (
"55 662 LINE",
"55 627 LINE",
"300 627 LINE",
"300 662 LINE"
);
}
);
width = 355;
}
);
unicode = 00AF;
userData = {
com.schriftgestaltung.Glyphs.ColorIndex = 3;
com.typemytype.robofont.guides = (
{
angle = 0;
isGlobal = 0;
x = 50;
y = 661;
},
{
angle = 0;
isGlobal = 0;
x = 50;
y = 627;
}
);
public.markColor = "0.97,1,0,1";
};
},
{
color = 3;
glyphname = ogonek;
layers = (
{
anchors = (
{
name = _ogonek;
position = "{194, 5}";
}
);
layerId = "CC11FE7D-5FF0-4B40-9597-DFC61EB94F41";
name = "Light Condensed";
paths = (
{
closed = 1;
nodes = (
"181 -193 OFFCURVE",
"197 -191 OFFCURVE",
"211 -188 CURVE",
"209 -158 LINE",
"198 -161 OFFCURVE",
"186 -162 OFFCURVE",
"177 -162 CURVE SMOOTH",
"132 -162 OFFCURVE",
"108 -135 OFFCURVE",
"108 -103 CURVE SMOOTH",
"108 -70 OFFCURVE",
"134 -31 OFFCURVE",
"194 0 CURVE",
"156 6 LINE",
"96 -29 OFFCURVE",
"70 -69 OFFCURVE",
"70 -109 CURVE SMOOTH",
"70 -165 OFFCURVE",
"114 -193 OFFCURVE",
"168 -193 CURVE SMOOTH"
);
}
);
width = 279;
}
);
unicode = 02DB;
userData = {
com.schriftgestaltung.Glyphs.ColorIndex = 3;
public.markColor = "0.97,1,0,1";
};
},
{
color = 3;
glyphname = ring;
layers = (
{
anchors = (
{
name = _top;
position = "{188, 500}";
}
);
layerId = "CC11FE7D-5FF0-4B40-9597-DFC61EB94F41";
name = "Light Condensed";
paths = (
{
closed = 1;
nodes = (
"237 555 OFFCURVE",
"284 587 OFFCURVE",
"284 650 CURVE SMOOTH",
"284 714 OFFCURVE",
"239 745 OFFCURVE",
"193 745 CURVE SMOOTH",
"146 745 OFFCURVE",
"100 713 OFFCURVE",
"100 649 CURVE SMOOTH",
"100 585 OFFCURVE",
"144 555 OFFCURVE",
"191 555 CURVE SMOOTH"
);
},
{
closed = 1;
nodes = (
"163 583 OFFCURVE",
"133 606 OFFCURVE",
"133 649 CURVE SMOOTH",
"133 694 OFFCURVE",
"162 716 OFFCURVE",
"191 716 CURVE SMOOTH",
"221 716 OFFCURVE",
"251 693 OFFCURVE",
"251 649 CURVE SMOOTH",
"251 605 OFFCURVE",
"222 583 OFFCURVE",
"192 583 CURVE SMOOTH"
);
}
);
width = 384;
}
);
unicode = 02DA;
userData = {
com.schriftgestaltung.Glyphs.ColorIndex = 3;
public.markColor = "0.97,1,0,1";
};
},
